<svg version="1.2" xmlns="http://www.w3.org/2000/svg" viewBox="0 0 200 200" width="200" height="200">
	<title>New Project</title>
	<style>
		.s0 { fill: #e0560e } 
		.s1 { fill: #923c3c } 
	</style>
	<g id="&lt;Group&gt;">
		<g id="&lt;Group&gt;">
			<path id="&lt;Path&gt;" class="s0" d="m67.4 119.8q1.2 1.8 2.7 3.5c10.3 12.1 28.5 17.1 43 9.5 10.9-5.8 18.4-16.9 21.6-28.8 3.3-11.9 2.7-24.6 0.5-36.7q-10.6 10.9-21.2 21.8c-2.4-25.3-9.3-50.2-20.4-73.1-1.1 24-10.7 46.9-12.2 70.9-8.7-7.9-18.2-14.8-28.4-20.5 1 0.5 1.3 13.4 1.5 15.2q1.3 8.2 3.6 16.1c2.2 7.9 4.7 15.5 9.3 22.1z"/>
		</g>
		<g id="&lt;Group&gt;">
			<g id="&lt;Group&gt;">
				<path id="&lt;Path&gt;" class="s1" d="m93.5 182.2c3.7-20.6 7.7-41 7.4-62-0.1-3.2-5.1-3.2-5 0 0.3 20.6-3.6 40.5-7.2 60.7-0.5 3.1 4.3 4.5 4.8 1.3z"/>
			</g>
		</g>
	</g>
</svg>