<svg version="1.2" xmlns="http://www.w3.org/2000/svg" viewBox="0 0 200 200" width="200" height="200">
	<title>New Project</title>
	<style>
		.s0 { fill: #fb9505 } 
		.s1 { fill: #eb5a30 } 
	</style>
	<g id="&lt;Group&gt;">
		<g id="&lt;Group&gt;">
			<path id="&lt;Path&gt;" class="s0" d="m84.4 25.4c3.1-5.2 8.6-9.4 14.7-9.4 5.3 0 10.4 3.2 13.6 7.5 3.2 4.3 4.9 9.6 6.1 14.8 4 17.9 2.5 36.8-4.1 53.9 4.6-11.8 8.9-39.2 28.3-34.2 7.7 1.9 11.8 10.4 13.1 18.2 4.4 25.9-16.8 73.2-48 72.4-18.5-0.5-33.4-15.5-43.5-29.6-9.6-13.4-24.6-37.7-21.1-55 1.2-5.7 5.6-11.1 11.4-11.6 5.7-0.5 10.7 3.7 14.5 8 8.8 9.9 15.3 21.8 18.9 34.6-2.7-9.3-6.5-17.8-6.7-27.7-0.3-13.2-4.3-29.8 2.8-41.9z"/>
		</g>
		<g id="&lt;Group&gt;">
			<g id="&lt;Group&gt;">
				<path id="&lt;Path&gt;" class="s1" d="m98.4 69.7c5.5 35.7 17.3 76.5 1.9 111.1-1.3 2.9 3 5.5 4.3 2.5 16.1-36 4.4-77.7-1.4-114.9-0.5-3.2-5.3-1.9-4.8 1.3z"/>
			</g>
		</g>
	</g>
</svg>