<svg version="1.2" xmlns="http://www.w3.org/2000/svg" viewBox="0 0 200 200" width="200" height="200">
	<title>New Project</title>
	<style>
		.s0 { fill: #fb9505 } 
		.s1 { fill: #eb5a30 } 
	</style>
	<g id="&lt;Group&gt;">
		<g id="&lt;Group&gt;">
			<path id="&lt;Path&gt;" class="s0" d="m107.5 25.3c-0.7-7.5-3.4-14.8-8.4-20.3 0.6 0.6-2 3.7-2.3 4.2-3.6 4.3-4.8 11.3-5.3 16.8-1 11.3 1.9 21.4 9 30.2-0.3-0.4 2.7-5 2.9-5.6 0.9-2.2 1.6-4.4 2.3-6.6 1.8-5.8 2.5-12.4 1.8-18.7z"/>
		</g>
		<g id="&lt;Group&gt;">
			<path id="&lt;Path&gt;" class="s0" d="m129.9 52c3.5-6.8 5.2-14.3 4-21.7 0.1 0.9-3.7 2.1-4.2 2.2-5.4 1.8-10.2 7-13.6 11.3-7 8.9-10.1 19-8.9 30.2 0-0.5 4.9-2.7 5.5-3.1 1.9-1.3 3.8-2.8 5.5-4.3 4.6-3.9 8.8-9 11.7-14.6z"/>
		</g>
		<g id="&lt;Group&gt;">
			<path id="&lt;Path&gt;" class="s0" d="m134.2 82c5-5.7 8.5-12.6 9-20.1 0 0.9-4 1.1-4.6 1.2-5.6 0.4-11.5 4.3-15.8 7.7-9 7-14.4 16-15.8 27.2 0-0.5 5.4-1.4 6-1.7 2.2-0.8 4.3-1.8 6.4-2.9 5.4-2.7 10.7-6.6 14.8-11.4z"/>
		</g>
		<g id="&lt;Group&gt;">
			<path id="&lt;Path&gt;" class="s0" d="m136.4 113.2c6.9-3.1 12.9-7.9 16.5-14.5-0.4 0.8-4.1-0.6-4.6-0.8-5.3-2-12.3-0.9-17.7 0.3-11 2.6-19.7 8.6-25.7 18.2 0.2-0.5 5.5 0.9 6.2 0.9 2.3 0.2 4.7 0.2 7 0.1 6-0.2 12.4-1.6 18.3-4.2z"/>
		</g>
		<g id="&lt;Group&gt;">
			<path id="&lt;Path&gt;" class="s0" d="m137 140.9c6.9-3.1 13-7.9 16.6-14.4-0.5 0.8-4.2-0.7-4.7-0.9-5.3-2-12.3-0.9-17.7 0.4-11 2.6-19.7 8.5-25.7 18.1 0.3-0.5 5.5 0.9 6.2 1 2.3 0.1 4.7 0.1 7 0 6-0.2 12.5-1.6 18.3-4.2z"/>
		</g>
		<g id="&lt;Group&gt;">
			<path id="&lt;Path&gt;" class="s0" d="m70.6 51.2c-3.4-6.7-5.2-14.3-3.9-21.6-0.2 0.8 3.6 2 4.2 2.2 5.3 1.7 10.2 7 13.6 11.3 7 8.9 10.1 19 8.8 30.2 0.1-0.6-4.9-2.8-5.5-3.2-1.9-1.3-3.7-2.8-5.5-4.2-4.6-4-8.7-9-11.7-14.7z"/>
		</g>
		<g id="&lt;Group&gt;">
			<path id="&lt;Path&gt;" class="s0" d="m66.3 82c-5-5.7-8.4-12.6-9-20.1 0.1 0.9 4.1 1.1 4.6 1.2 5.6 0.4 11.6 4.3 15.9 7.7 8.9 7 14.3 16 15.8 27.2-0.1-0.5-5.4-1.4-6.1-1.7-2.2-0.8-4.3-1.8-6.3-2.9-5.5-2.7-10.7-6.6-14.9-11.4z"/>
		</g>
		<g id="&lt;Group&gt;">
			<path id="&lt;Path&gt;" class="s0" d="m64.2 113.2c-6.9-3.1-13-7.9-16.6-14.5 0.4 0.8 4.1-0.6 4.7-0.8 5.3-2 12.3-0.9 17.6 0.3 11.1 2.6 19.8 8.6 25.8 18.2-0.3-0.5-5.6 0.9-6.3 0.9-2.3 0.2-4.6 0.2-6.9 0.1-6.1-0.2-12.5-1.6-18.3-4.2z"/>
		</g>
		<g id="&lt;Group&gt;">
			<path id="&lt;Path&gt;" class="s0" d="m63.6 141.8c-6.9-3.1-13-7.9-16.6-14.4 0.4 0.7 4.1-0.7 4.7-0.9 5.2-2 12.3-0.9 17.6 0.4 11.1 2.6 19.8 8.5 25.8 18.1-0.3-0.5-5.6 0.9-6.3 1-2.3 0.1-4.6 0.1-7 0-6-0.2-12.4-1.6-18.2-4.2z"/>
		</g>
		<g id="&lt;Group&gt;">
			<path id="&lt;Path&gt;" class="s0" d="m137 169.8c6.9-3.1 13-7.9 16.6-14.5-0.5 0.8-4.2-0.7-4.7-0.9-5.3-1.9-12.3-0.8-17.7 0.4-11 2.6-19.7 8.6-25.7 18.1 0.3-0.4 5.5 1 6.2 1 2.3 0.2 4.7 0.2 7 0.1 6-0.2 12.5-1.6 18.3-4.2z"/>
		</g>
		<g id="&lt;Group&gt;">
			<path id="&lt;Path&gt;" class="s0" d="m63.6 169.8c-6.9-3.1-13-7.9-16.6-14.5 0.4 0.8 4.1-0.7 4.7-0.9 5.2-1.9 12.3-0.8 17.6 0.4 11.1 2.6 19.8 8.6 25.8 18.1-0.3-0.4-5.6 1-6.3 1-2.3 0.2-4.6 0.2-7 0.1-6-0.2-12.4-1.6-18.2-4.2z"/>
		</g>
		<g id="&lt;Group&gt;">
			<g id="&lt;Group&gt;">
				<path id="&lt;Path&gt;" class="s1" d="m98.2 14.6c1.8 20.9 0.6 42.2 0.8 63.2 0.1 19.1-1.3 38.1-0.7 57.1 0.7 18.8 4.5 39.9-0.8 58.2-0.3 1.2 1.4 1.7 1.8 0.5 5-17.5 1.8-37.3 1-55.2-0.8-19.4 0.7-38.7 0.5-58.2-0.2-21.8 1.1-43.9-0.8-65.6-0.1-1.2-1.9-1.2-1.8 0z"/>
			</g>
		</g>
		<g id="&lt;Group&gt;">
			<g id="&lt;Group&gt;">
				<path id="&lt;Path&gt;" class="s1" d="m69.3 39.1c6 7.5 10.9 15.8 15.9 24 4.2 7 9.4 12.6 14.9 18.7 0.8 0.9 2.1-0.4 1.3-1.3-6.4-7.1-12-13.9-17-22.1-4.2-7.1-8.6-14.1-13.8-20.6-0.8-0.9-2.1 0.4-1.3 1.3z"/>
			</g>
		</g>
		<g id="&lt;Group&gt;">
			<g id="&lt;Group&gt;">
				<path id="&lt;Path&gt;" class="s1" d="m62.7 67.8c5.4 6.4 10.4 12.1 16.7 17.7 6.1 5.6 16.6 12.4 19.3 20.5 0.4 1.1 2.1 0.6 1.8-0.5-2.6-7.7-10.7-13-16.5-18.3-3.6-3.3-7.5-6.4-11-9.8-3.3-3.3-6-7.3-9-10.9-0.8-0.9-2 0.4-1.3 1.3z"/>
			</g>
		</g>
		<g id="&lt;Group&gt;">
			<g id="&lt;Group&gt;">
				<path id="&lt;Path&gt;" class="s1" d="m51.9 101.9c6.8 3.5 14.9 5.3 22.1 7.9 8.2 2.9 16.5 5.8 24.8 8.3 1.2 0.3 1.6-1.4 0.5-1.8-7.6-2.2-15.2-4.8-22.7-7.5-7.7-2.8-16.5-4.7-23.8-8.5-1-0.5-2 1.1-0.9 1.6z"/>
			</g>
		</g>
		<g id="&lt;Group&gt;">
			<g id="&lt;Group&gt;">
				<path id="&lt;Path&gt;" class="s1" d="m54 131.2c15 5.9 30.4 9.9 45.5 15.3 1.1 0.4 1.6-1.4 0.5-1.8-15.1-5.4-30.5-9.4-45.5-15.2-1.1-0.5-1.5 1.3-0.5 1.7z"/>
			</g>
		</g>
		<g id="&lt;Group&gt;">
			<g id="&lt;Group&gt;">
				<path id="&lt;Path&gt;" class="s1" d="m55.5 159.1c13.6 8.3 28.6 13.1 44.5 14.3 1.2 0.1 1.2-1.7 0-1.8-15.5-1.2-30.2-6-43.6-14-1-0.7-1.9 0.9-0.9 1.5z"/>
			</g>
		</g>
		<g id="&lt;Group&gt;">
			<g id="&lt;Group&gt;">
				<path id="&lt;Path&gt;" class="s1" d="m99.9 146.1q22.9-7.3 45.7-14.7c1.1-0.3 0.6-2.1-0.5-1.7q-22.8 7.3-45.7 14.6c-1.1 0.4-0.6 2.1 0.5 1.8z"/>
			</g>
		</g>
		<g id="&lt;Group&gt;">
			<g id="&lt;Group&gt;">
				<path id="&lt;Path&gt;" class="s1" d="m100.7 173.9c15.6-0.9 29.1-9.2 43.9-13.5 1.1-0.3 0.6-2.1-0.5-1.8-14.6 4.3-28 12.6-43.4 13.5-1.2 0-1.2 1.9 0 1.8z"/>
			</g>
		</g>
		<g id="&lt;Group&gt;">
			<g id="&lt;Group&gt;">
				<path id="&lt;Path&gt;" class="s1" d="m98.9 118.4c16.1-3.3 31.2-9.2 46.3-15.3 1.1-0.4 0.6-2.2-0.5-1.8-15.1 6.1-30.2 12.1-46.2 15.3-1.2 0.3-0.7 2 0.4 1.8z"/>
			</g>
		</g>
		<g id="&lt;Group&gt;">
			<g id="&lt;Group&gt;">
				<path id="&lt;Path&gt;" class="s1" d="m100.5 106.2q8.4-9 16.9-18c5.4-5.7 10.5-12 16.9-16.5 1-0.7 0.1-2.3-0.9-1.6-5.9 4.2-10.7 9.8-15.7 15.1q-9.3 9.9-18.5 19.7c-0.8 0.9 0.4 2.2 1.3 1.3z"/>
			</g>
		</g>
		<g id="&lt;Group&gt;">
			<g id="&lt;Group&gt;">
				<path id="&lt;Path&gt;" class="s1" d="m100.2 81.7c12.9-11.6 21-25.7 29.2-40.9 0.6-1-1-1.9-1.6-0.9-8.1 15-16.1 29-28.9 40.5-0.9 0.8 0.4 2.1 1.3 1.3z"/>
			</g>
		</g>
	</g>
</svg>