<svg version="1.2" xmlns="http://www.w3.org/2000/svg" viewBox="0 0 200 200" width="200" height="200">
	<title>New Project</title>
	<style>
		.s0 { fill: #ed7426 } 
		.s1 { fill: #ffffff } 
		.s2 { fill: #c94d2c } 
	</style>
	<g id="&lt;Group&gt;">
		<path id="&lt;Path&gt;" class="s0" d="m150.8 136c-4 9.9-14 21.8-25.4 23.1-4.8 0.5-11.3-1-15.7-3-1.2-0.6-13.2-8.8-11.7-10.1-5.3 4.4-13.3 11.8-20.2 12.4-3.9 0.4-8.5 0.1-12.1-0.9-27.6-7.3-20.3-44.8-12.2-63.9 6.9-16 17.1-30.3 25.9-45.3 8.3-14.2 15.4-29.1 21.3-44.5-2.7 7.1 8.1 25.5 11.4 31.7 5.6 10.9 12.5 21 19.2 31.3 13.6 21 29.9 43.4 19.5 69.2z"/>
		<g id="&lt;Group&gt;" style="opacity: .2">
			<path id="&lt;Path&gt;" class="s1" d="m125.5 132.8c-2 7.5-7 16.6-12.7 17.5-2.4 0.4-5.7-0.8-7.9-2.3-0.6-0.4-6.6-6.7-5.8-7.6-2.7 3.3-6.7 8.9-10.2 9.4-1.9 0.3-4.2 0.1-6-0.7-13.8-5.5-10.2-33.9-6.1-48.4 3.4-12.1 8.5-23 12.9-34.3 4.2-10.8 7.8-22.1 10.7-33.8-1.4 5.4 4.1 19.3 5.7 24 2.8 8.3 6.3 16 9.6 23.8 6.8 15.8 15 32.8 9.8 52.4z"/>
		</g>
		<g id="&lt;Group&gt;">
			<g id="&lt;Group&gt;">
				<path id="&lt;Path&gt;" class="s2" d="m95.9 42.9c-0.6 26.6-0.8 53.3-0.2 79.9 0.5 24.7-0.7 49.2 7.1 72.9 0.6 1.9 3.5 1.1 2.9-0.8-8.1-24.6-6.6-50.3-7.1-75.9-0.6-25.4-0.3-50.8 0.3-76.1 0.1-2-2.9-2-3 0z"/>
			</g>
		</g>
		<g id="&lt;Group&gt;">
			<g id="&lt;Group&gt;">
				<path id="&lt;Path&gt;" class="s2" d="m61.7 88c9.7 9.9 21.4 16.8 34.7 20.6 1.9 0.6 2.7-2.3 0.8-2.9-12.8-3.6-24-10.3-33.4-19.8-1.4-1.4-3.5 0.7-2.1 2.1z"/>
			</g>
		</g>
		<g id="&lt;Group&gt;">
			<g id="&lt;Group&gt;">
				<path id="&lt;Path&gt;" class="s2" d="m74.4 61.4c5.3 11 12.2 21 20.5 30 1.3 1.4 3.4-0.7 2.1-2.1q-12.2-13.2-20.1-29.4c-0.8-1.8-3.4-0.3-2.5 1.5z"/>
			</g>
		</g>
		<g id="&lt;Group&gt;">
			<g id="&lt;Group&gt;">
				<path id="&lt;Path&gt;" class="s2" d="m54.1 117.4c4.1 5.8 11.9 8.6 18.1 11.6 7.6 3.6 15.3 6.2 23.7 7.2 1.9 0.2 1.9-2.8 0-3-7.9-1-15-3.4-22.2-6.8-5.3-2.5-13.6-5.6-17-10.5-1.1-1.6-3.7-0.1-2.6 1.5z"/>
			</g>
		</g>
		<g id="&lt;Group&gt;">
			<g id="&lt;Group&gt;">
				<path id="&lt;Path&gt;" class="s2" d="m98.1 74.8c6.3-7.8 12.4-15.8 14.8-25.7 0.4-1.9-2.5-2.7-2.9-0.8-2.2 9.4-8.1 17-14 24.4-1.2 1.5 0.9 3.6 2.1 2.1z"/>
			</g>
		</g>
		<g id="&lt;Group&gt;">
			<g id="&lt;Group&gt;">
				<path id="&lt;Path&gt;" class="s2" d="m98.3 100.8c13.1-3.4 24.2-11.2 31.8-22.3 1.1-1.6-1.4-3.1-2.5-1.6-7.3 10.5-17.7 17.8-30.1 21-1.8 0.5-1.1 3.4 0.8 2.9z"/>
			</g>
		</g>
		<g id="&lt;Group&gt;">
			<g id="&lt;Group&gt;">
				<path id="&lt;Path&gt;" class="s2" d="m97.4 127.1c17.5-1.1 34.4-6 45-21 1.1-1.5-1.5-3-2.6-1.5-9.9 14-26.1 18.5-42.4 19.5-1.9 0.2-1.9 3.2 0 3z"/>
			</g>
		</g>
		<g id="&lt;Group&gt;">
			<g id="&lt;Group&gt;">
				<path id="&lt;Path&gt;" class="s2" d="m97.9 141.9c6.7-0.8 13.2-0.5 19.8 0.7 1.9 0.4 2.7-2.5 0.8-2.9-6.8-1.3-13.6-1.6-20.6-0.8-1.9 0.2-1.9 3.2 0 3z"/>
			</g>
		</g>
	</g>
</svg>