<svg version="1.2" xmlns="http://www.w3.org/2000/svg" viewBox="0 0 200 200" width="200" height="200">
	<title>New Project</title>
	<style>
		.s0 { fill: #923c3c } 
		.s1 { fill: #d3485d } 
	</style>
	<g id="&lt;Group&gt;">
		<g id="&lt;Group&gt;">
			<g id="&lt;Group&gt;">
				<path id="&lt;Path&gt;" class="s0" d="m64.2 144.2c7.9-22.1 23-40.1 43.4-51.8 2.7-1.6 0.2-5.8-2.5-4.2-21.5 12.3-37.4 31.4-45.7 54.7-1 3 3.8 4.3 4.8 1.3z"/>
			</g>
		</g>
		<g id="&lt;Group&gt;">
			<g id="&lt;Group&gt;">
				<path id="&lt;Path&gt;" class="s0" d="m99.2 154.5c16.1-43.7 13.4-103.9-8.5-145.3-1.5-2.8-5.8-0.3-4.3 2.5 21.2 40 23.6 99.3 8 141.5-1.1 3 3.7 4.3 4.8 1.3z"/>
			</g>
		</g>
		<g id="&lt;Group&gt;">
			<g id="&lt;Group&gt;">
				<path id="&lt;Path&gt;" class="s0" d="m103.9 79.9c10.1 12.8 21.7 26.8 26.1 42.7 0.8 3 5.6 1.7 4.8-1.3-4.7-16.9-16.7-31.4-27.4-44.9-1.9-2.5-5.4 1.1-3.5 3.5z"/>
			</g>
		</g>
		<g id="&lt;Group&gt;">
			<g id="&lt;Group&gt;">
				<path id="&lt;Path&gt;" class="s0" d="m76.2 66.4c6.4-10.1 15.7-17.3 25.1-24.3 2.5-1.9 0-6.2-2.5-4.3-10.1 7.6-20 15.3-26.9 26.1-1.7 2.7 2.6 5.1 4.3 2.5z"/>
			</g>
		</g>
		<g id="&lt;Group&gt;">
			<path id="&lt;Path&gt;" class="s1" d="m74.8 139.8c1.9 6.4-1.1 14.2-7.1 17.2-7.1 3.5-18.6 2.8-23.1-4.7-5.6-9.7 4.4-25.1 15.4-24.2 1.5 0.2 3.1 0.6 4.5 1.2 4.1 1.6 7.7 4.6 9.6 8.6q0.5 0.9 0.7 1.9z"/>
		</g>
		<g id="&lt;Group&gt;">
			<path id="&lt;Path&gt;" class="s1" d="m156.1 128.6c1.9 6.4-1.1 14.2-7.1 17.2-7.1 3.5-18.6 2.8-23.1-4.7-5.6-9.7 4.4-25.1 15.4-24.1 1.5 0.1 3.1 0.5 4.5 1.1 4.1 1.7 7.7 4.6 9.6 8.6q0.5 0.9 0.7 1.9z"/>
		</g>
		<g id="&lt;Group&gt;">
			<path id="&lt;Path&gt;" class="s1" d="m80.4 71c1.9 6.4-1.1 14.3-7.1 17.2-7.1 3.6-18.6 2.9-23.1-4.7-5.6-9.6 4.4-25 15.4-24.1 1.5 0.1 3.1 0.6 4.5 1.2 4.1 1.6 7.7 4.6 9.6 8.5q0.5 1 0.7 1.9z"/>
		</g>
		<g id="&lt;Group&gt;">
			<path id="&lt;Path&gt;" class="s1" d="m112.9 160.8c1.8 6.4-1.2 14.3-7.2 17.3-7.1 3.5-18.6 2.8-23.1-4.8-5.6-9.6 4.4-25 15.4-24.1 1.5 0.1 3.1 0.6 4.5 1.2 4.1 1.6 7.7 4.6 9.6 8.5q0.5 1 0.8 1.9z"/>
		</g>
		<path id="&lt;Path&gt;" class="s0" d="m62.1 84.1c0.3-0.1 0.6-0.3 0.7-0.6 0.2-0.3 0.2-0.8 0.1-1.2-0.4-1.9-1.5-3.6-3.2-4.5-2.5-1.4-6.5-0.7-6.3 2.8 0.2 5.3 5.3 5.6 8.7 3.5z"/>
		<path id="&lt;Path&gt;" class="s0" d="m56.3 152.7c0.2-0.2 0.5-0.4 0.7-0.6 0.2-0.4 0.1-0.9 0-1.3-0.4-1.8-1.5-3.6-3.1-4.5-2.5-1.3-6.5-0.7-6.4 2.9 0.2 5.2 5.3 5.5 8.8 3.5z"/>
		<path id="&lt;Path&gt;" class="s0" d="m98.7 175.6c0.2-0.2 0.4-0.5 0.5-0.8 0.1-0.4 0-0.8-0.2-1.2-0.8-1.7-2.3-3.2-4.1-3.7-2.7-0.7-6.5 0.8-5.6 4.2 1.4 5.1 6.4 4.2 9.4 1.5z"/>
		<path id="&lt;Path&gt;" class="s0" d="m148.2 138.2c0.1-0.3 0.2-0.6 0.1-0.9-0.1-0.4-0.5-0.7-0.8-0.9-1.6-1.1-3.6-1.6-5.4-1.1-2.8 0.8-5.2 4-2.6 6.5 3.8 3.6 7.6 0.3 8.7-3.6z"/>
	</g>
</svg>