<svg version="1.2" xmlns="http://www.w3.org/2000/svg" viewBox="0 0 200 200" width="200" height="200">
	<title>New Project</title>
	<style>
		.s0 { fill: #ed7426 } 
		.s1 { fill: #ffffff } 
		.s2 { fill: #c94d2c } 
	</style>
	<g id="&lt;Group&gt;">
		<path id="&lt;Path&gt;" class="s0" d="m152.6 122.6c5.2 21.6-35.4 42.2-49.7 50.6-0.9 0.5-1.7 0.9-2.7 1-1.1 0.2-2.3-0.3-3.3-0.7-10.7-4.6-17.4-11.6-26.1-18.6-9-7.3-17-16.4-21.9-27-2.4-5.3-4-11.5-2-17 2.1-5.5 9.1-9.3 14.1-6.3-4.7-5.7-9.6-11.8-10.5-19.1-0.9-7.4 4.3-15.9 11.7-15.7-3.1-4.7-6.3-9.8-5.9-15.4 0.5-5.6 6.6-10.9 11.6-8.3-1.3-6-2.1-12.5 0.7-17.9 2.8-5.4 10.6-8.5 15.2-4.5-2.7-5.2-2.1-12 1.9-16.4 3.9-4.3 10.9-5.7 16-2.7 5.1 2.9 7.5 9.9 4.9 15.2 5.7-5 15.7-1.7 19.1 5.2 3.4 6.8 1.4 15.3-3 21.6 3.8-4 10.8-3.7 15-0.1 4.2 3.5 5.9 9.4 5.3 14.9-0.5 5.4-3.1 10.5-6 15.1 3.7-2.9 9.6-1.3 12.5 2.5 2.9 3.7 3.3 8.9 2.7 13.6-1.2 8.6-5.5 16.6-12 22.4 5.1-1.9 11.1 2.3 12.4 7.6z"/>
		<g id="&lt;Group&gt;" style="opacity: .2">
			<path id="&lt;Path&gt;" class="s1" d="m133.8 118.4c3.4 18.9-22.8 36.9-32.1 44.3-0.6 0.4-1.1 0.8-1.7 0.9-0.8 0.1-1.5-0.3-2.2-0.7-6.9-3.9-11.2-10.1-16.9-16.2-5.7-6.4-10.9-14.4-14.1-23.6-1.5-4.7-2.6-10.1-1.2-14.9 1.3-4.8 5.8-8.2 9-5.6-3-5-6.2-10.3-6.7-16.7-0.6-6.5 2.7-13.9 7.5-13.7-2-4.2-4.1-8.7-3.8-13.6 0.3-4.9 4.3-9.5 7.5-7.2-0.8-5.3-1.4-11 0.4-15.7 1.8-4.7 6.9-7.4 9.9-3.9-1.8-4.6-1.4-10.6 1.2-14.4 2.5-3.8 7.1-5 10.3-2.4 3.3 2.6 4.9 8.7 3.2 13.4 3.7-4.4 10.2-1.5 12.4 4.5 2.2 6 0.8 13.4-2 18.9 2.5-3.5 7-3.2 9.7-0.1 2.7 3.1 3.8 8.3 3.4 13-0.3 4.8-2 9.3-3.9 13.3 2.4-2.6 6.3-1.1 8.1 2.2 1.9 3.3 2.1 7.8 1.7 11.9-0.7 7.5-3.5 14.6-7.7 19.6 3.3-1.6 7.2 2 8 6.7z"/>
		</g>
		<g id="&lt;Group&gt;">
			<g id="&lt;Group&gt;">
				<path id="&lt;Path&gt;" class="s2" d="m99.3 195.4c4.1-60.8 2.8-122.2-1.9-182.9-0.1-1.5-2.5-1.5-2.4 0 4.8 60.7 6.1 122.1 2 182.9-0.1 1.5 2.2 1.5 2.3 0z"/>
			</g>
		</g>
		<g id="&lt;Group&gt;">
			<g id="&lt;Group&gt;">
				<path id="&lt;Path&gt;" class="s2" d="m57.9 118.1c10.4 14.9 23.5 27.9 40.4 35.2 1.4 0.6 2.6-1.4 1.2-2-16.5-7.2-29.4-19.8-39.6-34.4-0.9-1.2-2.9-0.1-2 1.2z"/>
			</g>
		</g>
		<g id="&lt;Group&gt;">
			<g id="&lt;Group&gt;">
				<path id="&lt;Path&gt;" class="s2" d="m62 84.9c9.8 11.9 22.5 20.4 37.3 24.9 1.5 0.5 2.1-1.8 0.6-2.2-14.4-4.5-26.7-12.8-36.2-24.4-1-1.1-2.7 0.5-1.7 1.7z"/>
			</g>
		</g>
		<g id="&lt;Group&gt;">
			<g id="&lt;Group&gt;">
				<path id="&lt;Path&gt;" class="s2" d="m65.6 56.6c7.5 13.4 20.6 21 33.8 28.1 1.3 0.7 2.5-1.3 1.2-2.1-12.8-6.9-25.7-14.2-33-27.2-0.7-1.3-2.7-0.1-2 1.2z"/>
			</g>
		</g>
		<g id="&lt;Group&gt;">
			<g id="&lt;Group&gt;">
				<path id="&lt;Path&gt;" class="s2" d="m76.4 31.8c4.6 12.2 12.1 22.7 22.3 31.1 1.1 0.9 2.8-0.7 1.6-1.7-9.8-8-17.1-18.2-21.7-30-0.5-1.4-2.8-0.8-2.2 0.6z"/>
			</g>
		</g>
		<g id="&lt;Group&gt;">
			<g id="&lt;Group&gt;">
				<path id="&lt;Path&gt;" class="s2" d="m99.3 153.4c15.9-5.7 32-11.8 43.3-25 1-1.1-0.7-2.8-1.7-1.6-11 12.9-26.7 18.8-42.3 24.4-1.4 0.5-0.8 2.7 0.7 2.2z"/>
			</g>
		</g>
		<g id="&lt;Group&gt;">
			<g id="&lt;Group&gt;">
				<path id="&lt;Path&gt;" class="s2" d="m99.1 110.1c15.4-4.2 29.1-12 40.6-23.1 1.1-1-0.6-2.7-1.7-1.6-11.2 10.8-24.5 18.3-39.5 22.4-1.5 0.4-0.9 2.7 0.6 2.3z"/>
			</g>
		</g>
		<g id="&lt;Group&gt;">
			<g id="&lt;Group&gt;">
				<path id="&lt;Path&gt;" class="s2" d="m100.2 84c13.7-5.2 24.9-14.6 32.2-27.2 0.8-1.3-1.2-2.5-2-1.2-7 12.1-17.7 21.2-30.8 26.1-1.4 0.5-0.8 2.8 0.6 2.3z"/>
			</g>
		</g>
		<g id="&lt;Group&gt;">
			<g id="&lt;Group&gt;">
				<path id="&lt;Path&gt;" class="s2" d="m100 62.6c9.5-8.7 15.9-19.7 18.9-32.2 0.4-1.5-1.9-2.1-2.2-0.6-2.9 12.1-9.2 22.7-18.4 31.2-1.1 1 0.5 2.6 1.7 1.6z"/>
			</g>
		</g>
	</g>
</svg>