<svg version="1.2" xmlns="http://www.w3.org/2000/svg" viewBox="0 0 200 200" width="200" height="200">
	<title>New Project</title>
	<style>
		.s0 { fill: #ed7426 } 
		.s1 { fill: #ffffff } 
		.s2 { fill: #c94d2c } 
	</style>
	<g id="&lt;Group&gt;">
		<path id="&lt;Path&gt;" class="s0" d="m46.4 119.6q-0.5-2-0.6-4.2c-0.3-6 2.2-10.9 6-15.5 3.1-3.8 4.4-7.3 2.3-12.3-1.2-2.9-3-5.6-3.5-8.6-0.6-3.8 1.3-7.9 4.5-10 1.4-1 3.2-1.6 4.5-2.7 3-2.5 3.5-6.8 3-10.6-0.5-3.8-1.7-7.6-1.4-11.4 0.1-1.7 0.6-3.4 1.7-4.7 2.5-2.7 7-2.2 9.7-4.6 2.8-2.5 2.7-6.8 2.4-10.5-0.2-3.7 0-8.2 3.2-10.2 1.5-0.9 3.3-1.1 4.9-1.8 4.1-2.1 5.2-7.3 5.8-11.8q0.8-6.2 1.6-12.4c0.4 9.1 4 22.7 12.2 27.8 2.4 1.6 5.6 3 6 5.8 0.4 2.2-1.2 4.3-1.7 6.5-0.7 3.7 1.7 7.2 4.3 9.8 2.5 2.7 5.5 5.3 6.4 8.9 1.1 4.3-1.1 8.9-0.5 13.2 0.4 2.3 1.5 4.4 2.8 6.4 4.2 6.2 10.8 12.1 10.3 19.6-0.3 4.7-3.5 9.2-2.7 13.9 0.9 5.3 6.5 8.4 8.8 13.2 3.1 6.5-0.4 14.3-5.1 19.8-7.6 8.8-17.8 17.9-28.1 23.1-4.8 2.4-10.1 4.4-13.2 8.6-14.5-7.5-27.2-18.4-36.7-31.7-2.9-4.1-5.7-8.7-6.9-13.6z"/>
		<g id="&lt;Group&gt;" style="opacity: .2">
			<path id="&lt;Path&gt;" class="s1" d="m64.3 120.9q-0.3-1.5-0.4-3.1c-0.2-4.5 1.4-8.2 3.6-11.5 1.9-2.9 2.7-5.5 1.4-9.2-0.7-2.1-1.8-4.1-2.1-6.4-0.3-2.8 0.8-5.8 2.7-7.4 0.9-0.7 1.9-1.2 2.8-2 1.8-1.8 2.1-5.1 1.8-7.9-0.3-2.8-1.1-5.6-0.9-8.5 0.1-1.2 0.4-2.5 1.1-3.4 1.4-2 4.2-1.7 5.8-3.4 1.7-1.9 1.6-5.1 1.5-7.8-0.2-2.8 0-6.1 1.9-7.6 0.9-0.7 2-0.8 3-1.4 2.5-1.5 3.1-5.4 3.5-8.7q0.5-4.6 1-9.2c0.2 6.7 2.4 16.8 7.3 20.7 1.5 1.1 3.4 2.1 3.7 4.2 0.2 1.7-0.8 3.2-1 4.9-0.5 2.7 1 5.3 2.5 7.3 1.6 2 3.4 3.9 3.9 6.6 0.7 3.2-0.7 6.5-0.3 9.8 0.3 1.7 0.9 3.2 1.7 4.7 2.6 4.6 6.6 9 6.3 14.6-0.2 3.5-2.2 6.8-1.7 10.3 0.6 3.9 3.9 6.2 5.3 9.8 1.9 4.8-0.2 10.6-3 14.7-4.6 6.5-10.8 13.3-17.1 17.1-2.8 1.8-6 3.3-8 6.5-8.7-5.6-16.4-13.8-22.1-23.6-1.8-3.1-3.5-6.5-4.2-10.1z"/>
		</g>
		<g id="&lt;Group&gt;">
			<g id="&lt;Group&gt;">
				<path id="&lt;Path&gt;" class="s2" d="m89 21.5c0 59.1-1 118.1-1.6 177.2-0.1 1.7 2.6 1.7 2.6 0 0.6-59.1 1.6-118.1 1.7-177.2 0-1.7-2.7-1.7-2.7 0z"/>
			</g>
		</g>
		<g id="&lt;Group&gt;">
			<g id="&lt;Group&gt;">
				<path id="&lt;Path&gt;" class="s2" d="m55.4 111.1c6.3 7.7 12.1 15.6 18.2 23.4 4.7 6.2 10 11.7 14 18.4 0.8 1.4 3.1 0.1 2.3-1.4-4.5-7.4-10.6-13.7-15.8-20.7-5.5-7.3-11-14.5-16.8-21.6-1.1-1.3-3 0.6-1.9 1.9z"/>
			</g>
		</g>
		<g id="&lt;Group&gt;">
			<g id="&lt;Group&gt;">
				<path id="&lt;Path&gt;" class="s2" d="m59.1 78.7c9.3 12.1 22.2 21.4 29.3 35.1 0.8 1.5 3.1 0.2 2.3-1.3-7.1-13.8-20-23-29.3-35.2-1-1.3-3.3 0-2.3 1.4z"/>
			</g>
		</g>
		<g id="&lt;Group&gt;">
			<g id="&lt;Group&gt;">
				<path id="&lt;Path&gt;" class="s2" d="m67.7 47.8c7.2 9.4 14.4 18.9 20.7 29 0.9 1.4 3.1 0.1 2.2-1.4-6.2-10.1-13.4-19.5-20.6-29-1-1.3-3.3 0-2.3 1.4z"/>
			</g>
		</g>
		<g id="&lt;Group&gt;">
			<g id="&lt;Group&gt;">
				<path id="&lt;Path&gt;" class="s2" d="m78.9 26.7q5.3 8.9 10.4 17.9c0.8 1.5 3.1 0.1 2.3-1.4q-5.1-9-10.4-17.9c-0.9-1.4-3.2-0.1-2.3 1.4z"/>
			</g>
		</g>
		<g id="&lt;Group&gt;">
			<g id="&lt;Group&gt;">
				<path id="&lt;Path&gt;" class="s2" d="m90 153.3q13.3-20.3 31.5-36.3c1.3-1.1-0.6-3-1.8-1.8-12.4 10.7-23 23-32 36.7-0.9 1.5 1.3 2.8 2.3 1.4z"/>
			</g>
		</g>
		<g id="&lt;Group&gt;">
			<g id="&lt;Group&gt;">
				<path id="&lt;Path&gt;" class="s2" d="m90.4 114.9c7.7-14.2 17.7-26.6 30-37 1.3-1.1-0.6-3-1.9-1.9-12.5 10.6-22.6 23.2-30.4 37.6-0.8 1.5 1.5 2.8 2.3 1.3z"/>
			</g>
		</g>
		<g id="&lt;Group&gt;">
			<g id="&lt;Group&gt;">
				<path id="&lt;Path&gt;" class="s2" d="m91.6 78q8.8-14.6 18.9-28.3c1-1.4-1.3-2.7-2.3-1.4q-10.1 13.8-18.9 28.4c-0.9 1.5 1.4 2.8 2.3 1.3z"/>
			</g>
		</g>
		<g id="&lt;Group&gt;">
			<g id="&lt;Group&gt;">
				<path id="&lt;Path&gt;" class="s2" d="m91.7 44.9q4.7-8.1 9.4-16.2c0.9-1.5-1.4-2.8-2.2-1.3q-4.8 8.1-9.5 16.2c-0.9 1.4 1.4 2.8 2.3 1.3z"/>
			</g>
		</g>
	</g>
</svg>