<svg version="1.2" xmlns="http://www.w3.org/2000/svg" viewBox="0 0 200 200" width="200" height="200">
	<title>New Project</title>
	<style>
		.s0 { fill: #d3485d } 
		.s1 { fill: #ffffff } 
		.s2 { fill: #bf3837 } 
	</style>
	<g id="&lt;Group&gt;">
		<g id="&lt;Group&gt;">
			<path id="&lt;Path&gt;" class="s0" d="m152.7 107.5c-1 0.6-3.5 10-4.5 11.8-2.3 3.8-5.4 7.2-8.9 9.9-6.9 5.4-13.6 11.6-20.6 17-6.5 5.1-12.8 11.3-14.9 19.2-1.5-9.9-8.4-18.2-16.2-24.5-7.3-5.9-16-10.3-22.9-16.8-6.4-6.1-11.2-14.2-16.7-21.2 3.1 0.1 6.1 1.1 8.5 3-3.2-6.7-5.4-13.9-6.6-21.3 3.5 2.5 6.7 5.3 9.7 8.4q0-13.1 0-26.1c1 1.6 2.8 2.8 4.7 3-0.2-6.7 0.1-13.3 1-19.9q3.1 2.3 6.2 4.5c-0.6-5.7-0.3-11.6 0.8-17.3q3 2.6 5.9 5.2-0.2-13.6 0.5-27.1 3 6.5 5.9 13c-1.3-3 4-16.1 4.8-19.8q3.4 4.6 6.8 9.3c1.7-4.7 4.6-8.6 6.2-13.2q1.7-5.2 3-10.6 2.7 10.5 5.5 21.1 2.9-5.2 6.5-9.8c0.4 3.3 0.7 6.9 1.7 10.1 0.4 1.4 3.2 6 2 7.3q2.4-2.5 4.8-5 2.4 11.3 4.7 22.5 3-1.9 6-3.8c0 8.4 0.3 16.8 0.3 25.2 1.9-2.1 3.4-4.6 4.2-7.3-0.1 8.6-0.4 17.3-0.1 25.9q3.4-3.4 6.7-6.8-2.6 11.1-5.1 22.1c2.3-0.6 4.5-1.7 6.4-3.2 0.7 5.8 0.5 11.7-0.7 17.5q2.2-1.2 4.4-2.3z"/>
		</g>
		<g id="&lt;Group&gt;" style="opacity: .2">
			<path id="&lt;Path&gt;" class="s1" d="m136.1 110.3c-0.7 0.4-2.3 7.2-3 8.4-1.5 2.8-3.4 5.2-5.7 7.1-4.5 3.9-8.8 8.3-13.4 12.2-4.2 3.6-8.2 8-9.6 13.7-1-7.1-5.5-13-10.5-17.5-4.7-4.2-10.4-7.4-14.8-12-4.2-4.4-7.3-10.2-10.9-15.2 2 0.1 4 0.8 5.6 2.1-2.1-4.7-3.6-9.9-4.3-15.1q3.4 2.6 6.2 5.9 0.1-9.3 0.1-18.6c0.6 1.2 1.8 2 3 2.1-0.1-4.7 0.1-9.5 0.7-14.2q2 1.7 4 3.3c-0.4-4.1-0.3-8.3 0.5-12.4q1.9 1.9 3.8 3.7-0.1-9.7 0.4-19.3 1.9 4.6 3.8 9.3c-0.9-2.2 2.6-11.6 3-14.2q2.2 3.3 4.5 6.6c1.1-3.3 3-6.1 4-9.3q1.1-3.8 1.9-7.6 1.8 7.5 3.6 15 1.8-3.7 4.2-7c0.2 2.4 0.5 5 1.1 7.3 0.3 0.9 2.1 4.2 1.3 5.1q1.5-1.7 3.1-3.5 1.5 8 3.1 16.1 1.9-1.4 3.8-2.7c0 6 0.2 11.9 0.2 17.9 1.3-1.4 2.2-3.2 2.7-5.2 0 6.2-0.2 12.4 0 18.5q2.2-2.4 4.3-4.8-1.6 7.9-3.3 15.8c1.5-0.5 2.9-1.3 4.2-2.3 0.4 4.1 0.3 8.4-0.5 12.5q1.5-0.9 2.9-1.7z"/>
		</g>
		<g id="&lt;Group&gt;">
			<g id="&lt;Group&gt;">
				<path id="&lt;Path&gt;" class="s2" d="m103.5 23c1.6 56.6 0.3 113.6-0.7 170.2 0 1.7 2.7 1.7 2.7 0 1-56.6 2.3-113.6 0.7-170.2 0-1.7-2.7-1.7-2.7 0z"/>
			</g>
		</g>
		<g id="&lt;Group&gt;">
			<g id="&lt;Group&gt;">
				<path id="&lt;Path&gt;" class="s2" d="m75.4 111.4q11.6 15.3 27.4 26.4c1.4 0.9 2.8-1.4 1.4-2.4-10.2-7-19-15.5-26.5-25.3-1-1.4-3.4-0.1-2.3 1.3z"/>
			</g>
		</g>
		<g id="&lt;Group&gt;">
			<g id="&lt;Group&gt;">
				<path id="&lt;Path&gt;" class="s2" d="m84.9 84.4q7.6 12 17.9 21.7c1.2 1.1 3.1-0.7 1.9-1.9q-10.1-9.5-17.5-21.2c-0.9-1.4-3.2-0.1-2.3 1.4z"/>
			</g>
		</g>
		<g id="&lt;Group&gt;">
			<g id="&lt;Group&gt;">
				<path id="&lt;Path&gt;" class="s2" d="m90.2 61.2c5.1 6.2 8.9 13.2 13.1 20 0.9 1.5 3.2 0.2 2.3-1.3-4.3-7-8.2-14.2-13.5-20.6-1.1-1.3-3 0.6-1.9 1.9z"/>
			</g>
		</g>
		<g id="&lt;Group&gt;">
			<g id="&lt;Group&gt;">
				<path id="&lt;Path&gt;" class="s2" d="m97.3 40.8c2.8 4.5 4.8 9.2 6 14.4 0.4 1.7 3 1 2.6-0.7q-1.9-8.1-6.3-15.1c-0.9-1.4-3.2-0.1-2.3 1.4z"/>
			</g>
		</g>
		<g id="&lt;Group&gt;">
			<g id="&lt;Group&gt;">
				<path id="&lt;Path&gt;" class="s2" d="m106 56.2q3.7-4.9 7.8-9.5c1.2-1.3-0.7-3.2-1.9-1.9q-4.3 4.8-8.2 10c-1.1 1.4 1.3 2.7 2.3 1.4z"/>
			</g>
		</g>
		<g id="&lt;Group&gt;">
			<g id="&lt;Group&gt;">
				<path id="&lt;Path&gt;" class="s2" d="m106.6 82.6c4.1-6.4 9.1-12 15-16.8 1.4-1.1-0.6-2.9-1.9-1.9-6.1 5-11.2 10.7-15.4 17.3-1 1.5 1.4 2.8 2.3 1.4z"/>
			</g>
		</g>
		<g id="&lt;Group&gt;">
			<g id="&lt;Group&gt;">
				<path id="&lt;Path&gt;" class="s2" d="m105.7 107q10-8.3 20.6-15.7c1.5-1 0.1-3.3-1.3-2.3q-10.9 7.6-21.2 16.1c-1.3 1.1 0.6 3 1.9 1.9z"/>
			</g>
		</g>
		<g id="&lt;Group&gt;">
			<g id="&lt;Group&gt;">
				<path id="&lt;Path&gt;" class="s2" d="m105.4 138.3q11.9-11.1 25.4-20.2c1.5-1 0.1-3.3-1.3-2.4q-13.8 9.3-26 20.7c-1.3 1.2 0.7 3 1.9 1.9z"/>
			</g>
		</g>
	</g>
</svg>