<svg version="1.2" xmlns="http://www.w3.org/2000/svg" viewBox="0 0 1000 1000" width="1000" height="1000">
	<title>24746602_7007683-ai</title>
	<style>
		.s0 {
			fill: #000000
		}
	</style>
	<path id="&lt;Compound Path&gt;" fill-rule="evenodd" class="s0"
		d="m631.1 510.5q-0.1-0.1-0.2-0.2 0.1 0.1 0.2 0.2 0.2 0.2 0.5 0.5 0 0 0 0 0 0 0 0-0.3-0.3-0.5-0.5zm7.1 7.6c2 2.7 4.6 5 6.2 8.1 0.5 0.9 1.5 1.5 1.9 2.6 0.3 0.6 1 0.5 1.5 0.4 2.4-0.5 4.9-0.1 7.2-0.6 1.3-0.3 2.7-0.2 4 0.1 0.6 0.1 1.2 0.2 1.7 0.2 10 0.2 19.2 3.2 28.2 7.1 4.9 2.1 9.6 4.6 14 7.6 3.8 2.6 7.3 5.7 11 8.5 3.5 2.6 5.7 6.1 7.8 9.7 0.5 1 1.1 2 1.8 2.9 0.5 0.7 1 1.4 0.8 2.3-0.1 0.2-0.1 0.6 0 0.7 1.3 2.2 0.6 4.5 0.4 6.8q-0.1 1.8 0.8 3.3c3.2 5.7 5.2 11.9 8.9 17.3 0.3 0.4 0.7 0.9 0.1 1.3-0.5 0.3-0.9-0.2-1.2-0.5-1.8-1.7-3-3.8-4.2-5.9-2.3-3.9-5.1-7.4-7.8-11-4-5.5-8.6-10.5-13.4-15.4-5-5.2-10.8-9.3-16.6-13.5-3.9-2.7-8.3-4.8-12.8-6.6-1.2-0.5-2.3-0.7-3.3 0.5-1 1.2-2.1 0.9-3.1 0.1-1.3-0.8-2.4-1.7-3.7-2.5-1.2-0.8-2.5-1.4-3.8 0.1-0.5 0.6-1.2 0.5-1.8 0.1-0.6-0.3-1.2-0.7-1.8-1-1.6-0.8-1.8-0.8-3 0.8-0.6 0.9-1.2 1.3-2.2 0.4-0.4-0.3-1-0.6-1.5-0.8-1.3-0.5-1.7-0.2-1.5 1.2 0.2 0.9 0.1 1.8 0 2.7-0.1 2.2-0.1 4.3 0.7 6.4 0.8 2 1 4.3 1.6 6.3 1.4 4.2 2.1 8.7 3.6 12.9 1 2.8 2 5.8 2.8 8.8-1.5 0-2.1-0.8-2.7-1.6-2.4-3.4-4.9-6.9-6.6-10.8-2-4.6-4.9-8.7-7.5-12.9-0.8-1.4-1.7-2.7-2.4-4.1-1-2.1-2.5-3.7-4.1-5.3-0.8-0.8-1.6-1-2.7-0.5-7.8 3.8-14.6 8.8-20.3 15.4-3.3 4-6 8.1-8.3 12.7-1.1 2.2-1.2 4.5-1 6.8 0.1 1.3 0.8 1.8 2 1.4 1-0.4 2-0.8 2.9-1.4 3.1-2 6.5-2.9 10-3.9 1.2-0.4 2.4-0.3 3.7-0.1 5.3 1.2 9.9 3.9 13.9 7.4 1 0.9 1.7 2.3 2 3.7 0.2 1.2 0 1.4-1.2 2.1 0.3 0.8 1 1.1 1.6 1.6 0.3 0.3 0.5 0.7 0.2 1.1-0.2 0.3-0.6 0.4-0.9 0.2-1.8-0.7-3.7-0.4-5.6-0.5-3.3-0.2-6.4 0.9-9.6 1.2-0.7 0-1 0.4-1 1.1 0 0.2-0.1 0.4-0.1 0.5 0.7 3.4 0 6.7 0.2 10 0.1 0.4 0.2 0.7 0.1 1 0 0.5-0.1 1.1-0.7 1.3-0.5 0.1-0.9-0.3-1.2-0.7q-0.3-0.4-0.5-0.9c-0.3-0.8-0.4-1.8-0.9-2.6-0.4-0.6-1.4-0.9-1.8-1.8-0.8 0.2-0.8 0.7-0.7 1.2 0.3 1.1 0.5 2.1 0.9 3.1 2.1 5.4 3.7 10.8 4.3 16.6 0.5 4.4 0.7 8.9 1.8 13.3 0.3 1 0 2 0.1 3 0.2 1.8 0.6 2.1 2.2 1.8 4-0.9 8-1.1 12.1-1.1 5.5 0 10.9 1.2 16.3 2.1 9 1.4 17.4 4.5 25.5 8.5 7.5 3.7 14.4 8.5 20.9 13.9 2.8 2.5 5.7 4.9 8.4 7.4 3 2.8 5.8 5.8 8.5 8.8 3.1 3.5 5.3 7.6 8.3 11.2q0.6 0.8 1 1.7c0.3 0.7 0.3 1.4-0.7 1.3-1.4-0.1-1 0.7-0.9 1.4 0.4 2.2 1.5 4.1 2.3 6.1 0.4 1 0.9 2 0.6 3.1-0.2 0.9 0.4 1.8 0.6 2.7 0.4 1.2 0.2 2-1.3 1.7-0.3 0.9 0.3 1.5 0.6 2.2 0.3 1 0.6 2 0 3.1-0.7 1.5-0.1 3.1 0.1 4.6 0.3 1.8 0.3 1.9-1.6 2.5-0.8 0.3-1.1 0.8-1.2 1.5-0.1 0.9-0.1 1.8-0.3 2.7-0.2 1.1-0.6 1.9-2 1.6-0.8-0.3-1.1 0.2-1.4 0.9-0.6 1.3-1.5 2.4-2.5 3.5-1.3 1.3-1.9 3-1.8 4.9 0 2.2-0.1 4.4 0 6.5q0.1 3.7-0.6 7.2c-0.5 2.5-0.6 5-0.1 7.5 0.2 1 0.8 2.5-0.4 2.9-1.3 0.3-1.3-1.4-1.7-2.3-4.2-9.4-8.4-18.7-13.9-27.3-0.7-1-1.3-1.9-2.4-2.6-1.1-0.7-1.5-2.1-2.2-3.2-1.1-1.5-1.7-3.3-3.5-4.1-0.1 0-0.2-0.1-0.2-0.2-0.8-2.9-3.7-4.4-4.9-7-0.5-1-0.9-2.2-2.5-1.6-0.8 0.3-1.2-0.6-1.4-1.2-0.4-1.2-0.9-2.3-2.4-2.6-0.8-0.2-1.2-1.1-1.5-1.9-0.6-1.4-1.1-2.8-2.8-3.2-0.7-0.1-0.9-0.9-1.1-1.5-0.3-1-0.7-1.5-1.8-1.1-1.3 0.4-1.7-0.4-1.7-1.5 0.2-2.4-1.3-4.2-2.6-6q-0.5-0.6-0.9-1.2c-0.9-1.4-0.9-1.4-2.5-0.6-1.7 0.8-2.1 0.6-2.4-1.3-0.2-1-0.2-1.9-1.6-1.9-1.2 0-0.9-1-1-1.8-0.3-1.6-0.3-1.7-1.9-1-1.6 0.7-1.8 0.6-2-1.1-0.1-1 0-2-1.5-1.4-0.6 0.2-0.9-0.3-1-0.8-0.1-0.7-0.1-1.4-0.2-2-0.2-1.1-0.6-1.3-1.5-0.6-1.1 0.8-1.1 0.8-2.5 0.4-0.2 0.9-0.4 1.8-0.7 2.6-0.2 0.6-0.7 0.9-1.1 0.3-0.8-1-1.8-1.9-1.6-3.5 0.4-3.6-0.7-7.1-1.7-10.5-0.7-2.8-2.6-5.3-4.2-7.8-0.6-1-1.8-1.4-3.1-1.3-5 0.3-9.9 1.1-14.7 2.4-3.8 1-7 3-10.5 4.7-0.9 0.4-1.2 1.2-1.2 2.2 0.1 1.2 0.4 2.3 0.6 3.5 0.3 1.4-0.3 1.4-1.4 0.6 0.1 1.3 0.2 2.3 0.2 3.2 0 1.3-0.4 1.5-1.6 1.1-1.8-0.5-2.3-0.3-2.2 1.5 0 2.2-1.4 3.7-1.8 5.7 0 0.1-0.2 0.4-0.2 0.4-2.5-0.4-2 2.6-3.7 3.2-0.8 0.3-0.8 1.6-1.1 2.4-0.3 0.9-0.6 1.4-1.8 1.3-1.8-0.1-2.4 0.4-2.5 2.2-0.4 4.8-0.6 9.6-1 14.4-0.5 5.4-0.7 10.8-1.3 16.1-0.4 3.3-0.4 6.5-0.6 9.7-0.1 1 0 1.9-0.2 2.8-0.5 3.1-1.1 3.5-4.1 3.9-0.9 0.1-2.2-0.6-2.5 0.5-0.6 1.5-1.9 3.1-0.8 4.9 0.7 1 1.1 1.9 0 3.1-0.6 0.7 0.1 1.9 0.3 2.8 0.4 1.4 1 2.7 1.3 4.1 0.3 1.5 0 2.1-1.6 2-3-0.2-3.3 1.2-2.6 3.5 0.1 0.5 0.1 1 0.2 1.5 0.2 1.1-0.1 1.9-1.3 2-1.5 0.2-1.8 1.2-1.8 2.5 0 1.7 0 3.5 0 5.2-0.1 2.3-0.4 2.8-2.6 3.2-1.1 0.2-1.2 0.7-1.2 1.5 0 1.3 0 2.5 0 3.7 0 1.7-0.3 1.9-1.7 1.4-2.9-0.9-2.9-0.9-3.4 2.1q-0.3 1.3-0.5 2.7c-0.1 1.2-0.4 2.1-1.8 2.2-1 0-1.2 0.8-1.2 1.6-0.2 1.3-0.4 2.6-0.5 3.9-0.2 1.2-0.6 2.1-2 2.1-1.1 0.1-1.5 0.8-1.9 1.7-0.9 2.2-1.9 4.4-2.9 6.6-0.3 0.7-0.7 1.5-1.6 1.4-1.4-0.1-1.9 0.8-2.4 1.8-1.2 2.5-3.1 4.7-3.9 7.5-0.3 1-1 2-1.7 2.7-1.6 1.6-2.3 3.4-2.7 5.5-0.2 1.5-0.9 3-1.5 4.5-2 4.7-3.1 9.7-4 14.8-0.2 1.1 0.1 2.7-1 2.9-1.4 0.2-1.5-1.6-2-2.5-1.2-2.6-1.6-5.4-2.5-8.1-0.5-1.6-1-3.2-1.9-4.6-3.3-5.1-5.1-10.9-6.8-16.6-1-3.4-2.6-6.1-5.8-7.7-1.3-0.6-2.1-1.9-3.4-2.5q-0.4-0.6-0.7-1.3c-0.4-0.8-1-0.9-1.9-0.6-1.9 0.5-2.2 0.4-3.1-1.4-0.8-1.5-1.7-2.8-2.9-4-0.7-0.7-1.3-1-2.4-0.7-1.7 0.6-1.8 0.5-2.6-1.2-0.4-1.1-0.8-2.2-1.2-3.3-0.6-1.6-1.3-3.1-3.1-3.6-0.7-0.2-1-0.8-1.2-1.5-0.2-0.9-0.3-1.8-0.4-2.7-0.3-1.4-0.4-1.5-1.9-1.1-1.5 0.5-1.8 0.4-2.2-1.2-0.5-1.7-0.6-3.4-2.3-4.5-0.9-0.5-0.8-2-1-3-0.5-2.5-1.6-4.7-3.2-6.7-0.7-1-1.3-1.2-2.5-0.7-2 0.8-2.6 0.5-3.2-1.6-0.5-1.9-0.8-3.9-0.8-5.9 0-2.8-0.1-2.8-2.6-2.1q-0.3 0.1-0.5 0.2c-1.1 0.4-1.6-0.1-1.7-1.1-0.1-0.6-0.1-1.2-0.1-1.7-0.2-1.8 0.1-3.7-1.3-5.2-0.2-0.3-0.2-0.7-0.3-1 0-1.2-0.2-2.2-1.5-2.8-1-0.4-0.9-1.5-0.7-2.4 0.5-2.2 0.1-4.3-0.2-6.5-0.1-0.7-0.3-1.3-1.1-1.4-1.4-0.3-1.5-1.2-1.5-2.3 0-1.3 0.1-2.6-1.6-3.3-0.8-0.3-0.8-1.4-0.7-2.2q0.2-1.6 0.5-3.2c0.3-1.6 0.5-3.1-0.5-4.6-0.6-0.9-0.1-2.1-0.1-3.2 0.1-0.6 0.4-1.5-0.3-1.8-1.4-0.7-0.9-1.7-0.6-2.7 0.8-2.3 1.4-4.6 0.5-7.1-0.3-0.6 0.1-1.3 0.3-1.9q0.4-1.7 0.8-3.4c0.1-0.3 0.2-0.8-0.2-0.9-1.6-0.2-1-1.2-0.6-2 1.8-3.8 3-7.9 5.7-11.3 2.3-2.8 4.9-5.2 8.7-5.8 3.1-0.5 6.1-0.9 9.2-0.8 2.6 0.1 4.8 1.3 7.1 2.3 2.1 1 4.3 2.2 6.4 3.3 2.3 1.3 4.7 1.7 7.2 1.5 1.9-0.2 2.4-0.8 2.8-2.6 0.2-0.7 0.4-1.5 0.4-2.2-0.2-5.6 0.5-11.1 0.5-16.7 0-1.2-0.2-2.3-0.7-3.4-3.4-6.9-6.7-13.9-11.2-20.2-1.9-2.7-3.9-5.4-6.8-7.1-0.7-0.4-1.1-1-1.5-1.6-1.4-2.1-2.9-4.1-4.9-5.6q-0.9-0.7-1.5-1.7c-0.4-0.7-0.7-1.3-1.7-1.1-0.7 0.1-1.1-0.4-1.5-0.9-1.7-2.2-4.2-3.7-6.1-5.8-1.2-1.5-3-2.3-4.6-3.4-0.6-0.4-1.3-0.9-2.1-0.5-1.5 0.8-2.4-0.2-3.5-1-1.7-1.2-3.2-2.7-4.6-4.2-0.9-0.8-1.5-1-2.5-0.2-2.6 2.2-2.6 2.1-5.3 0-1.2-0.9-2.3-2.3-4.1-1.9-0.6 0.2-1.1-0.3-1.5-0.8-1.1-1.1-2.2-0.9-3.4-0.1-2 1.1-2.1 1.1-3.5-0.6-1.2-1.5-2.9-2.2-4.5-3-1.1-0.5-2.2-0.2-3.1 0.5-0.6 0.4-1.2 0.9-1.7 1.4-0.9 0.7-1.7 1.1-2.6 0.2-1-0.9-1.7-0.5-2.3 0.3-0.7 1-1.5 1.8-2.7 2-0.7 0.1-1.2 0.7-1.5 1.3-1.3 1.7-0.9 2.7 1.2 2.9 3.6 0.3 5.8 2.3 6.9 5.6 0.5 1.5 1.2 2.9 2.1 4.2 0.2 0.4 0.4 0.8 0.1 1.2-0.5 0.6-0.9 0.1-1.3-0.1-0.2-0.1-0.5-0.2-0.7 0.1-0.3 0.5 0 1 0.2 1.6 0.5 1.1 0.9 2.1-0.5 3-0.8 0.5-0.4 1.7 0 2.5 0.3 0.8 1 1.3 0.7 2.3-0.8 0.7-1.5-0.6-2.3-0.1-0.5 0.5-0.2 1.1-0.2 1.6 0 0.7-0.3 1.2-1 1.3-1.5 0.1-1.5 1-1.2 2.1q0.1 0.4 0.2 0.8c0.5 2.6 0.3 2.8-2.4 2.4-1.2-0.2-1.3 0.6-1.2 1.3 0.5 2.8 0.2 5.5 0.6 8.2 0.5 3.3 0.4 6.5 0.7 9.7 0.5 5.7 0.4 11.3 0.8 17 0.4 5 0.4 10.1 1.1 15.1 0.6 4.5 0.4 9.1 0.8 13.6 0.2 3.1 0.5 6.3 0.8 9.4 0.3 3-0.1 3.7-3 4.4-1.2 0.3-2.5 0.3-3.7 0.3-1.8-0.1-2.6-0.8-3-2.5q-0.1-0.5-0.1-1c-0.3-6.3-0.5-12.6-0.7-19-0.2-4.7-0.4-9.4-0.9-14.1q0-0.4 0-0.8c0-7.5-0.9-14.9-1.1-22.4 0-3.1-0.4-6.3-0.4-9.4 0-0.9-0.2-1.8-0.9-2.7-1.1 1.8-2.9 2.9-3.3 5-0.2 1-1.3 0.8-2.2 0.5-2.7-0.8-2.6-0.8-3.3 1.9-0.3 1.2-0.4 2.5-0.2 3.7 0.5 4.1 0.3 8.2 0.7 12.2 0.5 5.2 0.6 10.5 1.2 15.7 0.3 2.7 0.4 5.6 0.6 8.4 0.2 3.5 0.6 7 0.8 10.4 0.1 5.2 1 10.3 0.8 15.4-0.1 3 0.5 5.8 0.6 8.7 0.1 3.7 0.5 7.3 0.8 11 0.3 3.3 0.5 6.6 0.8 9.9 0.4 3.3-0.4 4.6-3.6 5.3-1.6 0.4-3.1 0.4-4.7 0.3-1.2-0.1-2-0.7-2.1-2.1-0.2-2-0.5-4.1-0.6-6.2-0.1-3.8-0.5-7.6-0.8-11.4-0.2-2.7-0.3-5.5-0.4-8.2-0.2-3.6-0.4-7.2-0.7-10.7-0.6-5.9-0.4-11.8-0.9-17.7-0.4-3.5-0.7-7.1-0.6-10.7q0-3.2-1.5-6c-1.6-3-3.4-5.8-5.4-8.7-0.7-1-1.1-1-1.7 0.2-0.3 0.5-0.5 1.2-0.8 1.8-0.2 0.4-0.5 1-1 1-2.1 0-2.7 1.7-3.6 3-0.5 0.9-1.1 1.7-2.2 1.9-0.2 0.1-0.5 0.2-0.6 0.4-1.9 3-5.1 5.1-6.1 8.7-1.7 6.2-4.5 12-7.5 17.7q-0.2 0.3-0.3 0.6c-0.6 0.9-1.1 2.2-2.3 2.1-1.3-0.2-0.9-1.6-1.2-2.5-0.8-2.9-1.4-6-2.8-8.7-0.5-1-0.9-2-1.1-3.1 0-0.6-0.2-1.2-0.6-1.6-2.5-2-3.4-5.1-5.3-7.5-0.6-0.7-1-1.5-2.1-1.6-0.7-0.1-1-0.7-1.3-1.3q-0.8-1.5-1.6-2.9c-0.2-0.4-0.4-1-0.9-1.1-1.7-0.4-2.2-1.5-2.2-3.1 0.1-0.6-0.1-1.2-0.7-1.5-1.2-0.5-1.6-1.4-1.7-2.5 0-1.2-0.5-1.7-1.7-1.4-1.5 0.4-1.8-0.5-1.6-1.7 0.1-0.7 0.1-1.3-0.8-1.5-0.9-0.2-1.6-0.3-2.3 0.5-0.6 0.8-0.5 2.4-1.8 2.5-1 0.1-1.4-1.2-2.2-1.8-1-0.6-1.9-0.5-2.9-0.1-1.3 0.6-2.2 1.7-3 2.9-1.6 2.2-1.8 2.2-3.9 0.5-0.1-0.1-0.3-0.2-0.4-0.3-1.6-2-2.3-1-3.6 0.3-0.9 0.9-1.7 2-2.2 3.3-0.3 1-0.7 1.4-1.8 0.7-1.9-1.2-1.9-1.1-3.2 0.8-0.5 0.8-1.1 1.7-1.7 2.4-1 1.1-1.4 1.1-2.5 0.2-2-1.6-2.3-1.6-4 0.3-0.8 0.8-1.5 1.6-2.6 1.8-0.2 0-0.6 0.1-0.7 0.3-1.2 2.6-4.4 3.4-5.3 6.3-0.3 0.7-0.7 1.3-1.2 1.9-0.2 0.5-0.7 0.9-1.2 0.6-1.4-0.6-1.7 0.5-2.4 1.2-3.3 3.6-5.4 8-7.8 12.1-2.4 4.1-4.8 8.2-6.8 12.5-3 6.8-6.3 13.4-8.9 20.3-1.5 3.8-3.6 7.2-5.4 10.7-0.2 0.4-0.5 0.8-1.1 0.8-0.5-0.7 0-1.5 0.2-2.1 2-5.3 3.3-10.8 4.9-16.2 1.2-4.4 2.6-8.6 4.3-12.7 0.6-1.4 0.8-2.7 0.4-4.2-0.3-1.1-0.2-2.3-0.2-3.5-0.1-2.6-0.3-5.2 0.8-7.7-0.3-4.8 2.2-8.8 3.5-13.1 2.5-8 7.6-14.5 12.3-21.2 3.3-4.8 7.3-8.9 11.4-12.9 4.2-4 8.8-7.7 13.7-10.8 6.9-4.4 14.4-7.7 22.4-9.5 2-0.4 4-1.1 6.1-1.1 1-0.1 1.7-0.7 2.3-1.4 1.2-1.5 2.4-3 3.6-4.5q5.3-6.5 12.9-9.9c1.1-0.5 2.2-0.7 3.3-1.1 1.3-0.5 1.5-0.9 0.7-2-0.2-0.4-0.6-1-1-1.1-1.6-0.2-2.2-1.6-3-2.7q0-0.1-0.1-0.3c-0.4-1.3-2.1-1-2.6-2.1-0.5-1-0.3-2.4-1.6-2.9-0.6-0.3-0.6-1-0.8-1.5-0.1-0.6-0.4-1-1-1-0.9 0.1-1.4-0.2-1.5-1.1-0.2-1.2-2.2-1.1-1.9-2.7 0.2-1.3-0.9-2.1-1.5-3-0.1-0.1-0.1-0.3-0.2-0.5-0.3-0.8-1.7-0.4-1.7-1.5 0.1-0.8 0.3-1.7 0.2-2.5 0-1.3-0.2-2.6-0.3-4-0.1-0.6-0.2-1.3-0.7-1.8-1.3-1-1.4-2.3-1-3.8 0.1-0.4 0.1-0.9-0.1-1.2-1.8-2.5-0.7-5.2-0.6-7.7 0.2-2.8 1.3-5.4 3.2-7.5 2-2.2 4.4-4.1 7-5.6 0.7-0.5 1.5-1 2.3-1.4 1.3-0.6 1.3-1.7 1.2-2.8-0.2-1.1-1.2-1.1-2-1.3-0.3 0-0.6-0.1-1-0.2 0.1-1.5 1.3-2.2 2.2-2.8 1.8-1.3 3.8-2.4 5.8-3.4 3.3-1.6 6.9-1.9 10.5-1.4 2.6 0.4 5.1 1 7.6 1.5 0.6 0.2 1.3 0.4 2 0.3 1.9 0 2.5-0.8 2.3-2.8-0.3-3.4-0.7-6.8-0.6-10.2 0-3.6-1.4-6.6-3.1-9.6-0.5-0.9-1.1-1.3-2-0.4-0.5 0.6-1.2 0.3-1.8 0.7-1.4 1.2-1.4 1.1-2.5-0.1-0.7-0.7-1.1-1.9-2.1-2.3-0.5-0.1-0.7 0.2-0.8 0.5-0.5 1.4-1.3 1.6-2.5 0.9q-0.4-0.2-0.9-0.4c-1.5-0.5-2-0.3-2.3 1.2-0.2 1.1-0.4 2.2-0.3 3.3 0 1.5-0.2 1.6-1.5 1.3-2.7-0.5-3.4 0-4 2.6q0 0.1-0.1 0.2c-0.6 3.1-0.6 3.1-3.7 2.4-1.5-0.3-1.6-0.2-2.1 1.3q-0.5 1.6-0.2 3.2c0.1 1 0 1.7-1.3 1.5-1.5-0.2-1.9 0.6-1.9 1.9q-0.1 0.9-0.3 1.7c-0.5 1.6-1 1.8-2.6 1.5-2.4-0.6-2.4-0.6-3.2 1.6-0.4 0.8-0.7 1.7-1.5 2.2-0.1 0.1-0.3 0.2-0.3 0.4-0.4 1.7-1.4 3.1-2 4.7-0.3 0.5-0.1 1.3-0.1 1.9-0.1 2.4-0.2 2.5-2.5 2.6-1 0-1.3 0.5-1.5 1.3-0.3 1.5-0.7 2.9-2.5 3.4-0.6 0.1-0.8 1-1 1.6-0.4 1-0.7 2.1-1.1 3.1-0.3 0.8-0.6 1.6-1.6 1.7-1.1 0.2-1.4 0.9-1.7 1.9-0.2 1.2-0.4 2.5-2.3 2.2-0.9-0.1-1.1 0.8-1.4 1.5-0.5 1.3-0.9 2.7-2.3 3.5-0.1 0-0.3 0.2-0.3 0.4-0.7 3.7-4.2 5.8-5.4 9.2-0.3 0.9-0.9 1.6-1.7 2.2-1.5 1-1.9 2.8-2.7 4.4-3.3 7-5.7 14.3-7.8 21.8-0.3 0.8-0.2 2.2-1.4 2-1.1-0.2-0.6-1.5-0.5-2.4 0.4-3.3 0.3-6.6-0.6-9.8-1.3-4.5-1.6-9.2-2.2-13.8-0.1-1-0.2-2-0.9-2.8-1.4-1.8-3-3.4-4.1-5.3-0.1-0.2-0.3-0.4-0.4-0.4-2.5-0.3-2.4-2.2-2.8-4-0.2-1-0.6-2-1.9-1.9-1 0-1.3-0.7-1.3-1.5q-0.1-1.1-0.1-2.3c0-1.2-0.1-2.4-0.9-3.5-0.4-0.5-0.5-1.1-0.5-1.6-0.1-1 0.7-2.3-1.1-2.5-0.1-0.1-0.3-0.5-0.2-0.7 0.3-2.9-0.7-5.8 0.2-8.6 0.3-0.6 0.3-1.3 0.3-2 0.1-0.8 0-1.7-1.2-1.8-0.9-0.1-1-0.7-0.8-1.5q0-0.2 0.1-0.4c1.6-7.1 4.1-13.9 7.7-20.2 1.9-3.4 3.9-6.8 6.1-10 3.4-4.9 7.4-9.1 11.9-13 3.1-2.7 6.8-4.5 10-7 1.3-1 2.9-1.2 4.4-1.7 1.4-0.5 2.4-1.3 3.2-2.6 5.9-9.6 14-17.1 23.6-22.8 4.9-2.9 10.3-4.8 15.9-5.9 3.1-0.6 6.2-1.4 9.4-1.4 1.5 0 1.9-0.6 1.7-2.3-0.5-3.5-1-6.9-1.6-10.4-0.9-5.5-1.4-11.2-1.9-16.8-0.2-2.1-0.4-4.1-0.7-6.2-0.5-3-1.9-5.7-3.4-8.2-2.9-4.7-6.3-8.9-11-11.7-4.9-2.8-10-4.6-15.8-3.5-0.5 0.1-1 0.3-1.5 0.2-2.3-0.2-4.4 0.6-6.3 1.8-3.5 2.1-7.3 3.9-9.7 7.4-2.1 3.1-4.8 5.8-6 9.6-0.2 0.8-0.6 1.8-1.9 1.6-0.8-0.2-1.1 0.6-1.4 1.1-2.8 5.5-5.3 11.1-7.5 16.9-2.8 7.2-4.6 14.8-6.6 22.2-0.7 2.6-1.9 5-3.2 7.3-0.2 0.5-0.5 1-1.1 0.8-0.6-0.2-0.6-0.8-0.5-1.3 0.7-3.6 0.6-7.3 0.7-10.9 0-0.5 0.1-1.1 0-1.5-1-2.6-0.6-5.5-1.4-8.1-0.4-1.1-0.1-2.3-0.1-3.4 0.1-4.1 0.2-8 1.7-12 2.4-6.2 5.8-11.8 9.9-16.9 3.9-4.9 8.4-9.3 14.3-11.8 1.1-0.5 2-1.2 2.7-2.1 4.4-5.5 9.6-10.1 15.6-13.5 5.8-3.3 12-5.7 18.7-6.7 2.9-0.4 5.8-0.5 8.7-0.4 1.7 0.1 1.8 0 1.8-1.5 0.2-4.3 0.2-8.5-1.2-12.6-1.6-5.2-2.8-10.6-4.8-15.7q-1.5-3.6-2.9-7.2c-0.6-1.7-1.9-2.8-3.2-3.8q-3.3-2.4-6.7-4.8c-2-1.3-4.2-1.3-5.9 0.4-2.9 2.7-6.6 3.5-10.3 3.7-3.1 0.2-6.1 1.1-9.2 1.3-0.9 0.1-1.7 0.6-2.5 1.1-0.3 0.3-0.7 0.4-1.1 0.2-0.5-0.3-0.3-0.7-0.1-1.1 0.5-1.3-0.3-1.5-1.2-1.4-1.2 0.1-2.1 0.1-2.5-1.3-0.3-1-1.4-0.7-2.2-0.5-1 0.2-1.4-0.2-1.3-1.2q0-0.1 0-0.2c0.1-0.5 0-1.1-0.3-1.1-2.1-0.2-1.5-3.6-3.9-3.3-0.3 0.1-0.7 0-1-0.1-1.1-0.2-1.6-0.8-1.2-1.9 0.4-1.3 0.7-2.4-0.9-3.1-0.8-0.4-0.4-1.1-0.2-1.8 0.9-2.7 0.9-2.8-1.5-3.9-0.9-0.4-1.3-0.9-0.8-1.7 0.8-1.8-0.2-3.1-1.3-4.2-1.1-1.2-1.1-1.2 0.1-2.3 0.4-0.3 0.7-0.6 1-0.9 0.2-0.8-0.5-0.9-0.8-1.2-1.4-1.1-1.4-1.3 0.1-2.3 1-0.6 0.9-1.2 0.1-1.9-0.9-0.9-0.7-1.4 0.4-2 1.4-0.7 2.8-1.2 4.3-1.2 1.5 0.1 3-0.2 4.4-0.8 2.8-1 5.6-2.3 8.4-3 4.8-1.3 9.3-3.2 14.2-3.7 1.1-0.1 2.3-0.1 1.8-1.9-0.2-0.9 0.7-1.6 1.3-2.3 1.9-2.2 4.2-3.8 6.6-5.3 0.7-0.4 1.5-0.7 2-1.4q-4.5-0.9-9-1.8c-0.6-0.2-1.2-0.2-1.7-0.5q-1.5-0.6-0.4-1.9c0.9-1.1 2.1-1.8 3.4-2.5 3.8-2.3 8-3.6 12.3-4.4 1.3-0.2 2.6-0.3 3.8-0.9-1.5 0-2.9 0.1-4.4 0.3-2.1 0.4-4.2 0.3-6.2-0.4-2.2-0.8-4.4-1.2-6.7-1.7-0.4-0.1-0.8-0.2-1.2-0.3-1.5-0.6-1.7-1.3-0.5-2.4 1.3-1.1 2.8-1.8 4.4-2.4 0.7-0.3 1.6-0.4 2.1-1.3-1.2-1.7-2.9-2.9-4.7-3.9-1.4-0.9-2.8-1.7-4.1-2.8-0.9-0.8-0.8-1.7 0.4-2.1q2.1-0.7 4.4-0.6c1.1 0 2.1 0 2.8-1.1 0.6-1 1.6-1.1 2.6-1.3 2.9-0.5 5.8-0.8 8.7-0.2 0.2 0.1 0.5 0.1 0.7-0.3-1.8-0.8-3.2-2.6-5.5-2.4-0.9 0.1-1.3-0.7-1.4-1.5-0.1-2.2-1.2-3.9-2.5-5.5-1.2-1.7-1-2.3 1-2.7 2-0.5 2-0.5 2.2-3.1-3.2 1-6.5 0.3-9.8 1.1-3.6 0.9-7.3 1.3-11 1.9-2.4 0.4-2.9-0.3-2.2-2.6 0.5-1.4 1.2-2.6 2.1-3.8 0.8-1.1 1.8-2.1 2.4-3.6-1.2-0.1-2.1 0.3-3 0.5-0.9 0.1-1.7 0.3-2.5 0.1-1-0.2-1.5-0.7-1.2-1.8 0.3-1.5 0.9-2.8 1.9-4 0.8-0.9 1.6-1.8 2.5-2.9-1.4-0.9-2.9-1-4.1-1.5-0.6-0.2-1.3-0.2-1.3-1-0.1-0.8 0.5-1.1 1.1-1.4 1.1-0.5 2.3-0.7 3.2-1.7-1.1-0.9-2.5-0.6-3.6-1.1q-1.6-0.6-3.3-1c-2-0.5-3.9-0.9-5-2.9-0.4-0.7-1.4-0.9-2.1-1.3-0.5-0.2-1-0.5-1.5-0.9-1-0.9-0.9-1.5 0.3-2 1-0.5 2-0.7 2.9-1.3-0.2-1-0.9-0.8-1.4-1-0.8-0.3-1.7-0.4-2.4-0.8-1.4-0.8-1.4-1.7 0-2.5 1.2-0.7 2.5-1.1 3.7-1.5 0.9-0.3 1.9-0.5 2.9-1.2-0.4-0.9-1.4-1-2.1-1.3-1.2-0.5-3.1-0.7-3-2.1 0-1.6 2-1.5 3.3-1.9 2.5-0.7 5.1-1.1 7.6-1.3 0.6-0.1 1.2 0.1 1.7-0.7-1.4-1.5-2.9-2.9-4.8-3.8-1.3-0.6-2.7-1.4-3.8-2.3-1.1-1-1-1.8 0.4-2.1 2-0.5 4.1-1 6.2-0.7 2.9 0.3 5.8 0.4 8.7 0.6 0.9 0 1.8 0.2 2.7-0.6-0.8-1.3-2-2.1-3.1-2.9-3-2.6-5.7-5.3-7.5-8.9-0.9-1.9-2.5-3.3-3.7-5-0.5-0.9-1.1-1.7-1.5-2.6-0.3-0.8 0.1-1.4 1-1.3 1.5 0.2 2.9 0.6 4.3 1.1 4 1.4 7.5 3.6 11 6 0.4 0.3 0.7 0.9 1.5 0.7 0.4-0.7-0.1-1.4-0.1-2.1-0.1-0.7-0.4-1.3-0.4-2-0.2-1.9 0.5-2.5 2.3-1.7 2 0.9 3.9 2.2 5.7 3.6 1.3 1.1 2.7 2.2 4 3.3 0.4 0.3 0.8 0.9 1.8 0.7-2.5-2.7-1.7-6-2.1-9.1-0.2-1.9 0.8-2.6 2.6-2 1.3 0.4 2.5 1 3.7 1.5 1 0.5 1.4 0.2 1.5-0.8 0.1-0.9 0.1-1.9 0.3-2.8 0.4-1.9 1.2-2.3 3-1.6 0.4 0.2 0.7 0.4 1.1 0.6 1.5 0.8 1.4 0.8 2.3-0.9 1.2-2.4 1.7-5 2.7-7.5 0.4-1.1 0.6-2.6 2-2.9 1.4-0.2 2.1 1.2 2.8 2.2 2.1 2.7 3.6 5.8 5 8.9 0.6 1.5 1.2 2.9 1.9 4.6 1.3-0.9 2.2-2 2.9-3.1 0.7-1 1.4-2.1 2.3-3 1.6-1.5 2.3-1.5 3.6 0.3 1.1 1.5 1.8 3.1 2.5 4.8 0.4 0.9 0.5 1.8 1.5 2.6 2.3-2.1 5.3-3.5 6.9-6.5 0.2-0.5 0.7-1 1.1-1.3 1.9-1.5 3.8-3 5.8-4.4 2.5-1.8 3.5-1.5 4.8 1.2 0.5 1 0.9 2.1 1.1 3.3 0.2 1.1 0.8 1.4 2 1.2 2.7-0.6 2.9-0.4 3.7 2.1 0.9 2.5 0.6 5 0.7 7.4 0 0.5-0.1 1-0.1 1.5 0.1 1.3 1 1.9 2.2 1.4q0.4-0.1 0.7-0.4c4.6-3.4 10.1-3.8 15.6-4.1 2.1-0.2 2.7 0.6 2.3 2.7-0.5 2.9-1.6 5.6-3.1 8.1-0.4 0.7-1.2 1.2-1.2 2.4 1.4 0.4 2.9 0.3 4.4 0 1.9-0.4 3.8 0 5.7 0.3 1.8 0.4 2 1.1 1.3 2.9-0.4 1.1-1.2 2-1.4 3.3 1.3 0.3 2.4 0.5 3.5 0.7 1.2 0.3 2.1 0.9 1.5 2.3-0.3 1 0.2 1.3 0.9 1.7 2.9 1.8 2.8 1.8 0.7 4.5-1.7 2.3-4.1 4.2-6.7 5.5q-1.6 0.7-3.1 1.5c0.1 0.8 0.8 0.8 1.3 1 4.9 1.9 10.1 3 15.1 5 1.2 0.5 2.5 1 3.5 1.8 1.5 1.1 1.5 1.9 0.2 2.9-4.5 3.4-9.5 5.7-15.1 6-3.3 0.1-6.5-0.1-9.7-0.1 0.6 0.6 1.5 1 2.3 1.3q6.2 2.6 11.7 6.6c1.5 1.1 3 2.2 3.4 4.1 0.8 0 1.7 0 2.5 0 2.2 0.2 2.7 0.9 2.6 3.1 0 0.6-0.2 1.3-0.3 1.9-0.2 1.6 0.1 2 1.5 1.6 3.2-0.9 6.5-0.6 9.7-0.7q0.1 0 0.2 0c2.5 0.2 2.9 0.9 2 3.2-0.4 0.9-0.9 1.8-1.4 2.7-0.9 1.4-1.9 2.9-3 4.2 0.3 0.7 0.9 0.4 1.3 0.3 1.6-0.4 3.1-0.4 4.7-0.4 1.4 0 3-0.1 3.2 1.9 0 0.2 0.3 0.5 0.5 0.5 1.5 0.1 2.8 1 4.3 1.2 4.7 0.6 9 2.3 13.1 4.6 2.5 1.3 5 2.5 7.9 2.4 1.6 0 3.2 0.4 4.7 0.8 2 0.5 4 0.8 5.9-0.3-1.2-0.5-2.6-0.9-1.9-2.8 0.2-0.7-0.3-1.1-0.7-1.5-0.9-1-1.7-2-2.6-3.1-1.8-2.5-1.9-5.6-2.7-8.5-0.3-1.2 0.5-1.8 1.9-1.2 2.5 1.1 4.6 2.9 6.8 4.5 0.7 0.6 1.2 1.8 2.4 1.6 1.4-0.2 2.7-0.7 3.9-1.4 0.5-0.3 0.5-0.7 0.1-1-0.6-0.6-1.3-1-2-1.5-1.9-1.2-3.9-2.3-5.7-3.5-1.8-1.3-1.7-2.4 0.3-3.2 1.7-0.7 3.4-0.5 5.2-0.5 1.5 0 3.1 0 5.1 0-2.8-2.7-5.9-4-9.1-4.8-1.3-0.4-2.4-0.9-2.9-2.3-0.5-1.1-0.2-1.8 0.8-2.3 0.7-0.3 1.4-0.7 2.3-1.1-0.8-1.4-2.2-1.6-3.2-2.5-0.8-0.8-1.8-1.4-2.7-2.3-0.9-0.9-0.7-1.6 0.5-1.9 1.3-0.4 2.5-0.3 3.8-0.2 5.5 0.4 10.7 2.3 15.7 4.6 0.4 0.2 0.9 0.4 1.5 0.4-1-0.8-1.9-1.5-2.9-2.3-0.9-0.9-1.8-1.8-2.7-2.6-1.1-0.8-2-1.9-2.3-3.2-0.8-2.8-2.2-5.3-3.9-7.7-0.6-0.9-1.7-2-1-2.9 1-1.1 2.2 0.1 3.2 0.5 2.4 1.3 4.6 3 6.9 4.5q3.2 2.1 6.4 4.2c-0.1-0.8-0.6-1.3-1.1-1.9-1.7-2-2.9-4.2-4.3-6.4q-0.6-1.1-0.6-2.4c0-2.7-0.7-5.3-1.6-7.8q-0.4-1.2-0.6-2.4c-0.2-0.5-0.1-1 0.4-1.3 0.5-0.3 1-0.1 1.4 0.2 7.1 4.7 14.1 9.4 19.9 15.7 0.7 0.8 1.5 1.8 2.7 2.4-0.2-1.1-0.9-1.5-1.4-2-2.9-2.8-5.1-6.1-6.9-9.7-0.7-1.6-1.3-3.2-1.3-5 0-1.4-0.7-2.6-1-3.9-0.1-0.6-0.1-1.2 0.4-1.6 0.6-0.4 1.1 0 1.5 0.4q1.8 1.4 3.5 2.9c0.3 0.2 0.6 0.6 1.1 0.3 0.4-0.3 0.3-0.7 0.2-1.2-0.2-1.1-0.4-2.2-0.6-3.4q-0.1-1-0.1-2c0-0.6 0-1.2 0.6-1.5 0.8-0.4 1.3 0.2 1.7 0.7 0.8 0.7 1.5 1.5 2.2 2.3 0.8-0.8 0.7-1.7 0.9-2.5q0.2-1.6 0.5-3.2c0-0.4 0.2-0.8 0.7-0.9 0.6-0.1 0.9 0.3 1.1 0.8 0.9 1.5 1.3 3.2 1.6 4.9 0.4 2.5 1.4 4.6 2.7 6.7 1.7 2.6 3.2 5.4 4.8 8.1 0.4 0.6 0.6 1.4 1.5 1.9-0.4-2.4 1-4 2.2-5.7 0.9-1.3 1.7-1.4 2.9-0.3 1.6 1.6 2.8 3.5 3.9 5.5 0.6 1.3 1.3 2.7 1.9 3.9q0.5 0.2 0.6-0.1c0.6-3 2.6-5.1 5-6.8 2-1.4 2.5-1.4 4 0.6 0.2 0.2 0.3 0.4 0.6 0.7 0.9-0.3 1.2-1.1 1.6-1.7 1.2-1.7 2.7-3 4.6-3.8 2.1-0.8 3.8-2.3 5.7-3.5 0.9-0.6 1.8-1.2 2.9-1.5 1.2-0.3 1.8 0 2 1.2 0.3 1.5 0.1 3-0.2 4.5-1.7 7-3.8 13.9-7.3 20.4q-0.7 1.3-1.3 2.6c-0.2 0.5-0.4 1 0 1.4 0.6 0.5 1.1 0.3 1.6-0.1 0.4-0.2 0.6-0.6 1-0.8 2.4-2 6.1-2.2 8.8-0.7 0.9 0.5 1.5 1.2 1.8 2.3 0.6 2.6 0.4 5.1 0.4 7.7 0 0.3-0.1 0.7 0.2 1 0.1 0 0.4 0.1 0.6 0.1 4.2-1.1 7.8 0.8 11.4 2.6 1.4 0.7 2.7 1.7 2.4 3.7-0.1 0.5 0.2 0.9 0.6 1.2 1.6 1.2 1.8 2.7 1.3 4.5-0.3 1-0.5 2.1-0.8 3.3 0.9-0.3 1-1 1.2-1.5 0.3-0.6 0.5-1.3 0.8-1.8 0.8-1.3 1.7-1.4 2.6-0.2 0.6 0.8 1.1 1.6 1.5 2.6 1.8 4 3.3 8.1 3.6 12.6 0.1 0.9 0 2.1 1 2.4 1 0.3 2-0.4 2.6-1.3 2.4-3.7 6.6-4.6 10.2-6.3 2-0.9 3.2 0 3.3 2.2 0 1.8 0 3.7-0.3 5.5-0.7 2.9-0.2 5.8-0.1 8.7 0.1 1.1 0.5 2.1 1.3 2.9 0.8 0.7 1.3 1.5 1.2 2.5 0.8 0.1 1.1-1 1.9-0.4 0.4 0.3 0.4 0.7-0.1 2.5 0.7 0.1 1.4-1.3 2.2-0.4 0.6 0.8-0.6 1.3-0.6 2.2 1.1-0.1 2.3-0.5 3 0.9 0.3 0.7 1.3 0.4 2.1 0.4 3 0.1 5.9 0.6 8.9 1.2 0.8 0.2 1.7 0.5 2.5 0.9 1.2 0.5 2.1 1.1 1.5 2.6-0.5 1.3 0.6 1.5 1.4 1.5 3.3 0.3 6.2 1.8 9.2 3.1 1.1 0.5 2.5 1 2.6 2.4 0.1 1.4-1.3 2-2.4 2.7-2.8 1.9-6 2.7-9.4 2.7-0.8 0-1.7-0.2-2.6 0.2 3.4 0.7 6.7 0.8 10 0.8 5.8-0.1 11.2 1.2 16.4 3.8 0.8 0.4 2.1 0.6 2.1 1.8 0 1.3-1.4 1.3-2.2 1.8-1.2 0.6-2.6 0.6-3.8 1.4 0.3 1.1 1.3 1.4 2.1 2 0.5 0.4 1.2 0.8 1.7 1.4 0.8 0.8 0.6 1.6-0.5 2.1-1.3 0.7-2.9 0.7-4.4 0.8-6.2 0.2-12.4-0.2-18.4-2.5-0.3-0.1-0.6-0.1-0.9-0.2 2.4 2.3 5.1 4.3 7.4 6.7 2.2 2.3 3.6 5.1 5.2 7.8 0.3 0.6 0.4 1.1 0.1 1.7-0.2 0.4-0.2 0.8-0.1 1.2 0.7 2.7 0.5 2.8-2.2 2.3-1.3-0.2-2.5-0.5-4-0.8 0.7 1.1 1.9 1.4 2.4 2.2 0.3 0.5 0.7 1 0.4 1.6-0.3 0.6-0.8 0.6-1.3 0.5-1.3-0.2-2.3 0-2.6 1.6-0.1 0.5-0.7 0.8-1.2 0.6-1.2-0.3-2.2 0.1-3.2 0.9-0.6 0.5-1.4 0-2.1-0.2-3.4-1.3-6.6-2.8-9.3-5.2-0.3-0.3-0.6-0.6-1.3-0.6-0.6 2.5 0.3 5.2-0.6 7.9-1.3-1-0.9-2.7-1.6-3.8-0.4-0.1-0.4 0.2-0.5 0.4-0.1 0.6 0 1.4-0.8 1.3-0.9-0.1-0.7-1-0.7-1.6 0-0.2 0.1-0.3 0.1-0.5 0.2-0.8 1.6-1.1 1.2-1.7-1.3-2.2-0.2-4.9-2.1-7.3-0.3 2.3-0.5 4.2-0.8 6.1-0.1 0.9 0.4 2.4-0.9 2.5-1.5 0-0.9-1.7-1.1-2.6 0-0.3 0-0.7-0.1-1.2-0.9 0.5-1 1.3-1.2 2-0.3 1.1-0.6 2.1-1.2 3-1 1.2-1.7 1.4-3 0.6-1-0.6-1.9-1.5-2.7-2.3q-1.1-1.1-1.7 0.3c-0.3 0.8-0.7 1.5-1 2.3-0.7 1.9-1.8 3.6-2.7 5.4-0.2 0.3-0.5 0.7-0.9 0.6-0.7-0.2-0.7-0.7-0.7-1.2 0.2-1.2 0.3-2.5 0.4-3.7 0.4-2.4 0.8-4.8 1.1-7.2 0.1-0.4 0.2-1 0-1.1-1.5-0.9-1.2-2.5-1.5-3.8-0.7-2.7-2.4-3.5-4.8-2.1-3.7 2.2-7.4 4.3-10.7 7.2-1.3 1.2-3 1.8-4.5 2.7-0.3 0.2-0.6 0.3-0.9 0-0.3-0.2-0.2-0.6-0.1-0.9q0.9-2 1.8-4c-0.7 0.4-1 1.1-1.4 1.7-0.6 0.7-1 0.1-1.5-0.5-1.9 5.2-4.1 10.2-5.3 15.6-1.2 5.6-2.3 11.2-3.4 16.8-0.6 2.9-0.5 5.8-0.7 8.7-0.2 2.2-0.6 4.4-0.6 6.7 0.1 2.3 0.1 2.3 2.2 3 1 0.3 2 0.6 2.5 1.8 0.3 0.7 1 1 1.7 1.4 2.8 1.4 4.6 3.7 6.3 6.1 0.5 0.7 1 1.4 1.6 1.9 0.1 0.1 0.3 0.2 0.4 0.4 0.6 1.8 1.7 3.6 1.8 5.4 0.1 3 0.8 5.5 2.9 7.7 0.7 0.7 1.4 1.4 1.9 2.3 1.4 2.5 2.6 5.2 4.9 7.1 0.4 0.3 0.8 0.8 0.2 1.3-0.4 0.2-0.8-0.1-1.1-0.4-2.2-2.1-4.4-4.3-6.8-6.2-3.8-2.9-8-5.1-12.4-6.8-1.7-0.6-3.1-1.7-4.8-2.1-1.5-0.2-1.9-0.1-1.7 1.3 1 6.3-0.1 12.6 0.8 18.9 0.4 3.1-0.1 6.3 0.1 9.5 0.3 5.6 0.6 11.2 0.4 16.7 0.7 0.4 0.9 0.1 1.1-0.2 2.2-3.2 5-6 8-8.5 3.6-3.1 7.7-5.5 12.3-7 0.7-0.2 1.5-0.6 2.3-0.9 0.1-0.1 0.3-0.4 0.3-0.6-0.1-0.2-0.4-0.5-0.5-0.5-1.6 0.3-2.4-1-3.5-1.7-0.3-0.2-0.5-0.4-0.5-0.8 0.1-0.5 0.5-0.6 0.9-0.7q2.4-0.3 4.7-0.6c1.6-0.3 3.2-0.3 4.6-1.5 1.1-1 2.8-0.8 4.3-0.9 9.9-0.5 18.9 2.1 27.4 7 5.4 3.1 9.9 7 14.2 11.3 4.7 4.8 8.5 10.3 11.7 16.2 0.9 1.6 1.4 3.5 1.8 5.4 0.6 2.5 1.7 5 1.3 7.7-0.1 1.1-0.1 2.2-0.6 3.2-0.9 2-1 4.1-0.4 6.3 1 4.4 1.4 8.9 3.2 13.1q0.1 0.2 0.1 0.5c0.1 0.3 0.1 0.6-0.3 0.8-0.4 0.2-0.6-0.1-0.8-0.4-0.5-1.1-1.1-2.2-1.5-3.4q-3.1-8.1-6.1-16.1c-1.2-3.1-2.8-6-4.3-9-2.5-4.9-5.8-9.3-8.9-13.8-2.4-3.6-5.8-6.2-8.7-9.3-2.7-0.5-4.4-2.9-6.9-3.8-0.9-0.3-1.4-1.2-2-1.8-0.8-0.9-1.6-1.5-2.8-0.8-0.9 0.6-1.6 0.2-2.2-0.5-1.1-1.5-2.5-2.4-4.5-1.7-0.8 0.2-1.4-0.4-1.9-0.9-1.2-1.3-2.5-2.1-4.1-0.7-0.2 0.2-0.5 0.4-0.7 0.3-1.5-0.6-2.2-0.2-2.9 1.4-0.6 1.1-4.4 0.7-5-0.6-0.6-1.3-1.3-1.3-2.4-1-4 1.2-7.8 2.8-11.4 5-7.1 4.5-11.8 11-15.3 18.6-0.6 1.4-0.4 2.9-0.3 4.4 0 0.9 0.7 1.2 1.4 1.5q2.2 0.9 4.3 2c0.9 0.4 1.8 0.9 2.6 1.4 1.5 1.1 2.3 2.5 2 4.3-0.1 1.3-0.1 2.5-0.3 3.7-0.2 1-1 1.3-1.6 0.6-1-1.4-2.6-2-3.5-3.4-0.4-0.6-0.9-1-1.6-0.3q-0.3 0.3-0.6 0.5c-0.7 0.5-1.7-0.9-2 0-0.5 1.7-1.9 2.9-2 4.9-0.1 4.3-0.8 8.6-1.3 12.9q0 0.4-0.1 0.7c-0.2 2.9 0.3 3.3 3.1 2.9 4.9-0.8 9.8-0.4 14.6 0.7 3.8 0.9 6.6 3.3 7.3 7.6 0.4 0.2 1 0.5 0.7 1-0.8 1.5-1.7 2.8-1.5 4.5 0.1 0.1-0.4 0.3-0.7 0.5 2.1 2.4 4.6 4.5 6.6 7.1zm-117 285.6q0 0 0 0h-0.1q0.1 0 0.1 0zm-166.4-510q0 0 0 0 0.1-0.1 0.2-0.2-0.1 0.1-0.2 0.1 0 0.1 0 0.1zm8.4-12q0.1 0 0.1 0 0 0 0-0.1 0 0 0 0-0.1 0.1-0.1 0.1zm2.1-0.5c2.9-0.2 5.6-1 8.8-1.8-3.5-0.5-6.2 0.3-8.8 1.8-0.7 0-1.4 0-2 0.4 0.7 0 1.4 0 2-0.4zm75-55q-0.1 0-0.1 0-0.1 0-0.2-0.1 0.1 0.1 0.2 0.1 0 0 0.1 0zm17.4 12q0 0 0 0 0 0 0 0zm59.4 27q0 0 0.1 0 0 0 0 0 0 0 0 0 0 0-0.1 0zm1.4 1.6c0.5 0.2 1 0 1.2-0.5 0.1-0.5-0.2-0.8-0.6-0.9-0.6-0.1-1.3-0.1-1.9-0.2 0.3 0.6 0.5 1.4 1.3 1.6zm19.1-45.6q0 0 0 0 0.3 0.3 0.5 0.5h0.1q-0.3-0.2-0.6-0.5 0 0 0 0zm139.5 94.4q-0.1 0-0.1 0 0 0 0.1 0zm-54 17.6q0-0.1 0-0.1 0-0.1 0-0.2 0 0.1 0 0.2 0 0 0 0.1zm10 171.8q0 0 0 0 0 0 0 0zm-167.9-55.5q0 0 0 0 0 0 0 0zm-4 1c-0.6 0.8-1 1.8-2.4 2.3 0-2 1.5-3.4 1.6-5.1 0.1-1.7 0.5-3.4 0.8-5.4-1 0.5-1.3 2.2-2.7 1.4-1.2-0.7-2.2-0.2-3.2 0.4-3.1 2.1-6.3 3.9-9.1 6.2-2.3 1.8-4.6 3.6-6.8 5.4-2 1.6-4 3.1-5.6 5-2.7 3.3-5.5 6.5-8.1 9.8-1.8 2.3-2.7 4.6-2.6 7.7 0.3 9.2 0.1 18.4 0.1 27.7 0 3.4 0.7 6.8 0.6 10.2-0.1 1.5 0.3 1.7 1.8 1.5 1.7-0.2 3.3-0.1 5 0.2 1.8 0.3 2.9-0.2 3.4-2 0.3-1 0.8-1.8 1.6-2.4q0.9-0.8 1.2-1.9c0.3-0.8 0.9-1.4 1.6-1.9 5.3-3.8 10.4-8 16.3-11 1-0.5 1.9-1.1 2.8-1.5 3.8-1.9 7.2-4.5 11.5-5.4 3.5-0.8 6.9-0.8 10.3 0.1 3.2 0.9 6.3 1.3 9.6 1.7 5.8 0.8 11.3 2.3 16.8 4.5-0.3-1.7 0.2-3.5-1.7-4.6-0.3-0.1-0.3-0.7-0.4-1.1-0.1-0.5-0.3-1-0.9-1-1.4-0.1-1.3-1-1.1-2 0.5-1.8 0.3-3.5 0-5.3-0.2-0.6-0.3-1.2-1.1-1.1-1.4 0.1-1.6-0.6-1.4-1.8 0.2-0.8-0.2-1.1-0.9-1.1 0 1.6 0.1 3.1 0.4 4.7 0.2 0.8 0.8 2-0.3 2.4-1 0.3-1.5-0.8-1.9-1.7q0-0.1-0.1-0.2c-2.4-5.2-4.2-10.7-5.8-16.2-1.3-4.5-3.4-8.8-5.4-13.1q-1.2-2.7-2.7-5.3c-0.8-1.5-3.9-2.8-5.6-2.6-1.5 0.2-2.9 0.5-4.1 1.5-0.6 0.5-1.4 0.8-2-0.1-0.7-1-1.4-0.6-2 0.1-1.2 1.2-2.3 1.1-3.5 0-2.4-1-2.2-1.5-4 1zm44.5 47.5q0 0 0 0 0 0 0 0zm-7.5-18q0 0 0 0-0.1-0.1-0.2-0.2 0.1 0.1 0.2 0.2 0 0 0 0zm-31.5-188.8q0 0 0 0 0 0 0-0.1-0.5-0.2-1-0.4 0.5 0.2 1 0.5zm3.7 2.4c3.6 2.4 5.9 6 8.8 9q0 0 0 0.1 0 0 0 0 0 0 0-0.1 0 0 0 0 0 0 0 0c0.4-1.6 1.7-2.5 3.1-3.3 0.7-0.4 1.7-0.6 2.2-1.5-1.2-0.5-2.3-0.9-3.3-1.4-1-0.6-1-1.3-0.1-1.9 0.8-0.6 1.8-0.8 2.8-1q1.8-0.3 3.6-0.7c0.3-0.1 0.6-0.4 0.6-0.8 0-0.4-0.3-0.6-0.6-0.7-1.9-0.5-3.7-1.3-5.8-0.6-2.3 0.8-4.6 1.1-7.1 1.1-2.6 0.1-5.2-0.8-7.9-0.6 1.1 1 2.5 1.6 3.7 2.4zm9.9 11.6c0.2 0.5 0.2 1.3-0.5 1.4-1.8 0.5-3.4 1-4.6 2.6-0.3 0.2-0.8 0.3-1.2 0.4-1.4 0.4-2.8 0.5-4.2 0.5-0.9 0-2-0.3-2.6 0.3-1 0.9 0.2 1.8 0.4 2.6 0.4 2.1 0 2.8-2.2 3.2-0.6 0.1-1.3 0.1-1.6 0.6-0.9 1.5-2.4 1.5-3.8 1.4-3-0.2-6.1 0-8.8-1.8-0.3-0.2-0.7-0.2-1-0.2 0.5 0.8 0.9 1.5 1.3 2.4 1 2.1 2.2 4.3 2.2 6.8 0 1.9 0 3.8 0.3 5.7 0.2 0.9-0.1 1.8-0.4 2.7-0.3 1-0.9 1.3-1.9 1-1-0.4-2-0.7-2.9-1.3-1.9-1.1-3.8-2.1-5.3-3.7-0.3-0.4-0.7-0.9-1.3-0.6-0.5 0.3-0.4 0.9-0.4 1.3-0.1 0.9 0 1.7-0.1 2.5-0.3 2.6-1.4 3.4-3.7 2.4-2.5-1-5.1-1.8-7.2-3.4-0.5 0.3-0.6 0.7-0.8 1.1-1.5 2.5-2.5 2.8-5 1.1-3.7-2.6-6.3-5.9-7.3-10.3-0.2-0.7-0.2-1.5-1-2-0.6 0.6-0.3 1.3-0.3 1.9 0 4.1 0 8.1 0.3 12.2 0.5 6 0 12 0.6 18 0.2 3 0.5 6.1 0.6 9.2 0.1 2 0.3 4.1 0.4 6.2 0.1 2.6 0.5 2.9 3.1 3.1 1.7 0.1 3.4 0.2 4.9 0.9 4.3 2 8.1 4.8 10.6 9 0.3 0.5 0.7 0.9 0.4 1.4-0.3 0.7-1 0.4-1.5 0.3-3.8-0.4-7.6-0.7-11.4-1.1-1-0.2-2-0.4-3-0.4-1.8 0.1-1.9 0.3-1.8 2.1 0.3 5.7 0.7 11.5 0.7 17.2 0 3.3 0.6 6.6 0.6 9.9-0.1 1.1 0.4 1.6 1.5 1.2 0.4-0.2 0.8-0.3 1.2-0.4 6.9-2.1 13.9-2.1 20.9-0.9 3.1 0.6 6 1.6 8.8 2.9 1.1 0.5 2.2 1.3 3.5 1.2 3.8 0 7.4 0.9 11.1 1.5 1.4 0.3 2.8 0.2 4.2-0.3 2.1-0.6 4.3-1.3 6.5-1.7 5.2-1.1 10.5-1.6 15.7-0.3 1.1 0.3 2 0.2 2.9-0.2 6-2.6 12.2-3.8 18.7-4.3 3-0.2 5.9 0.1 8.9 0.9 0.9 0.2 1.7 0.2 1.8-1.2 0.5-5.4 0.9-10.7 1.5-16.1 0.2-1.8-0.5-2.2-1.8-2.7-2.4-0.8-4.8-0.4-7.2-0.1-2.3 0.2-4.6 0.4-7 0.3-4.6-0.4-9.2-1.5-13.8-0.7 0-3.8 1.3-7 3.6-9.3 1.6-1.5 3.5-2.9 5-4.5 3.9-4.2 8.8-5.1 14.1-4.4 2.4 0.3 4.8 0.5 7.2 1.1 1.1 0.3 1.7-0.2 1.9-1.3 0-0.5 0-0.9 0-1.3 0.4-4.5 0.7-9.1 1.1-13.6 0.4-4.8 0.9-9.6 1.5-14.4 0.1-1.1 0-2.2-0.7-2.8-1.2-1.2-1.1-2.3-0.7-3.7 0.2-0.4 0.4-0.9-0.2-1.5-1.4 1.8-3.5 1.9-5.6 2-1.2 0-2.4 0.4-3.6 0.7-3 0.6-4.8-1.2-4.2-4.2 0.3-1.4 1-2.7 1.8-3.9 0.4-0.5 1.1-1 0.9-1.9-4.1-0.6-6.1 0-9 2.9-0.5 0.6-0.9 1.4-1.9 1.3-0.5-0.7 0.6-1.3 0.1-1.9-0.7-0.2-1.3 0.2-1.9 0.4-1.3 0.6-2.6 1.1-3.9 1.7-0.4 0.1-0.9 0.1-1.1-0.3-0.3-0.4-0.1-0.8 0.3-1.1 0.6-0.5 1.2-1 1.6-1.8q0.1 0 0.1 0 0.2-0.2 0.5-0.5 0.5-0.2 1-0.5-0.5 0.3-1 0.5-0.3 0.3-0.5 0.5 0 0-0.1 0 0 0 0 0c-2.2 0.1-4.4-0.2-6.6 0.3-0.8 0.1-1.6 0.2-2.4 0.3-1 0.1-1.9 0.2-2.5-0.7-0.7-0.9-0.1-1.7 0.4-2.5 0.6-0.8 1.2-1.6 1.8-2.3 0.8-0.9 1.6-1.7 2.4-2.6-1.5 0-1.5-0.7-0.9-1.7 0.8-1.3 1.9-2.3 2.2-3.8-2.9-0.1-5.7 0.4-8.4 1.1-1.2 0.4-2.8 1.1-3.7-0.2-0.7-1.3 0.4-2.5 1.2-3.6 2.4-3.2 5.6-5.3 9.2-7.1 0.8-0.4 1.8-0.6 2.4-1.8-1.3-0.4-2.6-0.3-3.8-0.1q-3.8 0.6-7.6 1.3c-0.9 0.2-1.6 0.1-1.7-1.1-0.1-1.3-1.1-1.4-2-1.3-1.8 0.1-3.6-0.3-5.4-0.6 0.4 0.8 0.8 1.6 1.1 2.5zm-30.1 11q0-0.1 0-0.1 0 0 0 0.1zm47.5 5.4q0 0 0 0 0 0 0 0zm-16.5 258.3q0 0 0 0 0 0 0 0zm-1.4-2.3c-0.2-0.4-0.7-0.5-1.1-0.2-0.5 0.4-1 0.8-1 1.6 0 0.5 0.4 0.7 0.8 0.8 0.9 0.1 1.8 0.1 2.7 0.1-0.5-0.8-0.9-1.6-1.4-2.3zm106.8-245q0 0 0 0 0 0 0 0zm1.9 3.5c2.4 3.6 3.3 7.6 3.6 11.8 0.1 2-0.6 2.5-2.6 2.1-1-0.2-1.9-0.6-2.9-0.9-1.7-0.7-3.3-1.6-4.9-2.5-1.8-1-2.8-0.4-2.9 1.7-0.1 0.8 0 1.6-0.5 2.2-0.8 0-1-0.5-1.2-0.9-0.9-3.1-3-5.1-5.8-6.4q-0.1-0.1-0.2-0.2c-1.5-1-3.4-1.3-5.1-1.9-0.9-0.3-1.2 0.2-1.3 1 0 0.6 0 1.2 0 1.7-0.1 1.3 0.2 2.6-0.4 3.7-1.2 2.4-2.5 4.7-4 6.9-0.9 1.4-1.7 1.5-3.1 0.4-2.5-2.1-4.2-4.7-5.1-7.8q-0.5-1.4-0.9-2.8c-2.4 1.4-4 3.2-5.8 4.9-1 1-2.2 1.8-3.6 1-1.2-0.8-1.4-0.2-1.5 0.8-0.3 2.3-0.1 4.7-0.3 7-0.4 6.3-0.7 12.7-0.4 19.1 0.1 1.6 0.5 2.7 2 3.3 2.3 1.1 4.5 2.2 6.7 3.4 1.4 0.7 2.7 0.8 4.1 0.6 3.1-0.3 6.2-0.7 9.2-0.8 3.3-0.1 6.6-0.8 10-0.4 0.6 0.1 1.3-0.1 1.9-0.3 4.7-1.4 9.5-1.8 14.3-1.9q6.3 0 12.4 1c1.9 0.2 2.2-0.1 2.4-1.9 0.2-1.5 0.4-3 0.5-4.5 0.1-5.1 0.5-10.1 1.5-15.1 1-5.2 1.9-10.5 3.2-15.6 1.3-4.9 2.9-9.8 4.9-14.4 1.1-2.6 0.7-3.4-1.9-5.1 0.1 2.1-0.8 4-0.2 6 0.4 1.3 0 2-1.2 2.2-1.4 0.2-2 1-2 2.4 0.1 1.3-0.6 1.8-1.8 1.8-3 0.2-6 0.1-8.9-1q-2-0.9-4.1-1.8c-0.7-0.3-1.1-0.3-1.5 0.6-0.5 1.2-0.8 1.2-1.7 0.3-1-1-1.7-2.3-2.8-3.2 0.3 1.4 1.2 2.4 1.9 3.5zm-123.8 109.9q0 0 0 0 0 0 0 0-0.3 0.3-0.5 0.5-0.3 0.3-0.5 0.5 0.3-0.2 0.5-0.5 0.3-0.2 0.5-0.5zm0.4-0.3c0 0 0-0.1 0-0.2-0.3 0.1-0.3 0.3-0.4 0.5q0.2-0.1 0.4-0.3zm138.5-12.1q0-1.1 0-2.3 0-12.6 0-25.2c0-2.8-0.1-2.8-2.7-3-2.5-0.3-5-0.2-7.4-1.2-0.9-0.3-1.8-0.3-2.7-0.3-0.4-0.1-0.9-0.1-1 0.1-0.9 1.3-2 1.1-3.4 1.1-1.3-0.1-2.6 0.3-3.9-0.2-0.3-0.2-0.7 0.1-0.8 0.4-0.6 1.6-1.5 1.9-2.9 1.1-0.8-0.5-1.5-0.3-1.9 0.5-0.5 1.2-1.1 1.2-2.1 0.6-1.1-0.7-1.9-0.6-2.2 0.9-0.1 0.6-0.4 1.1-1 1.2-0.7 0.3-0.7 0.7-0.7 1.4 0.1 2.1-1.1 2.8-3 1.9-1.7-0.8-3.5-1.2-5.1-2.3-0.8-0.6-1.9-0.2-2.8-0.8-2.9-1.8-3-1.7-5.7 0.4-0.5 0.4-1 0.9-1.5 1.4-4.8 4.6-8.5 10.1-11.7 16-0.5 0.9-0.9 1.8-0.8 2.8 0.1 3-0.3 6-0.5 9q-0.3 4.8-1 9.6c-0.3 1.9-0.4 3.8-0.6 5.7 0 0.9 0.4 1.3 1.3 0.9 0.3-0.2 0.5-0.4 0.8-0.5 5.8-2.8 11.7-4 18.2-2.9 5.7 0.9 11.1 2.8 15.8 6.3 2.6 1.9 5.4 3.6 8.1 5.3 1.1 0.7 2.3 1.1 3.6 1 4.7-0.2 9.4 0.6 14.1 1.3 3 0.5 3.5 0.1 3.5-3q0-13.6 0-27.2zm-208.8 39.1q0.7-1.2 1.3-2.4c2.3-4.8 4.8-9.5 8.1-13.7 2.3-3.1 5-5.8 7.6-8.6 2.7-2.9 4.7-6.1 3.5-10.3-0.2-0.6-0.1-1.2-0.1-1.8-0.2-2.1-0.3-2.3-2.4-2-1.1 0.1-2.1 0.4-3.2 0.5-0.8 0.2-1.6 0.1-2-0.7-0.3-0.7 0.3-1.2 0.8-1.7 1.2-1.3 2.5-2.6 4.1-3.5 1.7-0.9 2.2-2.2 2.2-4.1 0-2.6-0.4-5.1-0.4-7.7-0.2-6.2-0.4-12.3-1.1-18.4-0.6-6.3-2.7-11.8-8.3-15.5-1.5-1-2.9-1.4-4.3-0.5-3.1 1.9-6.7 2.7-9.5 5-1.7 1.4-2.4 1-2.9-1.2-0.2-0.8-0.6-1.1-1.4-0.9-1.4 0.2-2 0.8-2 2.3 0 1.1 0.4 2.3 0.4 3.4 0.1 6.7 0.6 13.3 1.1 19.9 0.3 4 0.7 8 1.3 11.9 1.1 8 2.1 16 3.2 24 0.9 5.8 1.9 11.6 2.4 17.5 0.3 2.9 1.6 5.5 1.6 8.5zm126.4 64.4c0-1.9 0-3.4 0-5 0-1.2-0.4-2.3-1-3.3-3.6-5.8-8.9-9.8-14.7-13.2-0.9-0.5-1.7-0.4-2.2 0.3-1.5 2.3-3.7 3.9-5 6.2-0.4 0.7-0.6 1.4-1.6 0.8-0.2-0.2-0.5-0.2-0.6 0.1-0.6 1.2-1.5 1.9-2.9 1.9-0.4 0-0.7 0.4-0.8 0.8-0.3 1.2-0.5 2.6-2.2 1.3-0.3-0.2-0.6 0.1-0.9 0.4-0.3 0.4-0.6 0.9-1.1 0.8-1.5-0.5-1.7 0.4-1.9 1.5-0.2 1-0.8 1.6-1.7 0.8-0.9-0.8-1.6-0.6-2.2 0.1-0.8 1.1-1.9 2-2.4 3.4-0.6 2-0.7 2 1 3.5 1.4 1.2 1.4 1.7 0.3 3.1-0.6 0.8-1.2 1.5-1.8 2.3-1.2 1.6-1.2 3 0 4.6 0.5 0.5 1 1.1 1.6 1.5 3.9 2.3 7.2 5.4 10.7 8.1 1.5 1.2 3 1.7 4.8 1.9 4.7 0.5 9.1 1.8 13.1 4.5 1.5 1.1 2.3 2.4 2 4.2-0.1 0.7-0.2 1.3-0.3 2-0.1 0.8 0 1.5 0.5 2.1 2.3 3.1 4.8 6.1 6.9 9.5 0.7-1 0.7-1.9 0.8-2.8 0.7-4.7 0.9-9.4 1.3-14.1 0.1-1.9 0.6-3.9-0.5-5.6-0.5-0.8-0.9-1.6-0.7-2.5 0-0.7-0.2-1.2-1-1.2-1.1 0-1-0.7-0.9-1.5 0.3-2.1 0.3-2.1-1.9-1.9-1.6 0.1-1.7 0.1-1.7-1.6-0.1-1.4-0.5-1.9-1.8-1.5-0.9 0.3-1.5 0.2-1.3-1 0.2-1.7 0.2-1.7-1.5-1.4-0.4 0.1-0.8 0.2-1.2 0-0.8-0.4-1.2 0.1-1.7 0.6-0.4 0.5-0.7 1.2-1.4 1.4-0.6 0.1-1.3 0.5-1.9 0-0.6-0.5-0.3-1.2 0.1-1.8 0.9-1.7 1.5-3.6 2.4-5.4 1.4-2.9 3.7-3.9 6.6-4 2.8-0.2 5.6-0.2 8.7 0.1zm-111.7-204.5c-1.1 0.7-1.4 2.3-2.6 2.9-1.5 0.7-2.5 1.9-3.5 3.1-2.3 3.1-5.8 3.9-9.2 4.9-0.6 0.2-1.2 0.1-1.8 0-1.6-0.3-3.2-0.6-4.8-1.2-2-0.7-2.3-0.5-2.4 1.7 0 3.7 0.1 7.5 0 11.2-0.1 5 0.4 10-0.4 14.9-0.2 1.7 0.1 2.2 2 2.5 2.8 0.5 5.6 0.8 8.2 1.9 4.9 1.8 9.6 1.5 14.3-0.4q0.2 0 0.3-0.1c2.3-0.7 2.4-0.9 2.5-3.2 0.1-2.5-0.4-5-0.4-7.5 0.1-4.8-0.8-9.6-0.5-14.4q0-0.4-0.1-0.8-0.7-6.5-0.9-13.1c0-0.8 0.3-1.7-0.7-2.4zm216.8 317c-0.4-2.4-1.8-4.2-2.8-6.2-2.1-4.5-3.2-9.4-5.2-14-2.2-5.3-4.1-10.7-6.6-15.9-0.9-1.7-2.3-2.2-3.8-3-0.6-0.3-0.9 0.2-1.2 0.6-1.7 2.4-2.6 5-2.6 8 0 1.1 0.2 2.3-1.4 2.7-0.6 0.2-0.6 1-0.6 1.5 0.3 4.5-0.4 9-0.5 13.5-0.1 3.1 0.5 5.6 2.4 8.3 3.4 4.4 6 9.4 7.5 14.8q0.1 0.2 0.2 0.5c0.6 1.3 1 1.5 2.3 0.9 1.4-0.5 2.7-1.3 4.1-1.9 3.8-1.8 7.7-3.4 12-3.7 1-0.1 1.8-0.6 2.6-1 2.8-1.5 5.1-3.7 8.1-4.8 1.4-0.6 1.5-1.8 0.2-2.8-1.8-1.3-3.7-2.6-6.2-2.2-0.7 0-1.5 0.2-1.8-0.4-1.3-2.2-3.9-1.8-5.7-2.9-0.7-0.4-1.1 0-1 0.8 0.1 1 0.4 2.1 0.6 3.1 0.3 1.4 0.4 2.8-0.6 4.1zm-237.1-128.7c-0.2-4.6-0.1-8.8-0.4-13.1-0.3-4.9-0.4-9.9-1.1-14.9q-0.7-5.6-1.4-11.3c-0.1-0.8-0.4-1.4-1.3-1.7-0.8-0.2-1.4 0.2-2 0.7-0.6 0.7-0.9 1.6-1.2 2.5-0.2 0.6-0.6 1.1-1.3 0.6-1.1-0.8-1.6-0.3-2.2 0.6-0.3 0.6-0.6 1.4-1.4 1.3-1.7-0.4-2.4 0.6-3 1.9-0.3 0.6-0.7 1.2-1.3 0.8-1.2-0.8-2-0.2-2.7 0.7-0.3 0.3-0.8 0.5-1.2 0.3-1.7-0.5-2.4 0.6-3 1.9-0.5 0.9-1.2 1.7-2.3 1-1.2-0.7-2-0.5-2.8 0.6-0.5 0.7-1.2 0.7-2 0.4-2.2-0.6-2.4-0.6-3.7 1.3-0.9 1.2-1.7 2.5-3.6 1.7-0.2-0.1-0.5 0-0.7 0.2-1.8 1.1-3.7 2.3-4.9 4.1-1.4 2.3-0.3 5.3 2.3 6.1 0.5 0.2 1.1 0.3 1.7 0.3 3.2 0 6.2 0.7 9.3 1.3 2.1 0.4 4.1 1 6.2 0.4 1.5-0.5 3-1.1 4.4-1.8 4.1-2 8.6-2.4 13.1-2.4 1.8 0 3 0.8 3.7 2.4 0.6 1.5 2.1 3.1 0 4.6-0.1 0.1-0.2 0.3-0.2 0.4-0.3 3.3-0.6 6.6 3 9.1zm10.2 14.3c0.7 0.1 0.9-0.2 1.1-0.4 3.9-4.5 8-8.9 13.2-12 2.2-1.3 2.8-3 2.3-5.2-0.4-1.8-0.3-3.7-0.4-5.5-0.2-4.5-0.4-9.1-3.1-13.1-1.1-1.5-1.9-3.1-3-4.6-3.2-4.3-7.3-7.6-12-10.3-1-0.6-1.5-0.3-1.7 0.8q-0.1 0.8 0 1.5c0.4 3.2 0.5 6.5 0.8 9.7 0.7 6.1 0.7 12.2 1.2 18.3 0.2 4.4 0.4 8.9 0.6 13.4 0.1 2.5 0.2 5.1 1 7.4zm154 141.2c-0.5-2.2-0.6-4.8-1.5-7.3-1.2-3.2-2-6.6-2.6-10.1-0.3-2-0.6-4.1-0.8-6.1-0.2-2.4-1.3-4.6-3.6-5.3-1.6-0.5-2.3-0.9-2.4-2.7 0-1.4-1.2-1.7-2.3-0.7q-0.2 0.2-0.4 0.5c-3.2 4.6-5.9 9.4-6 15.1-0.1 5.3-0.8 10.6-0.6 15.9 0.1 1.7 0.2 3.4-0.2 5-0.2 0.7 0 1.3 0.7 1.7 2.8 1.7 5.6 3.6 8.7 4.8 2.1 0.8 2.4 0.7 3.8-0.9 0.6-0.7 1.2-1.5 1.8-2.1 1.9-1.6 3.2-3.6 4.7-5.4 0.5-0.6 0.9-1.3 0.7-2.4zm-28.9-238.4c0.2-1.4-0.3-2.5-1.1-3.7-1.6-2.1-3-4.4-4.7-6.5-2.2-2.8-5-4.7-8.5-5.8-0.9-0.3-1.8-0.3-2.3 0.7-0.6 1-1.7 1.3-2.8 1.5-1.3 0.3-2.6 0.3-3.9 0.4-2.7 0.2-5.5 0.1-8 1.4-0.7 0.3-1.1 0.1-1.4-0.6-0.5-1.2-1.3-0.8-2-0.2-0.8 0.7-0.2 1.3 0.4 1.8 1.9 1.9 4.3 2.8 7 2.9 8.3 0.7 15.8 3.6 23 7.6 0.6 0.4 1.1 0.8 1.6 1.3 0.9 0.8 0.9 1.2-0.2 1.7-0.7 0.3-1.4 0.6-2 1.1-0.7 0.6-1.3 0.5-1.9-0.3-0.9-1.2-2.1-1.4-3.5-0.7-0.5 0.4-1.1 0.5-1.6 0-1.1-1.2-2.3-0.9-3.4-0.2-1 0.6-1.8 1.1-2.9 0.1-0.5-0.6-1.2-0.3-1.8 0-0.7 0.5-0.6 1.1-0.5 1.8q0.5 2.2 1 4.4c0.4 2.2 1.4 4 3.1 5.5 1.8 1.5 3.2 3.4 4.5 5.4 0.4 0.7 0.8 1.5 1.6 1.8 2.3 0.9 4.3 2.3 6.5 3.3 1.5 0.7 1.9 0.4 1.9-1.3 0.1-5.6 0.9-11.1 1.4-16.7 0.1-2.2 0.3-4.4 0.5-6.7zm-109.2 57.9c0.5-1.1 0.3-2 0.3-2.8 0.1-5.7 0.1-11.4 0-17.2 0-2 0.4-4.1 0.5-6.1 0.2-6.4-0.1-12.8-0.6-19.2 0-0.1-0.2-0.2-0.3-0.4-0.7 0.1-1.1 0.7-1.5 1.1-6.1 5.8-10.3 12.8-13.8 20.3-1 2.1-1.7 4.4-2.5 6.5-0.5 1.2-0.3 1.9 1 2.6 3.8 2.1 7.5 4.4 10.6 7.7 2.2 2.3 4.3 4.6 6.3 7.5zm197.1 28.2c1.3 3.1 0.1 5.8-0.6 8.5-0.3 1.3-0.3 2.6-0.2 4 0.6 4.5 1.3 9 1.9 13.5 0.1 0.7 0.9 1.6-0.1 1.9-1 0.3-0.9-0.9-1.2-1.5q-0.1-0.3-0.2-0.5-2-6.7-4-13.4c-0.3-0.8-0.3-1.7-1.2-2.4 0.1 4.9-0.2 9.6 0 14.2 0.2 4.6-0.3 9.2 0 14.1 2-1.2 2.8-3.1 4.1-4.4 1.2-1.1 2.9-1.9 2.8-3.9 0-0.3 0.4-0.5 0.7-0.5 0.6-0.1 1-0.5 1.5-0.9 4.9-4 9.8-8 15.6-10.6 3-1.3 3.1-2.2 0.5-4.4-0.2-0.2-0.5-0.4-0.8-0.5-0.9-0.3-1.4-0.9-1.9-1.6-2.2-2.7-4.9-4.9-7.7-7-0.6-0.5-1.3-0.8-2-0.9-2-0.1-3.5-1.1-4.8-2.4-0.6-0.4-0.9-1.2-2.4-1.3zm-49.3 18.2c-0.6-0.6-1.3-0.9-1.4-1.4-0.7-3.1-4.3-4.6-4.4-8 0-0.2-0.2-0.5-0.4-0.6-1-0.6-1.4-1.6-1.4-2.7-0.1-0.7-0.4-1.2-1.1-1.2-1.5 0.2-2.2-0.4-2.1-1.9 0-0.4-0.1-0.7-0.5-0.8-0.4-0.2-0.8 0-1 0.4-0.2 0.3-0.4 0.6-0.6 0.8-0.8 1.1-1.4 1.1-1.9-0.2-0.3-0.7-0.3-1.4-0.3-2.2q-0.2-2-0.5-3.9c0-0.7-0.1-1.4-0.8-1.7-0.7-0.2-1.1 0.4-1.5 0.8-0.4 0.3-0.7 0.7-1 1.1q-3.2 3.9-6.2 7.8c-1.4 1.7-2.1 3.7-1.9 6 0.1 1.4 0 2.8 0 4.2 0.1 5.9-0.9 4.9 5.5 7 1.1 0.4 2.2 0.9 3.6 0.5 3.1-0.9 6.3-1.2 9.6-1.4 2.8-0.2 5.5-1 8.3-2.6zm-61.4 45.1c-0.9-0.5 0.2-1.8-0.7-1.9-1.8-0.4-1.3-1.7-1.4-2.8 0-0.5 0-1.1-0.1-1.7-0.2-0.8-0.6-1.5-1.6-1-1.2 0.6-1.8 0-2.3-1-0.4-0.8-0.9-1.6-1.4-2.4q-1.2-1.7-2.2 0.1c-0.5 0.9-0.7 1.9-0.9 2.9 0 0.3-0.2 0.6-0.5 0.8-0.5 0.1-0.8-0.2-1-0.6-0.5-0.8-0.9-1.6-1.8-2-1.3-0.6-2.1-0.1-2.8 1.5-0.7 1.6-0.6 2 0.9 2.4 5.4 1.8 10.2 4.7 14.8 8.1q3.2 2.4 6.1 5.1c2.4 2.2 5 4.3 6.5 7.4 0.9 1.7 2.4 3.2 3.1 5.1 0.1 0.3 0.4 0.7 0.8 0.7 0.3-0.1 0.4-0.3 0.4-0.6-0.1-4 0.6-8.1 0.6-12.1 0.1-3.7-0.9-6.9-2.4-10.1-1.3-2.8-3-5.3-4.9-7.8-0.7-0.8-1-2.5-2.4-2.1-1.4 0.3-1.1 1.9-1.4 3-0.3 1.1-0.3 2.5-2.1 2.6-0.7 0-0.8 0.8-0.7 1.4 0.2 2.3-1 3.7-2.6 5zm96.7-52c-0.6 0.1-0.8 0.4-1 0.8-0.8 1.5-1.5 3.1-3.6 2.7-0.2 0-0.5 0.2-0.6 0.4-1.4 1.5-2.6 2.9-4.8 3.5-1.3 0.4-2.4 1.8-3.5 2.8-1.6 1.2-1.6 1.5-0.5 3.2 3.4 5.6 5.5 11.7 6.8 18.1 0.2 1 0.2 2-0.2 3-0.4 1-0.4 2.1 0.4 3 1.1 1.2 2.3 2.4 3.5 3.5 1.1 0.9 1.9 0.6 2.1-0.8 0.5-4.5 1.2-9 1.4-13.6 0.3-8.7 0.3-17.4 0.4-26.2 0-0.1-0.2-0.2-0.4-0.4zm-207.5 56.6c-0.8 0.6-0.6 1.5-1 2.1-2 3-2.9 6.5-4.1 9.8-1.5 4.1-1.8 8.5-2.4 12.7-0.2 0.8-0.1 1.5 0.3 2.2 0.8 1.4 1.8 2.3 3.6 2.1 3.5-0.4 6.9-2.1 10.6-1.2 0.9 0.2 1.1-0.6 1-1.5q-0.9-8.5-1.8-17.1c-0.1-1.2-0.5-2.3-1.3-3.2-1.7-1.9-3.4-3.8-4.9-5.9zm148.9-185.2c-0.3 3.2 0.3 7.1 0.5 11 0 0.5-0.1 1.1 0.6 1.2 0.4 0.1 0.7-0.3 0.9-0.6q0.9-1.2 1.8-2.4c3.5-4.8 7.4-9.2 12.3-12.6 0.8-0.5 1.5-1.1 2.2-1.8 1.1-1.2 1-1.9-0.4-2.7-1-0.6-2-1.3-2.7-2.2-1.3-1.6-3.1-2.5-4.9-3.4-1.5-0.7-2.9-0.7-4.2 0.2q-2.3 1.6-4.5 3.2-1.7 1.1-1.6 3.2c0 2.1 0 4.1 0 6.9zm-160.7 13.9c-0.3-3.7-0.6-6.9-0.8-10.1-0.2-5-1-10-0.7-15q0-0.3-0.1-0.7c-0.2-1-1.1-1.4-2.1-1-0.6 0.2-0.9 0.7-1.1 1.2-0.3 0.6-0.7 1-1.4 0.8-1.8-0.5-2.9 0.3-3.5 1.9-0.4 0.8-1 1.3-1.8 1-1.7-0.4-3 0.1-4.2 1.3-0.5 0.4-1.1 0.5-1.7 0.6-1.1 0.1-1.4 0.7-1 1.7 0.5 1.3 1.1 2.6 1.6 3.9 0.6 1.5 1.6 2.3 3.1 3 3.9 1.9 7.4 4.4 10.3 7.7 1 1.1 1.7 2.6 3.4 3.7zm141.7 102.8c1.3-3.2 1.1-5.8-0.8-8.5-1.6-2.3-4.1-4-5.4-6.7-0.1-0.2-0.4-0.3-0.6-0.4-0.9-0.5-1.3-1.2-1.5-2.2-0.2-1.5-1.4-2.2-2.6-2.2-2.6 0-5.1-0.9-7.7-0.5-2.6 0.4-5.3 0.2-7.6 2 0.7 1 1.6 1.6 2.6 2.1 4.2 2.1 7.9 5.1 12.1 7.3 2 1 3.8 2.4 5.6 3.8 2 1.6 3.6 3.6 5.9 5.3zm-143.8-158.3c0.3-1.8-0.2-3.3-0.1-4.7 0.5-6.7 0.2-13.5 0.2-20.2 0.1-1.8-0.3-2.1-2.6-2.5-1.6-0.2-2.3 0-2.7 1.8-1.1 4.4-1.7 8.8 0.1 13.2 1.7 4 3.4 8.1 5.1 12.4zm124.1-86c-1.6-0.5-2.9-1.1-4.4-1.4-3.5-0.8-6-3.4-8.6-5.7-2.1-1.8-1.9-2-4.2-0.4-0.4 0.3-0.9 0.5-1 1 0.2 0.7 1 0.8 1.5 1.2 1.2 1 1.3 1.4 0 2.5-1 1-2 1.9-3 2.9 0.9 0.4 1.6 0 2.4 0 4.6 0.3 9.3 0.4 13.9 1.3 1.2 0.2 2.4 0.1 3.4-1.4zm35.3 243.7c0.5-0.2 0.7-0.3 0.8-0.4 2.4-2.9 4.9-5.8 8-8.1 0.5-0.3 0.8-0.9 0.7-1.5-0.1-1.1-0.2-2.3-0.3-3.5-0.2-1.2-1-1.5-1.9-0.7-0.4 0.3-0.7 0.7-1 1.1-0.5 0.9-1.2 1.2-2.1 1.5-1.7 0.7-3.1 2-3.7 3.7-0.8 2.5-0.8 5.1-0.5 7.9zm-11.6-92.3c0.7-2.4 0.4-4.5 0.7-6.6 0.5-3.9 0.5-4.5-4.3-4.9-1.7-0.1-2.2 0.5-1.7 2.1 0.6 1.8 1.2 3.6 2.1 5.3 0.7 1.4 1.5 2.9 3.2 4.1zm-92.6-12.3c-2.9-1.5-5.6-1.5-8.2-1.3-1.3 0.1-2-0.2-3-0.9 0.5 1.9 0.2 3.6 0.3 5.3 0.1 1.3 0.5 1.5 1.6 1 1.8-0.7 3.5-1.5 5.2-2.3 1.2-0.5 2.6-0.6 4.1-1.8zm54.2-152.5c0-2.3 0-2.3 2-1.6 0.4 0.2 0.8 0.7 1.4 0.2-1-2.2-3-3.4-4.7-4.9-0.4-0.3-0.8-0.2-1.1 0.2q-1.6 2.5-3.2 5.1c1.8 1.1 3.6 0.8 5.6 1zm47.3 380.2q0.3 0.1 0.5 0.2c1.5-1.9 2.8-3.9 4-6.2-2 0.1-3.1-0.5-2.9-2.5 0-0.5-0.3-1-0.9-1.1-0.7 0-0.7 0.6-0.7 1.1q0 4.2 0 8.5zm65.2-155.7c0-1.2-0.4-2.3-0.6-3.4-0.6-2.4-0.7-2.3-3.1-2.6-0.5-0.1-1-0.2-1.3 0.4-0.3 0.5-0.1 1 0.3 1.4 1 1.2 2.1 2.5 3.2 3.7 0.4 0.3 0.7 0.7 1.5 0.5zm-184.4 60.2c1.6-0.9 2.7-1.7 3.7-2.7 0.5-0.7 0.2-2.6-0.5-3-0.6-0.3-1.8 0.1-2.2 1.1-0.5 1.4-1.1 2.8-1 4.6zm-12 120.1c-0.1-2.5-0.3-4.8-0.4-7.7-0.8 1.4-1 2.5-2.4 2.7-0.9 0.1-0.9 0.9-0.4 1.5 1 1.2 1.7 2.6 3.2 3.5zm105.7-211.9c-0.9-1.9-2-3.2-3.7-4.1-0.8 3.9 0.2 5 3.7 4.1zm93.6 25.2c0.2-1.8 0.7-3.2 0.7-4.7-0.1-0.6-0.2-1-0.7-1.2-0.7-0.3-1.1 0.2-1.4 0.6-0.4 0.5-0.6 1-0.4 1.6 0.5 1.2 0.7 2.4 1.8 3.7zm-104.4-20.5c1.2-0.3 1.5-1 1.8-1.6 0.2-0.6-0.1-1-0.5-1.3-0.3-0.3-0.7-0.5-1.1-0.3-0.4 0.2-0.4 0.7-0.4 1.1 0.1 0.6 0.2 1.3 0.2 2.1zm0.3-170.1q0-0.3 0-0.6-2.8 0-5.7 0c1.9 0 3.7 1.4 5.7 0.6zm-112.6 179.6q-0.5 0.1-0.7 0.6c-0.1 0.4 0.1 0.6 0.5 0.6 0.3 0.1 0.6-0.1 0.6-0.5 0.1-0.3 0-0.6-0.4-0.7zm113.8 4.4c-0.1-0.1-0.2-0.3-0.2-0.3-0.3 0-0.4 0.2-0.4 0.4 0 0.1 0.1 0.4 0.2 0.4 0.2 0 0.3-0.3 0.4-0.5zm-15.8-193.5c0-0.1 0-0.1 0-0.2 0-0.1-0.1-0.1-0.2-0.1-0.2 0-0.2 0.1-0.1 0.3 0.1 0 0.2 0 0.3 0zm14.2 190.3c0.1 0 0.2 0.1 0.2 0 0.1 0 0.1-0.1 0.1-0.2-0.1-0.2-0.2-0.2-0.3 0 0 0.1 0 0.2 0 0.2zm-70.6 61.2c0-0.1 0.1-0.2 0.1-0.2-0.1-0.3-0.2-0.3-0.3-0.1-0.1 0-0.1 0.1 0 0.2 0 0 0.1 0 0.2 0.1zm-15.5 18.1l0.1 0.1z" />
</svg>