<?xml version="1.0" encoding="UTF-8"?>
<svg id="Layer_4" data-name="Layer 4" xmlns="http://www.w3.org/2000/svg" xmlns:xlink="http://www.w3.org/1999/xlink" version="1.1" viewBox="0 0 2000 3000">
  <defs>
    <style>
      .cls-1 {
        fill: url(#linear-gradient);
        stroke-width: 0px;
      }

      .cls-2 {
        opacity: .7;
      }
    </style>
    <linearGradient id="linear-gradient" x1="7874.3" y1="2270" x2="7833.4" y2="1984.5" gradientTransform="translate(8990.4 3000) rotate(-180)" gradientUnits="userSpaceOnUse">
      <stop offset="0" stop-color="#200e5b"/>
      <stop offset=".1" stop-color="#1f1662"/>
      <stop offset=".3" stop-color="#1d2c78"/>
      <stop offset=".5" stop-color="#1b519b"/>
      <stop offset=".8" stop-color="#1783ca"/>
      <stop offset="1" stop-color="#14b2f7"/>
    </linearGradient>
  </defs>
  <g class="cls-2">
    <path class="cls-1" d="M967,920.2h8.2s35-.2,35-.2h8.8s21.7-.1,21.7-.1h5.4s21.7-.1,21.7-.1h11.9c0,0,0,0,0,0h30.4c0-.1,0-.1,0-.1h5.2s18.3-.1,18.3-.1l61.9-.2h0c0-.1.2-.3.2-.4.2.1.4.3.6.4h20.1c0,.2,1.1.2,1.5,0h0l33.6-.2h14.3c0,0,53.6-.3,53.6-.3-.3-2.4-.9-4.8-1.8-7.1-4.8-13.1-17.4-22.5-32.2-22.5s-16.9,3.4-23,8.9c-4.6-7-12.4-11.5-21.4-11.5s-13.2,2.7-17.8,7.2c-3-4.9-8.2-8.4-14.3-9-.7,0-1.3-.1-2-.1-1.7,0-3.3.2-4.8.6-1.7-10.4-6.5-19.7-13.6-27-9.1-9.4-21.9-15.2-36-15.2s-25.8,5.4-34.8,14.1c-3.6-1.1-7.4-1.7-11.3-1.7-19.5,0-35.6,14.8-37.6,33.8-10.2,2.5-18.7,9.1-23.7,18-2-.3-4-.5-6.1-.5-8.7,0-16.7,3-23.1,7.9-.6.5-1.3,1-1.9,1.5-3.3-2.2-6.9-3.9-10.8-4.9-3.2-.9-6.7-1.4-10.2-1.4-10.1,0-19.3,4-26.1,10.5h0Z"/>
  </g>
</svg>