<?xml version="1.0" encoding="UTF-8"?>
<svg id="Layer_4" data-name="Layer 4" xmlns="http://www.w3.org/2000/svg" xmlns:xlink="http://www.w3.org/1999/xlink" version="1.1" viewBox="0 0 2000 3000">
  <defs>
    <style>
      .cls-1 {
        fill: url(#linear-gradient);
        stroke-width: 0px;
      }

      .cls-2 {
        opacity: .7;
      }
    </style>
    <linearGradient id="linear-gradient" x1="7452.5" y1="2083.3" x2="7391.3" y2="1656" gradientTransform="translate(8990.4 3000) rotate(-180)" gradientUnits="userSpaceOnUse">
      <stop offset="0" stop-color="#200e5b"/>
      <stop offset=".1" stop-color="#1f1662"/>
      <stop offset=".3" stop-color="#1d2c78"/>
      <stop offset=".5" stop-color="#1b519b"/>
      <stop offset=".8" stop-color="#1783ca"/>
      <stop offset="1" stop-color="#14b2f7"/>
    </linearGradient>
  </defs>
  <g class="cls-2">
    <path class="cls-1" d="M1314.8,1201.4h12.3c0,0,52.4-.3,52.4-.3h13.1s32.4-.2,32.4-.2h8.1s32.4-.2,32.4-.2h17.8c0,0,0,0,0,0l45.5-.2h7.8c0,0,27.4-.2,27.4-.2l92.7-.4h0c.1-.2.2-.4.3-.6.3.2.6.4.8.6h30.1c.1.3,1.6.3,2.2-.1h0l50.3-.2h21.4c0,0,80.3-.4,80.3-.4-.5-3.7-1.4-7.2-2.6-10.6-7.2-19.7-26-33.7-48.1-33.7s-25.4,5-34.5,13.3c-6.8-10.4-18.6-17.3-32-17.3s-19.7,4.1-26.6,10.7c-4.5-7.4-12.3-12.6-21.4-13.5-1-.1-2-.2-3-.2-2.5,0-4.9.3-7.2.9-2.5-15.6-9.8-29.6-20.3-40.4-13.6-14-32.7-22.7-53.8-22.7s-38.7,8-52.2,21.1c-5.4-1.7-11.1-2.6-17-2.6-29.2,0-53.2,22.2-56.2,50.6-15.2,3.7-28,13.6-35.5,26.9-3-.5-6-.7-9.1-.7-13,0-25,4.4-34.6,11.8-1,.7-1.9,1.5-2.8,2.3-4.9-3.3-10.3-5.8-16.1-7.4-4.9-1.4-10-2.1-15.3-2.1-15.2,0-28.9,6-39.1,15.7h0Z"/>
  </g>
</svg>