<?xml version="1.0" encoding="UTF-8"?>
<svg id="Layer_4" data-name="Layer 4" xmlns="http://www.w3.org/2000/svg" xmlns:xlink="http://www.w3.org/1999/xlink" version="1.1" viewBox="0 0 2000 3000">
  <defs>
    <style>
      .cls-1 {
        fill: url(#linear-gradient);
      }

      .cls-1, .cls-2 {
        stroke-width: 0px;
      }

      .cls-2 {
        fill: #000851;
      }
    </style>
    <linearGradient id="linear-gradient" x1="1518.8" y1="560" x2="1520.3" y2="560" gradientTransform="translate(0 3000) scale(1 -1)" gradientUnits="userSpaceOnUse">
      <stop offset="0" stop-color="#150769"/>
      <stop offset=".4" stop-color="#11177a"/>
      <stop offset=".8" stop-color="#0e268a"/>
    </linearGradient>
  </defs>
  <g>
    <path class="cls-2" d="M2000,2378.2v621.8H0v-638.2c32.8,21.7,65.5,42.4,98.2,62.2,27.9,16.9,55.8,33,83.7,48.4,7.9,4.4,15.8,8.7,23.7,12.9,44.6,24.1,89.2,46.3,133.7,66.6,162,74.1,323.2,123.5,483.7,147,21,3.1,42.1,5.7,63.1,7.9h0c.8,0,1.5.2,2.3.2h0c7.4.8,14.7,1.5,22.1,2.1h0c.8,0,1.6.1,2.3.2,50.5,4.3,100.8,6.1,151.1,5.2,29.2-.5,58.4-1.9,87.6-4.2,16.8-1.3,33.6-2.9,50.3-4.9,4-.4,7.9-.9,11.9-1.4,97.7-12,195-34.1,292.1-66.7,32.4-10.9,64.7-22.9,97-36.1h0c54.9-22.4,109.8-48.3,164.6-77.5.8-.4,1.5-.8,2.3-1.2h0c.7-.4,1.4-.8,2.1-1.1,12.8-6.9,25.6-13.9,38.3-21.2,20.6-11.7,41.1-23.8,61.6-36.5,2.4-1.5,4.8-2.9,7.1-4.4,22.5-14,44.9-28.5,67.3-43.6.2-.1.3-.2.4-.3,6.6-4.5,13.2-9,19.8-13.5.2-.1.3-.2.5-.4,9.6-6.6,19.2-13.3,28.7-20.2,0,0,0,0,.1,0h0l4.3-3.1h0Z"/>
    <path class="cls-1" d="M1520.3,2440.8c-.3,0-.6,0-.8,0-.2-.5-.4-1.1-.7-1.7.5.6,1,1.1,1.5,1.7Z"/>
  </g>
  <path class="cls-2" d="M444,2560c18.6,4.8,38.5,3.9,56.6-2.4-14.9,13.2-32.6,20-52,22.2-53.2,6-118.1-23.3-166.2-53.1-18.8-25.6-36.1-52-52.1-79.4-3.3-19.9-4.1-40.8-4.5-60.9,26.9,24.9,47.2,57,58,92.1-1.5-13.5-2.2-27-2.1-40.6h0s0,0,0,0c.4-38.3,7.6-76.6,21.1-112.4h0c.9-2.3,1.8-4.6,2.7-6.9,1.3,4.1,2.6,8.3,3.7,12.6,5.1,19.1,8.2,38.7,9.1,58.4,1.5-14.8,3.9-29.6,7.1-44.1h0c.7-2.9,1.4-5.9,2.1-8.8,2.2-8.7,4.6-17.3,7.5-25.8,1.7-5.1,3.5-10.2,5.4-15.3,2.4-6.4,5-12.7,7.8-18.9.5,6.2,1,12.4,1.4,18.6.6,8.9,1,17.9,1.4,26.8h0c.2,5.1.4,10.2.5,15.3.3,10.4.4,20.8.3,31.1,0,8.8-.2,17.6-.4,26.4,1.7-7.3,3.7-14.4,6-21.5h0c3.9-12.1,8.7-24,14.2-35.4h0c.2-.4.3-.7.5-1h0c1.4-2.9,2.9-5.9,4.5-8.8.2,3.3.5,6.6.7,10h0c0,.9.1,1.7.2,2.6,1.2,16.9,2.3,33.7,3.5,50.6,6.4-11.7,12-23.9,16.5-36.5h0c1.9-5.2,3.7-10.5,5.3-15.9,1.1-3.7,2.1-7.4,3-11.1.2-.9.5-1.9.7-2.8,2.5-10.5,4.4-21.2,5.7-31.9.1-.9.2-1.8.3-2.6,0-.6.1-1.2.2-1.8.1-1.3.2-2.6.4-3.9.2,1.3.5,2.7.7,4,.1.8.3,1.5.4,2.3.1.6.2,1.3.3,1.9h0c2.7,15.4,5.4,31,7.3,46.5h0c0,.6.1,1.1.2,1.7h0c0,.8.2,1.5.3,2.2,1.2,10.1,2.1,20.3,2.5,30.4h0c.8,18.8,0,37.5-3.2,56,0,.5-.2,1-.3,1.6.2-.4.5-.8.8-1.1,9.1-13.2,19.4-25.6,30.6-37h0c4-4.1,8.2-8.1,12.5-12,0,0,0,0,0,0,11.7-10.6,24.4-20.2,37.7-28.6,0,0,.2-.1.3-.2h0c5.5-3.5,11.1-6.8,16.8-9.9,2.4-1.3,4.9-2.6,7.3-3.8-.8,1.3-1.5,2.6-2.3,4h0c-3.9,6.6-7.8,13.2-11.6,19.8h0c0,0,0,.1,0,.2-5.8,9.9-11.7,19.9-17.5,29.9,8-5.6,16.1-11.3,24.2-16.9-6.4,11.1-13.3,22-20.6,32.6,0,0,0,0,0,0-2.7,3.9-5.5,7.8-8.3,11.6h0c-10.6,14.3-22,28-34.2,41-2.8,2.9-5.6,5.9-8.4,8.8,4.1-1.7,8.2-3.5,12.2-5.4,17.9-8.4,35-18.5,51.1-30.1,3.9-2.8,7.6-5.7,11.4-8.6,9.2-7.3,18-15.1,26.3-23.4h0c6.9-6.9,13.5-14.1,19.7-21.5-5.1,8.9-10.3,17.7-15.4,26.6h0c-5.5,9.5-11,18.9-16.5,28.4-2.2,3.8-4.4,7.6-6.7,11.5-10.1,17.4-20.1,34.8-30.2,52.1-.4.6-.7,1.3-1.1,1.9.8-.2,1.7-.4,2.5-.6,0,0,0,0,0,0,18.6-4.7,37.2-9.5,55.8-14.2-10.3,11.9-21,23.8-32.7,34.5-22.7,20.7-48.7,36.9-80.8,39.4h0Z"/>
  <g>
    <path class="cls-2" d="M2076.6,1427.4c-20.6-42.6-60.5-70.8-98.3-97.2,5.7,12.6,11.3,25.1,17,37.7-54-25.6-114.1-38.2-173.8-36.6,59.1,5.2,114.3,42.3,141.7,94.9-13.9-13.4-30.4-24.2-48.2-31.5,45.2,57.9,60.6,137.9,40,208.4-26-70.9-65.3-136.8-115.4-193.3,6.4,14.3,12.7,28.7,19.1,43.1-14.1-29.9-55.4-47.7-85.7-55.6,82.6,139.5,199.2,872.6,146.3,1067.9-11.5,42.5-85.3,45.9-98.8,87.8,100.1-310-16.2-931-68.3-1079.3-4.6-13-9.2-26-13.8-39-4.2-11.8-9-24.8-19.9-7.8-14.6,22.4-36.9,55.5-34.6,83-4.1-12.9-6.4-26.4-6.6-40-30.8,58.6-26,129.5-8.3,190.5h0c7,23.7,15.2,42.7,21.5,53.8-52.3-36.5-76.7-99.4-83.1-160.8-4.2,3.9-1.1,8.3-3.9,13.2-6.2-33.1-6.9-69.9,1-96.2,8.5-31.1,25.3-58.2,42.8-86.2-51.3,18-87.8,60.6-122.1,100.9-1.2-10.7.5-21.7,5.1-31.4-60.3,48.3-61.3,113.2-71.8,183.1-54.1-117.2,3.5-296,144.1-313.4-77.9-4.2-163.3-5.7-230.5,39.8,30-41.9,73.5-74.1,122.4-90.5-20.3,2.8-40.7,5.6-61,8.3,73.7-32.4,158-39.8,236.2-20.7,6.6-28.4,23.8-54.2,47.5-71.2-2.6,5.1-13.8,20.7-11.8,25.7,37-26.2,76.6-49.8,118.8-67.1,0,0,0,0,0,0,0,0,0,0,0,0,16.8-6.9,33.9-12.8,51.5-17.4-7.3,4.5-14.6,8.9-21.8,13.4,57.9-21.7,123-16.1,179.7,8.6-65.8-3.8-130.6,8.5-189.8,36.7,12.8.5,25.7,1.1,38.5,1.6-38.7,4.8-83.2,37.9-104.6,67.9,20.9-.8,43.8-10.4,65.3-14,22.5-3.7,45.2-6,68-7-19.2,6.2-38.4,12.5-57.6,18.7,57.4-8.2,115.5,12.1,158.2,50.2,19.2,17.1,35.3,37.8,46.8,60.9h0c9.4,18.8,15.6,39.1,18.2,60.1h0Z"/>
    <path class="cls-2" d="M1377.7,1234.4c38.5-20.4,117.5-53.9,160-46.1-10,2.6-20,4.9-30,7.2,15.9,0,31.4,1.6,46,8.1,10.5,4.7,19.4,10.7,27.7,18.7,3.8,3.7,7.2,7.8,10.2,12,1.4,1.9,2.9,3.2,4.5,4.9,1.8,2,3.2,4.4,4.4,6.9,1.9,4,3.1,8.2,5.7,11.8,2.8,4,6.5,7.1,10.8,9.4,5.8,3.2,11.9,5.3,18.5,5.8,8,.6,15.6-.8,23.4-2.4,5.7-1.1,11.3-2.3,16-5.8,3.9-2.9,6.4-7.1,7.4-11.7.9-4.3-.3-7.9-1.4-12-.6-2.2-.8-4.4-1.4-6.6-.8-2.7-1.8-5.4-2.9-8-2.2-5.3-4.8-10.3-7.9-15.2-3.1-4.8-6.6-9.3-10.4-13.7-1.9-2.2-3.9-4.1-6-6.1-1.1-1-2.1-1.9-3.4-2.9-.8-.6-2.3-1.4-2.9-2.3,3.3,6.3,9.2,13.6,8.7,21-32-24.7-66.1-48.4-107.7-53-16.5-1.8-34.4-1-51.1,1.3,7.6,1.2,15.4,1.7,23,2.7-50.4,2.3-108.1,39.2-141.4,76.2h0Z"/>
    <path class="cls-2" d="M1583.1,998c41.5,29.8,77,68.1,96.8,118-6.7-6.5-12.9-13.4-19.7-19.9,7.5,12.9,13.1,26.7,15.8,41.9,1.9,10.8,1.7,21.4.1,32.5-.7,5.1-2.3,10.2-3.8,15.1-.7,2.3-.9,4.2-1.4,6.4-.6,2.6-1.7,5.1-3,7.5-2,3.9-4.7,7.4-6.1,11.6-1.5,4.6-2.1,9.2-1.6,13.9.7,6.3,2.2,12.2,5.2,17.4,3.7,6.3,8.8,11.2,14,16.1,3.8,3.6,7.7,6.8,12.8,8.3,4.2,1.2,8.7.4,12.8-1.7,3.8-1.9,5.9-5.2,8.6-8.5,1.4-1.7,3-3.3,4.3-5.2,1.7-2.3,3.2-4.7,4.7-7.2,2.8-5,5.4-10,7.6-15.3,2.1-5.3,3.7-10.7,5.1-16.2.7-2.8,1.1-5.5,1.5-8.3.2-1.5.4-2.8.5-4.4,0-1,0-2.5.3-3.6-3.2,7.1-5.6,14.3-11.6,19.6,2.2-39.9,1.3-78.4-15-113.4-6.5-13.9-14.8-26.8-22.8-39.7,2,6.9,4.5,13.6,6.9,20.3-27.7-46.4-59.8-72.4-112.2-85.2h0Z"/>
  </g>
  <g>
    <path class="cls-2" d="M-150.6,1390.6c20.6-42.6,60.5-70.8,98.3-97.2-5.7,12.6-11.3,25.1-17,37.7,54-25.6,114.1-38.2,173.9-36.6-59.1,5.2-114.3,42.3-141.7,94.9,13.9-13.4,30.4-24.2,48.2-31.5-45.2,57.9-60.6,137.9-40,208.4,26-70.9,65.3-136.8,115.4-193.3-6.4,14.3-12.7,28.7-19.1,43.1,14.1-29.9,55.4-47.7,85.7-55.6C70.5,1499.9-46.2,2233.1,6.8,2428.4c11.5,42.5,85.3,45.9,98.8,87.8-100.1-310,16.2-931,68.3-1079.3,4.6-13,9.2-26,13.8-39,4.2-11.8,9-24.8,19.9-7.8,14.6,22.4,36.9,55.5,34.6,83,4.1-12.9,6.4-26.4,6.6-40,30.8,58.6,26,129.5,8.3,190.5h0c-7,23.7-15.2,42.7-21.5,53.8,52.3-36.5,76.7-99.4,83.1-160.8,4.2,3.9,1.1,8.3,3.9,13.2,6.2-33.1,6.9-69.9-1-96.2-8.5-31.1-25.3-58.2-42.8-86.2,51.3,18,87.8,60.6,122.1,100.9,1.2-10.7-.5-21.7-5-31.4,60.3,48.3,61.3,113.2,71.8,183.1,54.1-117.2-3.5-296-144.1-313.4,77.9-4.2,163.3-5.7,230.5,39.8-30-41.9-73.5-74.1-122.4-90.5,20.3,2.8,40.7,5.6,61,8.3-73.7-32.4-158-39.8-236.2-20.7-6.6-28.4-23.8-54.2-47.5-71.2,2.6,5.1,13.8,20.7,11.8,25.7-37-26.2-76.6-49.8-118.8-67.1,0,0,0,0,0,0,0,0,0,0,0,0-16.8-6.9-33.9-12.8-51.5-17.4,7.3,4.5,14.5,8.9,21.8,13.4-57.9-21.7-123-16.1-179.7,8.6,65.8-3.8,130.6,8.5,189.8,36.7-12.8.5-25.7,1.1-38.5,1.6,38.7,4.8,83.2,37.9,104.6,67.9-20.9-.8-43.8-10.4-65.3-14-22.5-3.7-45.2-6-68-7,19.2,6.2,38.4,12.5,57.6,18.7-57.5-8.2-115.5,12.1-158.2,50.2-19.2,17.1-35.3,37.8-46.8,60.9h0c-9.4,18.8-15.6,39.1-18.2,60.1h0Z"/>
    <path class="cls-2" d="M548.3,1197.7c-38.5-20.4-117.5-53.9-160-46.1,10,2.6,20,4.9,30,7.2-15.9,0-31.4,1.6-46,8.1-10.5,4.7-19.4,10.7-27.7,18.7-3.8,3.7-7.2,7.8-10.2,12-1.4,1.9-2.9,3.2-4.5,4.9-1.8,2-3.2,4.4-4.4,6.9-1.9,4-3.1,8.2-5.7,11.8-2.8,4-6.5,7.1-10.8,9.4-5.8,3.2-11.9,5.3-18.5,5.8-8,.6-15.6-.8-23.4-2.4-5.7-1.1-11.3-2.3-16-5.8-3.9-2.9-6.4-7.1-7.4-11.7-.9-4.3.3-7.9,1.4-12,.6-2.2.8-4.4,1.4-6.6.8-2.7,1.8-5.4,2.9-8,2.2-5.3,4.8-10.3,7.9-15.2,3.1-4.8,6.6-9.3,10.4-13.7,1.9-2.2,3.9-4.1,6-6.1,1.1-1,2.1-1.9,3.4-2.9.8-.6,2.3-1.4,2.9-2.3-3.3,6.3-9.2,13.6-8.7,21,32-24.7,66.1-48.4,107.7-53,16.5-1.8,34.4-1,51.1,1.3-7.6,1.2-15.4,1.7-23,2.7,50.4,2.3,108.1,39.2,141.4,76.2h0Z"/>
    <path class="cls-2" d="M342.9,961.3c-41.5,29.8-77,68.1-96.8,118,6.7-6.5,13-13.4,19.7-19.9-7.5,12.9-13.1,26.7-15.8,41.9-1.9,10.8-1.7,21.4-.1,32.5.7,5.1,2.3,10.2,3.8,15.1.7,2.3.9,4.2,1.4,6.4.6,2.6,1.7,5.1,3,7.5,2,3.9,4.7,7.4,6,11.6,1.5,4.6,2.1,9.2,1.6,13.9-.7,6.3-2.2,12.2-5.2,17.4-3.7,6.3-8.8,11.2-14,16.1-3.8,3.6-7.7,6.8-12.8,8.3-4.2,1.2-8.7.4-12.8-1.7-3.8-1.9-5.9-5.2-8.6-8.5-1.4-1.7-3-3.3-4.3-5.2-1.7-2.3-3.2-4.7-4.7-7.2-2.8-5-5.4-10-7.6-15.3-2.1-5.3-3.7-10.7-5.1-16.2s-1.1-5.5-1.5-8.3c-.2-1.5-.4-2.8-.5-4.4,0-1,0-2.5-.3-3.6,3.2,7.1,5.6,14.3,11.6,19.6-2.2-39.9-1.3-78.4,15-113.4,6.5-13.9,14.8-26.8,22.8-39.7-2,6.9-4.5,13.6-6.9,20.3,27.7-46.4,59.8-72.4,112.1-85.2h0Z"/>
  </g>
</svg>