<?xml version="1.0" encoding="UTF-8"?>
<svg id="Layer_4" data-name="Layer 4" xmlns="http://www.w3.org/2000/svg" xmlns:xlink="http://www.w3.org/1999/xlink" version="1.1" viewBox="0 0 2000 3000">
  <defs>
    <style>
      .cls-1 {
        fill: url(#linear-gradient);
      }

      .cls-1, .cls-2, .cls-3, .cls-4 {
        stroke-width: 0px;
      }

      .cls-2 {
        fill: url(#linear-gradient-4);
      }

      .cls-3 {
        fill: url(#linear-gradient-2);
      }

      .cls-4 {
        fill: url(#linear-gradient-3);
      }
    </style>
    <linearGradient id="linear-gradient" x1="1001.9" y1="699.3" x2="1031.4" y2="171.8" gradientTransform="translate(0 3000) scale(1 -1)" gradientUnits="userSpaceOnUse">
      <stop offset=".2" stop-color="#1c1f8b"/>
      <stop offset=".3" stop-color="#172991"/>
      <stop offset=".6" stop-color="#0a429f"/>
      <stop offset=".8" stop-color="#0351a8"/>
      <stop offset="1" stop-color="#0157ac"/>
    </linearGradient>
    <linearGradient id="linear-gradient-2" x1="517.3" y1="411.3" x2="517.3" y2="600" gradientTransform="translate(0 3000) scale(1 -1)" gradientUnits="userSpaceOnUse">
      <stop offset=".1" stop-color="#000851"/>
      <stop offset=".2" stop-color="#073f7d"/>
      <stop offset=".4" stop-color="#0e70a4"/>
      <stop offset=".5" stop-color="#1498c5"/>
      <stop offset=".7" stop-color="#19b8de"/>
      <stop offset=".8" stop-color="#1ccef0"/>
      <stop offset=".9" stop-color="#1edcfb"/>
      <stop offset="1" stop-color="#1fe1ff"/>
    </linearGradient>
    <linearGradient id="linear-gradient-3" x1="800.7" y1="411.3" x2="800.7" y2="600" gradientTransform="translate(0 3000) scale(1 -1)" gradientUnits="userSpaceOnUse">
      <stop offset=".1" stop-color="#000851"/>
      <stop offset=".2" stop-color="#073f7d"/>
      <stop offset=".4" stop-color="#0e70a4"/>
      <stop offset=".5" stop-color="#1498c5"/>
      <stop offset=".7" stop-color="#19b8de"/>
      <stop offset=".8" stop-color="#1ccef0"/>
      <stop offset=".9" stop-color="#1edcfb"/>
      <stop offset="1" stop-color="#1fe1ff"/>
    </linearGradient>
    <linearGradient id="linear-gradient-4" x1="1518.8" y1="560" x2="1520.3" y2="560" gradientTransform="translate(0 3000) scale(1 -1)" gradientUnits="userSpaceOnUse">
      <stop offset="0" stop-color="#150769"/>
      <stop offset=".4" stop-color="#11177a"/>
      <stop offset=".8" stop-color="#0e268a"/>
    </linearGradient>
  </defs>
  <path class="cls-1" d="M506.2,2478.5s223.6-26.9,309.9-70c41.7,15.5,381.5,227.9,878.6,50.9l-764,353.1-598.5-257.3,173.9-76.6h0Z"/>
  <path class="cls-3" d="M502.2,2478.4l-2.6,1.3v1.8l6.6-2.9s10.9-1.3,28.8-3.8c-20.3,2.5-32.8,3.7-32.8,3.7h0Z"/>
  <path class="cls-4" d="M535,2474.7c66.2-8,215-29.1,281.1-62.1,19.8,7.4,108.9,57.6,250.2,89.4-141.6-33.3-230.2-86.1-250.2-93.5-67.2,33.6-217.9,57.4-281.1,66.2h0Z"/>
  <path class="cls-2" d="M1520.3,2440.8c-.3,0-.6,0-.8,0-.2-.5-.4-1.1-.7-1.7.5.6,1,1.1,1.5,1.7Z"/>
</svg>