<?xml version="1.0" encoding="UTF-8"?>
<svg id="Layer_4" data-name="Layer 4" xmlns="http://www.w3.org/2000/svg" xmlns:xlink="http://www.w3.org/1999/xlink" version="1.1" viewBox="0 0 2000 3000">
  <defs>
    <style>
      .cls-1 {
        fill: url(#linear-gradient);
      }

      .cls-1, .cls-2, .cls-3, .cls-4, .cls-5, .cls-6, .cls-7, .cls-8, .cls-9, .cls-10, .cls-11, .cls-12, .cls-13, .cls-14, .cls-15, .cls-16, .cls-17, .cls-18, .cls-19, .cls-20, .cls-21, .cls-22, .cls-23, .cls-24, .cls-25, .cls-26, .cls-27, .cls-28, .cls-29, .cls-30, .cls-31, .cls-32 {
        stroke-width: 0px;
      }

      .cls-2 {
        fill: url(#linear-gradient-29);
      }

      .cls-3 {
        fill: url(#linear-gradient-32);
      }

      .cls-4 {
        fill: url(#linear-gradient-30);
      }

      .cls-5 {
        fill: url(#linear-gradient-31);
      }

      .cls-6 {
        fill: url(#linear-gradient-28);
      }

      .cls-7 {
        fill: url(#linear-gradient-25);
      }

      .cls-8 {
        fill: url(#linear-gradient-11);
      }

      .cls-9 {
        fill: url(#linear-gradient-12);
      }

      .cls-10 {
        fill: url(#linear-gradient-13);
      }

      .cls-11 {
        fill: url(#linear-gradient-10);
      }

      .cls-12 {
        fill: url(#linear-gradient-17);
      }

      .cls-13 {
        fill: url(#linear-gradient-16);
      }

      .cls-14 {
        fill: url(#linear-gradient-19);
      }

      .cls-15 {
        fill: url(#linear-gradient-15);
      }

      .cls-16 {
        fill: url(#linear-gradient-23);
      }

      .cls-17 {
        fill: url(#linear-gradient-21);
      }

      .cls-18 {
        fill: url(#linear-gradient-18);
      }

      .cls-19 {
        fill: url(#linear-gradient-14);
      }

      .cls-20 {
        fill: url(#linear-gradient-22);
      }

      .cls-21 {
        fill: url(#linear-gradient-20);
      }

      .cls-22 {
        fill: url(#linear-gradient-27);
      }

      .cls-23 {
        fill: url(#linear-gradient-24);
      }

      .cls-24 {
        fill: url(#linear-gradient-26);
      }

      .cls-25 {
        fill: url(#linear-gradient-4);
      }

      .cls-26 {
        fill: url(#linear-gradient-2);
      }

      .cls-27 {
        fill: url(#linear-gradient-3);
      }

      .cls-28 {
        fill: url(#linear-gradient-8);
      }

      .cls-29 {
        fill: url(#linear-gradient-9);
      }

      .cls-30 {
        fill: url(#linear-gradient-7);
      }

      .cls-31 {
        fill: url(#linear-gradient-5);
      }

      .cls-32 {
        fill: url(#linear-gradient-6);
      }
    </style>
    <linearGradient id="linear-gradient" x1="1747" y1="1187.8" x2="1519.9" y2="744.2" gradientTransform="translate(0 3000) scale(1 -1)" gradientUnits="userSpaceOnUse">
      <stop offset="0" stop-color="#0c2e90"/>
      <stop offset=".7" stop-color="#0453ad"/>
      <stop offset="1" stop-color="#0067bd"/>
    </linearGradient>
    <linearGradient id="linear-gradient-2" x1="1834.6" y1="1196.7" x2="1807.3" y2="938.1" gradientTransform="translate(0 3000) scale(1 -1)" gradientUnits="userSpaceOnUse">
      <stop offset="0" stop-color="#0c2e90"/>
      <stop offset=".7" stop-color="#0453ad"/>
      <stop offset="1" stop-color="#0067bd"/>
    </linearGradient>
    <linearGradient id="linear-gradient-3" x1="1709.4" y1="1118.4" x2="1742.1" y2="752.6" gradientTransform="translate(0 3000) scale(1 -1)" gradientUnits="userSpaceOnUse">
      <stop offset="0" stop-color="#0c2e90"/>
      <stop offset=".4" stop-color="#0b3091"/>
      <stop offset=".6" stop-color="#093897"/>
      <stop offset=".8" stop-color="#0745a2"/>
      <stop offset=".9" stop-color="#0358b1"/>
      <stop offset="1" stop-color="#0067bd"/>
    </linearGradient>
    <linearGradient id="linear-gradient-4" x1="2063.8" y1="1195.9" x2="1722.4" y2="651.1" gradientTransform="translate(0 3000) scale(1 -1)" gradientUnits="userSpaceOnUse">
      <stop offset="0" stop-color="#0c2e90"/>
      <stop offset=".7" stop-color="#0453ad"/>
      <stop offset="1" stop-color="#0067bd"/>
    </linearGradient>
    <linearGradient id="linear-gradient-5" x1="1754.7" y1="881" x2="1755.7" y2="881" gradientTransform="translate(0 3000) scale(1 -1)" gradientUnits="userSpaceOnUse">
      <stop offset="0" stop-color="#00a4e9"/>
      <stop offset=".5" stop-color="#0ec1f3"/>
      <stop offset="1" stop-color="#1fe1ff"/>
    </linearGradient>
    <linearGradient id="linear-gradient-6" x1="1755.7" y1="881.9" x2="1756.4" y2="881.9" gradientTransform="translate(0 3000) scale(1 -1)" gradientUnits="userSpaceOnUse">
      <stop offset="0" stop-color="#00a4e9"/>
      <stop offset=".5" stop-color="#0ec1f3"/>
      <stop offset="1" stop-color="#1fe1ff"/>
    </linearGradient>
    <linearGradient id="linear-gradient-7" x1="1756.4" y1="882.8" x2="1757.4" y2="882.8" gradientTransform="translate(0 3000) scale(1 -1)" gradientUnits="userSpaceOnUse">
      <stop offset="0" stop-color="#00a4e9"/>
      <stop offset=".5" stop-color="#0ec1f3"/>
      <stop offset="1" stop-color="#1fe1ff"/>
    </linearGradient>
    <linearGradient id="linear-gradient-8" x1="1757.9" y1="907.9" x2="1802.7" y2="907.9" gradientTransform="translate(0 3000) scale(1 -1)" gradientUnits="userSpaceOnUse">
      <stop offset="0" stop-color="#00a4e9"/>
      <stop offset=".5" stop-color="#0ec1f3"/>
      <stop offset="1" stop-color="#1fe1ff"/>
    </linearGradient>
    <linearGradient id="linear-gradient-9" x1="1802.7" y1="1026.4" x2="1962.8" y2="1026.4" gradientTransform="translate(0 3000) scale(1 -1)" gradientUnits="userSpaceOnUse">
      <stop offset="0" stop-color="#00a4e9"/>
      <stop offset=".5" stop-color="#0ec1f3"/>
      <stop offset="1" stop-color="#1fe1ff"/>
    </linearGradient>
    <linearGradient id="linear-gradient-10" x1="1782.6" y1="1132.6" x2="1922.8" y2="1063.6" gradientTransform="translate(0 3000) scale(1 -1)" gradientUnits="userSpaceOnUse">
      <stop offset="0" stop-color="#0c2e90"/>
      <stop offset=".6" stop-color="#054da8"/>
      <stop offset="1" stop-color="#0067bd"/>
    </linearGradient>
    <linearGradient id="linear-gradient-11" x1="1376.2" y1="729.9" x2="1581.7" y2="965.3" gradientTransform="translate(0 3000) scale(1 -1)" gradientUnits="userSpaceOnUse">
      <stop offset="0" stop-color="#0c2e90"/>
      <stop offset="0" stop-color="#0b2e90"/>
      <stop offset=".4" stop-color="#054da8"/>
      <stop offset=".8" stop-color="#0160b7"/>
      <stop offset="1" stop-color="#0067bd"/>
    </linearGradient>
    <linearGradient id="linear-gradient-12" x1="2055.2" y1="1131.2" x2="1831.5" y2="619.8" gradientTransform="translate(0 3000) scale(1 -1)" gradientUnits="userSpaceOnUse">
      <stop offset="0" stop-color="#0c2e90"/>
      <stop offset=".4" stop-color="#0b3091"/>
      <stop offset=".6" stop-color="#093897"/>
      <stop offset=".8" stop-color="#0745a2"/>
      <stop offset=".9" stop-color="#0358b1"/>
      <stop offset="1" stop-color="#0067bd"/>
    </linearGradient>
    <linearGradient id="linear-gradient-13" x1="1907" y1="1104.3" x2="1757.9" y2="723.1" gradientTransform="translate(0 3000) scale(1 -1)" gradientUnits="userSpaceOnUse">
      <stop offset="0" stop-color="#0c2e90"/>
      <stop offset=".4" stop-color="#0b3091"/>
      <stop offset=".6" stop-color="#093897"/>
      <stop offset=".8" stop-color="#0745a2"/>
      <stop offset=".9" stop-color="#0358b1"/>
      <stop offset="1" stop-color="#0067bd"/>
    </linearGradient>
    <linearGradient id="linear-gradient-14" x1="1573.8" y1="1002" x2="1721.7" y2="1002" gradientTransform="translate(0 3000) scale(1 -1)" gradientUnits="userSpaceOnUse">
      <stop offset="0" stop-color="#00a4e9"/>
      <stop offset=".5" stop-color="#0ec1f3"/>
      <stop offset="1" stop-color="#1fe1ff"/>
    </linearGradient>
    <linearGradient id="linear-gradient-15" x1="1529" y1="1019.5" x2="1592.6" y2="888.4" gradientTransform="translate(0 3000) scale(1 -1)" gradientUnits="userSpaceOnUse">
      <stop offset="0" stop-color="#0c2e90"/>
      <stop offset="1" stop-color="#0067bd"/>
    </linearGradient>
    <linearGradient id="linear-gradient-16" x1="3284.2" y1="1187.8" x2="3057.1" y2="744.2" gradientTransform="translate(3538.2 3000) rotate(-180)" gradientUnits="userSpaceOnUse">
      <stop offset="0" stop-color="#0c2e90"/>
      <stop offset=".7" stop-color="#0453ad"/>
      <stop offset="1" stop-color="#0067bd"/>
    </linearGradient>
    <linearGradient id="linear-gradient-17" x1="3371.9" y1="1196.7" x2="3344.6" y2="938.1" gradientTransform="translate(3538.2 3000) rotate(-180)" gradientUnits="userSpaceOnUse">
      <stop offset="0" stop-color="#0c2e90"/>
      <stop offset=".7" stop-color="#0453ad"/>
      <stop offset="1" stop-color="#0067bd"/>
    </linearGradient>
    <linearGradient id="linear-gradient-18" x1="3246.6" y1="1118.4" x2="3279.4" y2="752.6" gradientTransform="translate(3538.2 3000) rotate(-180)" gradientUnits="userSpaceOnUse">
      <stop offset="0" stop-color="#0c2e90"/>
      <stop offset=".4" stop-color="#0b3091"/>
      <stop offset=".6" stop-color="#093897"/>
      <stop offset=".8" stop-color="#0745a2"/>
      <stop offset=".9" stop-color="#0358b1"/>
      <stop offset="1" stop-color="#0067bd"/>
    </linearGradient>
    <linearGradient id="linear-gradient-19" x1="275.7" y1="1045.8" x2="81.4" y2="735.8" gradientTransform="translate(0 3000) scale(1 -1)" gradientUnits="userSpaceOnUse">
      <stop offset="0" stop-color="#0c2e90"/>
      <stop offset=".7" stop-color="#0453ad"/>
      <stop offset="1" stop-color="#0067bd"/>
    </linearGradient>
    <linearGradient id="linear-gradient-20" x1="3292" y1="881" x2="3292.9" y2="881" gradientTransform="translate(3538.2 3000) rotate(-180)" gradientUnits="userSpaceOnUse">
      <stop offset="0" stop-color="#00a4e9"/>
      <stop offset=".5" stop-color="#0ec1f3"/>
      <stop offset="1" stop-color="#1fe1ff"/>
    </linearGradient>
    <linearGradient id="linear-gradient-21" x1="3292.9" y1="881.9" x2="3293.7" y2="881.9" gradientTransform="translate(3538.2 3000) rotate(-180)" gradientUnits="userSpaceOnUse">
      <stop offset="0" stop-color="#00a4e9"/>
      <stop offset=".5" stop-color="#0ec1f3"/>
      <stop offset="1" stop-color="#1fe1ff"/>
    </linearGradient>
    <linearGradient id="linear-gradient-22" x1="3293.7" y1="882.8" x2="3294.6" y2="882.8" gradientTransform="translate(3538.2 3000) rotate(-180)" gradientUnits="userSpaceOnUse">
      <stop offset="0" stop-color="#00a4e9"/>
      <stop offset=".5" stop-color="#0ec1f3"/>
      <stop offset="1" stop-color="#1fe1ff"/>
    </linearGradient>
    <linearGradient id="linear-gradient-23" x1="3295.2" y1="907.9" x2="3339.9" y2="907.9" gradientTransform="translate(3538.2 3000) rotate(-180)" gradientUnits="userSpaceOnUse">
      <stop offset="0" stop-color="#00a4e9"/>
      <stop offset=".5" stop-color="#0ec1f3"/>
      <stop offset="1" stop-color="#1fe1ff"/>
    </linearGradient>
    <linearGradient id="linear-gradient-24" x1="3339.9" y1="1026.4" x2="3500" y2="1026.4" gradientTransform="translate(3538.2 3000) rotate(-180)" gradientUnits="userSpaceOnUse">
      <stop offset="0" stop-color="#00a4e9"/>
      <stop offset=".5" stop-color="#0ec1f3"/>
      <stop offset="1" stop-color="#1fe1ff"/>
    </linearGradient>
    <linearGradient id="linear-gradient-25" x1="3319.9" y1="1132.6" x2="3460" y2="1063.6" gradientTransform="translate(3538.2 3000) rotate(-180)" gradientUnits="userSpaceOnUse">
      <stop offset="0" stop-color="#0c2e90"/>
      <stop offset=".6" stop-color="#054da8"/>
      <stop offset="1" stop-color="#0067bd"/>
    </linearGradient>
    <linearGradient id="linear-gradient-26" x1="2913.4" y1="729.9" x2="3118.9" y2="965.3" gradientTransform="translate(3538.2 3000) rotate(-180)" gradientUnits="userSpaceOnUse">
      <stop offset="0" stop-color="#0c2e90"/>
      <stop offset="0" stop-color="#0b2e90"/>
      <stop offset=".4" stop-color="#054da8"/>
      <stop offset=".8" stop-color="#0160b7"/>
      <stop offset="1" stop-color="#0067bd"/>
    </linearGradient>
    <linearGradient id="linear-gradient-27" x1="244.6" y1="1061.9" x2="91.5" y2="712" gradientTransform="translate(0 3000) scale(1 -1)" gradientUnits="userSpaceOnUse">
      <stop offset="0" stop-color="#0c2e90"/>
      <stop offset=".4" stop-color="#0b3091"/>
      <stop offset=".6" stop-color="#093897"/>
      <stop offset=".8" stop-color="#0745a2"/>
      <stop offset=".9" stop-color="#0358b1"/>
      <stop offset="1" stop-color="#0067bd"/>
    </linearGradient>
    <linearGradient id="linear-gradient-28" x1="3444.2" y1="1104.3" x2="3295.1" y2="723.1" gradientTransform="translate(3538.2 3000) rotate(-180)" gradientUnits="userSpaceOnUse">
      <stop offset="0" stop-color="#0c2e90"/>
      <stop offset=".4" stop-color="#0b3091"/>
      <stop offset=".6" stop-color="#093897"/>
      <stop offset=".8" stop-color="#0745a2"/>
      <stop offset=".9" stop-color="#0358b1"/>
      <stop offset="1" stop-color="#0067bd"/>
    </linearGradient>
    <linearGradient id="linear-gradient-29" x1="3111.1" y1="1002" x2="3258.9" y2="1002" gradientTransform="translate(3538.2 3000) rotate(-180)" gradientUnits="userSpaceOnUse">
      <stop offset="0" stop-color="#00a4e9"/>
      <stop offset=".5" stop-color="#0ec1f3"/>
      <stop offset="1" stop-color="#1fe1ff"/>
    </linearGradient>
    <linearGradient id="linear-gradient-30" x1="3066.2" y1="1019.5" x2="3129.8" y2="888.4" gradientTransform="translate(3538.2 3000) rotate(-180)" gradientUnits="userSpaceOnUse">
      <stop offset="0" stop-color="#0c2e90"/>
      <stop offset="1" stop-color="#0067bd"/>
    </linearGradient>
    <linearGradient id="linear-gradient-31" x1="1365.1" y1="870.9" x2="2000" y2="870.9" gradientTransform="translate(0 3000) scale(1 -1)" gradientUnits="userSpaceOnUse">
      <stop offset="0" stop-color="#005fc0"/>
      <stop offset="1" stop-color="#020d59"/>
    </linearGradient>
    <linearGradient id="linear-gradient-32" x1="698.7" y1="757.7" x2="23.2" y2="877.4" gradientTransform="translate(0 3000) scale(1 -1)" gradientUnits="userSpaceOnUse">
      <stop offset="0" stop-color="#005fc0"/>
      <stop offset="1" stop-color="#020d59"/>
    </linearGradient>
  </defs>
  <g>
    <path class="cls-1" d="M1756.5,2032.4l-112.7,151-23.7-83.1-65,105.2-63.3,52.5s-87.2,13.4-74.8-40c40.7-24.2,146.4-146.3,163.8-163.6,6.8-6.8,10.7-11,10.7-11l-6.1,24,136.3-157.4,34.8,122.3h0Z"/>
    <path class="cls-26" d="M1753.7,1947.7c.1-1.5,42.2-65.7,42.2-65.7l91.2,46.8-55.3,94.1-78.1-75.2h0Z"/>
    <path class="cls-27" d="M1927.3,1926.3l-34.5-14.5-59,65.8-112.1-67.5-12.8,22.4,10.8-6.4-22.9,77.8,24.1-17s-37,68.9-36.8,68.4,28.9-28.3,28.9-28.3l-72.9,95.2s52.1-92.5,49.4-130.8c-8.2,12.7-108.1,154-108.1,154l21.1-12.9-76.4,90.7,34.5,66.5,149.5-99.8,214.4-245.8,2.8-17.7h0Z"/>
    <path class="cls-25" d="M2000,1893.7v291.3l-60.5,55-40.6,36.9-12.7,11.5-13.9,12.6h0s-17.9,16.3-17.9,16.3l-9.2,8.3s-27,4.9-58.7,10.4c-25.5,4.5-54.2,9.4-74.3,12.6-15.2,2.4-25.6,3.9-26.2,3.4-.1,0-.3-.3-.7-.6h0c-1.3-1.2-4.2-3.9-8.1-7.7,0,0,0,0,0,0-1.5-1.4-3.1-3-4.8-4.6-1.8-1.8-3.7-3.6-5.8-5.6-.6-.6-1.2-1.1-1.8-1.7-7.5-7.3-15.9-15.6-23.3-22.9-10.6-10.5-19.2-19.1-20.1-20.4-.7-.9-1.8-4.5-2.9-9.3-1.8-7.4-3.8-17.7-5.1-24.7,0,0,0,0,0,0-.9-4.8-1.5-8-1.5-8,1.4-1.1,2.9-2.1,4.3-3.2,2.5-1.9,5-3.7,7.5-5.6,3.7-2.8,7.3-5.6,10.9-8.4,14.1-11.1,28.1-22.7,41.9-34.8,19.3-16.9,38.1-34.6,56.6-52.9.3-.3.7-.7,1.1-1,.8-.8,1.5-1.5,2.3-2.3,1.6-1.5,3.1-3.1,4.6-4.6.2-.2.4-.4.6-.6,3-3,6-6,8.9-9.1,1.3-1.4,2.7-2.7,4-4.1,0,0,0,0,0,0,0,0,0,0,.1-.1.1-.1.3-.3.5-.5,0,0,.1-.1.2-.2s.2-.2.3-.3c.2-.2.5-.5.8-.8.3-.3.6-.6.9-1,.2-.2.4-.4.5-.6.2-.2.4-.5.7-.7.2-.2.5-.5.7-.8,2.4-2.5,4.9-5.1,7.3-7.6,0,0,0,0,.1-.1,2.2-2.3,4.5-4.7,6.7-7,.9-.9,1.8-1.9,2.7-2.9,2-2.1,3.9-4.2,5.9-6.3,2.9-3.1,5.7-6.2,8.6-9.3,4-4.4,8-8.8,12-13.1h0c0,0,0-.1.1-.2,0,0,0,0,0-.1.1-.1.3-.3.4-.5,2.3-2.5,4.5-5,6.8-7.6h0c1.3-1.5,2.6-3,3.9-4.4,1.8-2.1,3.7-4.2,5.5-6.2.8-.9,1.7-1.9,2.5-2.8.8-.9,1.7-1.9,2.5-2.8.2-.2.3-.4.5-.6,1.8-2.1,3.7-4.2,5.5-6.3.9-1.1,1.8-2.1,2.7-3.1.9-1,1.8-2.1,2.7-3.1,2-2.3,4.1-4.7,6.1-7,.9-1,1.8-2.1,2.7-3.1.7-.8,1.4-1.6,2.1-2.4,1.2-1.4,2.5-2.9,3.7-4.3,1.2-1.4,2.5-2.9,3.7-4.3,3.7-4.3,7.4-8.6,11-12.9,2.4-2.9,4.8-5.7,7.2-8.6,1.2-1.4,2.4-2.8,3.6-4.3h0c.7-.9,1.4-1.7,2.2-2.6,3.6-4.3,7.2-8.6,10.8-12.9,4.3-5.1,8.5-10.2,12.7-15.2,7.8-9.5,15.5-18.8,23-27.8,7.5-9.1,14.8-17.9,21.9-26.5,2.4-2.9,4.7-5.7,7.1-8.5.8-.9,1.6-1.9,2.3-2.8,2.3-2.8,4.6-5.5,6.8-8.2h0s0,0,0,0c0,0,0,0,0,0h0l3.3,1.3,3.5,1.4,30.3,11.9h0Z"/>
    <path class="cls-31" d="M1754.7,2119.5c.3-.3.6-.7,1-1-.4.5-.8.8-1,1Z"/>
    <path class="cls-32" d="M1755.7,2118.5c.3-.3.5-.5.8-.8-.3.3-.5.6-.8.8Z"/>
    <path class="cls-30" d="M1756.4,2117.7c.3-.3.6-.6.9-1-.3.3-.6.6-.9,1Z"/>
    <path class="cls-28" d="M1757.9,2116.1c6.8-7.1,23.4-24.7,44.7-48-14.6,16.1-29.5,32.2-44.7,48Z"/>
    <path class="cls-29" d="M1962.8,1879.1c-41.1,57-112.5,137.2-160.2,189.1,60.3-66.8,114.5-134.6,160.2-189.1h0Z"/>
    <polygon class="cls-11" points="1795.9 1882 1892.8 1911.8 1880.6 1925.4 1795.9 1882"/>
    <path class="cls-8" d="M1549.3,2029.1l-28.1,34.2-109.8,129.5,13.9,22s101.3-75.4,102-75.3,51.2-100.2,51.2-100.2l-8.4-11.1-20.8.9Z"/>
    <path class="cls-9" d="M2000,1890v411.5c-31.7,9.9-70.3,21.9-109.3,33.9-29.3,9.1-58.8,18.2-85.9,26.5-43.6,13.4-80.7,24.8-99.7,30.7-8.4,2.6-13.3,4.1-13.6,4.1l6.9-16,13.8-32.1.7-1.6h0l3.3-7.7,12.6-29.4,2.6-6.1,11-25.6.5-1.2,5.4-12.6.4-1,11.2-26.2,12.9-15.4,19.4-23.3,44.6-53.4,23.7-28.3.4-.5,59.2-70.9-6.4,4.9h0l-41.5,31.7,1.8-2.4h0l5.2-6.9,41.2-54.3-23.4,15.3c.3-.5,8.8-13.6,18.7-29,4.8-7.5,9.9-15.6,14.6-23,8.8-14,15.9-25.8,16.2-27.6-8.3-4.6-10.5-11.9-10.5-11.9,0,0,17-4,19.3-12.5.6-2.3,1.8-7.4,3.1-13.5,2.7-12.3,6.2-28.9,7.7-35.9.4-2.1.7-3.4.7-3.4l33.2,13h0Z"/>
    <path class="cls-10" d="M1713.2,2216.1s130.8-136.4,168.6-199c-10.3,46.6-13.6,67-13.6,67l47.9-36.6-146.3,174-56.7-5.4h0Z"/>
    <path class="cls-19" d="M1721.7,1910.1l-83,100.7-12,24.9-52.8,50.2,2.4-22.5,4.5-8.8c6.8-6.8,10.7-11,10.7-11l-6.1,24,136.3-157.4h0Z"/>
    <path class="cls-15" d="M1633.1,2007.3l-56.3-8.6-27.6,30.4,8.3,16.6,13.6-5.9-67.8,83.1,70.4-37.1s48.4-52.4,50.7-54.3c2.3-1.9,12.4-23.5,12.4-23.5l-3.8-.7h0Z"/>
  </g>
  <g>
    <path class="cls-13" d="M244.4,2032.4l112.7,151,23.7-83.1,65,105.2,63.3,52.5s87.2,13.4,74.8-40c-40.7-24.2-146.4-146.3-163.8-163.6-6.9-6.8-10.7-11-10.7-11l6.1,24-136.3-157.4-34.8,122.3h0Z"/>
    <path class="cls-12" d="M247.2,1947.7c-.1-1.5-42.2-65.7-42.2-65.7l-91.2,46.8,55.3,94.1,78.1-75.2h0Z"/>
    <path class="cls-18" d="M73.7,1926.3l34.5-14.5,59,65.8,112.1-67.5,12.8,22.4-10.8-6.4,22.9,77.8-24.1-17s37,68.9,36.8,68.4-28.9-28.3-28.9-28.3l72.9,95.2s-52.1-92.5-49.4-130.8c8.2,12.7,108.1,154,108.1,154l-21.1-12.9,76.4,90.7-34.5,66.5-149.5-99.8-214.4-245.8-2.8-17.7h0Z"/>
    <path class="cls-14" d="M389.1,2246.3s-.6,3.3-1.5,8h0c-1.3,7.1-3.3,17.3-5.1,24.8-1.1,4.8-2.2,8.5-2.9,9.4-.7.8-5.1,5.3-11.3,11.6-2.7,2.6-5.6,5.6-8.8,8.8-8,7.9-17.2,16.9-25.1,24.7-4.4,4.3-8.5,8.2-11.7,11.3-4.3,4.1-7.2,6.8-7.7,7.2-.4.3-4.6-.2-11.5-1.2-4.1-.6-9.1-1.4-14.8-2.3-8-1.3-17.3-2.8-27.2-4.5-46.3-7.8-105.9-18.5-105.9-18.5l-53.8-48.9-40.5-36.8-33.8-30.7-27.7-25.1v-290.1l31.2-12.2,3.5-1.4,3.3-1.3s0,0,0,0c2.3,2.7,4.5,5.4,6.8,8.2,1.5,1.9,3.1,3.7,4.7,5.6,1.6,1.9,3.2,3.9,4.9,5.9,4.1,5,8.3,10,12.5,15.1.8,1,1.6,2,2.4,2.9,1.5,1.8,2.9,3.5,4.4,5.3.8,1,1.6,2,2.4,3,.8.9,1.5,1.8,2.2,2.7,1.6,1.9,3.2,3.8,4.7,5.7,1.6,1.9,3.2,3.8,4.8,5.8,6.4,7.7,12.9,15.6,19.6,23.6.8.9,1.6,1.8,2.3,2.8,3.8,4.5,7.6,9.1,11.4,13.7,5.6,6.6,11.2,13.3,16.9,20,2.1,2.5,4.2,4.9,6.3,7.4s4.2,4.9,6.4,7.4c1.1,1.2,2.1,2.5,3.2,3.8.6.7,1.2,1.4,1.8,2.1.8,1,1.7,2,2.5,2.9,12.9,14.9,26.1,29.9,39.6,44.9,0,0,0,0,.1.1,2.9,3.2,5.8,6.4,8.8,9.6,1.4,1.6,2.9,3.2,4.4,4.8,2,2.2,4,4.3,6,6.5,1.5,1.6,3.1,3.3,4.6,4.9,3.5,3.7,7,7.4,10.5,11.1,1.6,1.7,3.2,3.4,4.8,5.1,2.1,2.2,4.2,4.4,6.2,6.5,0,0,.2.2.2.3,0,0,.1.1.2.2.2.2.3.3.5.5l.2.2c0,0,.1.1.2.2,0,0,.1.1.2.2,0,0,.1.1.2.2.2.2.4.4.6.6,0,0,.2.2.2.3,0,0,.1.1.1.1,0,0,0,0,.1.1h0c1.8,1.9,3.5,3.7,5.3,5.5,32.1,32.8,65.7,64.2,100.3,92.5h0c2.8,2.3,5.7,4.6,8.5,6.9,5.5,4.4,11.1,8.8,16.7,13,3.9,3,7.9,5.9,11.8,8.8h0Z"/>
    <path class="cls-21" d="M246.2,2119.5c-.3-.3-.6-.7-1-1,.4.5.8.8,1,1Z"/>
    <path class="cls-17" d="M245.3,2118.5c-.3-.3-.5-.5-.8-.8.3.3.5.6.8.8Z"/>
    <path class="cls-20" d="M244.5,2117.7c-.3-.3-.6-.6-.9-1,.3.3.6.6.9,1Z"/>
    <path class="cls-16" d="M243,2116.1c-6.8-7.1-23.4-24.7-44.7-48,14.6,16.1,29.5,32.2,44.7,48Z"/>
    <path class="cls-23" d="M38.1,1879.1c41,57,112.5,137.2,160.1,189.1-60.3-66.8-114.5-134.6-160.1-189.1h0Z"/>
    <polygon class="cls-7" points="205 1882 108.2 1911.8 120.4 1925.4 205 1882"/>
    <path class="cls-24" d="M451.6,2029.1l28,34.2,109.8,129.5-13.9,22s-101.3-75.4-102-75.3-51.2-100.2-51.2-100.2l8.4-11.1,20.8.9h0Z"/>
    <path class="cls-22" d="M309.5,2396.7s-32.1-9.8-77.7-23.9c0,0,0,0,0,0-8.3-2.6-17.1-5.3-26.3-8.1-.3-.1-.7-.2-1-.3h0c-6.9-2.1-14-4.3-21.2-6.5h0C122.5,2339.2,51.8,2317.4,0,2301.2v-410.9l34.1-13.3s.3,1.3.7,3.4c1.5,7,5,23.6,7.7,35.9,1.3,6.1,2.5,11.2,3.1,13.5,2.3,8.5,19.3,12.5,19.3,12.5,0,0-2.2,7.3-10.5,11.9.7,4.6,48.8,78.4,49.5,79.6l-23.4-15.3,16.6,21.8,29.8,39.3h0s1.8,2.4,1.8,2.4l-41.5-31.7h0l-6.4-4.9,97.5,116.7,49.8,59.6,12.9,15.4,11.7,27.2,5.9,13.6,13.6,31.8.5,1.2h0s14.8,34.4,14.8,34.4h0l1.3,3.1,20.7,48.2h0Z"/>
    <path class="cls-6" d="M287.8,2216.1s-130.8-136.4-168.6-199c10.3,46.6,13.6,67,13.6,67l-47.9-36.6,146.3,174,56.7-5.4h0Z"/>
    <path class="cls-2" d="M279.2,1910.1l83,100.7,12,24.9,52.8,50.2-2.4-22.5-4.5-8.8c-6.9-6.8-10.7-11-10.7-11l6.1,24-136.3-157.4h0Z"/>
    <path class="cls-4" d="M367.8,2007.3l56.3-8.6,27.6,30.4-8.3,16.6-13.6-5.9,67.8,83.1-70.4-37.1s-48.4-52.4-50.7-54.3c-2.3-1.9-12.4-23.5-12.4-23.5l3.8-.7h0Z"/>
  </g>
  <path class="cls-5" d="M2000,1977v299h-9.8c0,0-91.3.8-91.3.8l-26.2.2h-16.5c0,.1-28.2.4-28.2.4l-32,.3h-15.1c0,.1,0,.1,0,.1h-8.1c0,0-29,.3-29,.3h-1.4l-104.1.9h0l-19.8.2-42.8.4-20.3.2h0l-48.6.4h-17.6c0,.1-39.6.5-39.6.5l-38.7.3h-8.4c0,0-37.4.4-37.4.4v-86.3h1.3c0,0,6.8-.5,6.8-.5h.8c0,0,7.4-.5,7.4-.5l21.1-1.3,9.5-.6h2.3c0-.1,21.6-1.4,21.6-1.4,0,0,5.6-.9,13.7-2.3,1.5-.2,3-.5,4.6-.8h0c3.2-.6,6.6-1.2,10.2-1.9h0c2.1-.4,4.1-.8,6.2-1.2,5.1-1,10.2-2.1,15.1-3.3,7.9-1.9,15.1-3.9,20-5.8.4.1.7.2,1.1.4,4.9,1.7,11.3,3.2,18.1,4.6,12.2,2.5,25.4,4.4,32.7,5.4h0c3.6.5,5.7.7,5.7.7l4.8-1.9,9-3.6h0l15.7-6.3,1.3-.5,42.4-17h0l6-2.4,32.6-13.1,24.9-10,2.5-1,12.2-4.9h0l12.8-5.1,7.4,1h0l15.7,2.1,15.3,2h0l27,3.5h0l13,1.7,15.1-12,47.7-37.9,10.5-8.4,62.6-49.7,11.5-9.1,46.7-37.1h0Z"/>
  <path class="cls-3" d="M636.3,2195v86.3l-41-.4h0l-26.2-.2h0l-21.1-.2h-8.3c0,0,0,0,0,0l-88.7-.8h-5.2c0,0,0,0,0,0l-20.4-.2h-16.6c0-.1,0-.1,0-.1l-26.1-.2-19.7-.2-104.3-.9-31.4-.3h0l-125.2-1.1-37.8-.3h-16.9c0-.1-.8-.1-.8-.1l-46.4-.4v-314.7c0,0,97.1,79.2,97.1,79.2l32.5,26.6h0l78.4,64.1,1.3-.2,26.9-3.6,15.4-2.1,32.7-4.4,37.5,15.5,43.6,18,65.3,27h0l13,5.4s0,0,.2,0h0c3.1-.4,39.3-5,55.8-11,7.9,3.3,22.1,6.6,35.5,9.4h0c3.7.8,7.3,1.4,10.7,2.1,12.1,2.3,21.6,3.8,21.6,3.8l21.3,1.3,47.5,2.9h0Z"/>
</svg>