<?xml version="1.0" encoding="UTF-8"?>
<svg id="Layer_4" data-name="Layer 4" xmlns="http://www.w3.org/2000/svg" xmlns:xlink="http://www.w3.org/1999/xlink" version="1.1" viewBox="0 0 2000 3000">
  <defs>
    <style>
      .cls-1 {
        fill: url(#linear-gradient);
      }

      .cls-1, .cls-2, .cls-3, .cls-4, .cls-5 {
        stroke-width: 0px;
      }

      .cls-2 {
        fill: url(#linear-gradient-4);
      }

      .cls-3 {
        fill: url(#linear-gradient-2);
      }

      .cls-4 {
        fill: url(#linear-gradient-3);
      }

      .cls-5 {
        fill: #bcaaa9;
      }
    </style>
    <linearGradient id="linear-gradient" x1="1205.9" y1="805.2" x2="1205.9" y2="489.8" gradientTransform="translate(0 3000) scale(1 -1)" gradientUnits="userSpaceOnUse">
      <stop offset="0" stop-color="#0061e9"/>
      <stop offset=".3" stop-color="#0987ef"/>
      <stop offset=".8" stop-color="#18c7fa"/>
      <stop offset="1" stop-color="#1fe1ff"/>
    </linearGradient>
    <linearGradient id="linear-gradient-2" x1="1520.5" y1="666.3" x2="1541" y2="497.4" gradientTransform="translate(0 3000) scale(1 -1)" gradientUnits="userSpaceOnUse">
      <stop offset="0" stop-color="#162c89"/>
      <stop offset=".7" stop-color="#085cb7"/>
      <stop offset="1" stop-color="#0370ca"/>
    </linearGradient>
    <linearGradient id="linear-gradient-3" x1="463.6" y1="735.5" x2="381.9" y2="501.4" gradientTransform="translate(0 3000) scale(1 -1)" gradientUnits="userSpaceOnUse">
      <stop offset="0" stop-color="#0737b9"/>
      <stop offset="1" stop-color="#0099e6"/>
    </linearGradient>
    <linearGradient id="linear-gradient-4" x1="499.6" y1="779" x2="804" y2="517.6" gradientTransform="translate(0 3000) scale(1 -1)" gradientUnits="userSpaceOnUse">
      <stop offset="0" stop-color="#0737b9"/>
      <stop offset="1" stop-color="#0099e6"/>
    </linearGradient>
  </defs>
  <polygon class="cls-1" points="908.4 2337 672.2 2354.9 660.8 2402.2 762 2460.5 908.4 2496.2 1285.5 2416.2 1750.2 2340.9 1751 2339.3 908.4 2337"/>
  <path class="cls-3" d="M2000,2272.9v122.2l-33.1,6.5h0s-.4.1-.4.1l-59.1,11.6-44.7,8.8-15.5,3-59.4,11.6-53,10.4-42.8,8.4h0l-18.3,3.6h0l-8.4,1.6-29.1,5.7-77,15.1-22.1,4.3-40.6,8-7.9,1.5-34.2,6.7-132.1,25.9h-.1l-7.2,1.4h-.1s0,0,0,0h0s-69.6,13.7-69.6,13.7l-36.6,7.2-144.9,28.4,12.2-44.4,7.8-28.4h0s0-.2,0-.2l13.5-49.4,9.9-36.2.3-.9h0s54.5-9.4,122-35.3c6.1-2.4,12.3-4.8,18.6-7.5,6.9-2.9,14-6,21.1-9.2,18.4-8.4,37.1-18.1,55.5-29,18.5-11,36.6-23.4,53.5-37.3,12.7,2.7,26.1,5.5,39.8,8.4,13.2,2.8,26.7,5.6,40,8.5,12.2,2.6,24.4,5.1,36.1,7.6,2.3.5,4.7,1,7,1.5,20.9,4.4,40.3,8.5,56.4,12h.2c14.7,3.1,26.8,5.7,34.9,7.4,7.3,1.6,11.4,2.4,11.4,2.4l35.4-9.6,1.5-.4,12.7-3.4c3.9-1.1,7.8-2.2,11.7-3.4,1.5-.5,3-.9,4.5-1.4,21.4-6.9,42.2-15.8,62.2-26.6,1.1-.6,2.3-1.2,3.4-1.9,6.3-3.5,12.5-7.2,18.7-11,5.1-3.2,10.2-6.6,15.2-10.1l4.1-2.9,12.1-8.5,2.9.6,14.4,2.7,25.7,4.8,32.7,6.1,11.9,2.2h.3c0,0,13.4,2.6,13.4,2.6l8.6,1.6,52.4,9.8,20.2-16.3,22.8-7.3,9.8-3.2h0Z"/>
  <path class="cls-5" d="M908.4,2337l-510.4-7,13.8-66s46.3,12,60.1,33.8c15.2-4.7,79.6-20.2,79.6-20.2,0,0,211.9,38.5,356.9,59.4h0Z"/>
  <path class="cls-4" d="M672.2,2354.9l-11.3,47.4,1.9,1.1-90.4,24.4-122.4,33.1-6.8,1.8-42.7,11.5-8.1,2.2-7.4,2-91.1-54.4-110.7-66.1h0l-136.8-81.7-8.4-5s0,0,0,0l-38-22.7v-2.8l2.7-3.5,25-33,33.3-43.9,5-6.5,6.7-8.8s36.7.2,71.4,16.7c21.3,0,31.6-3.5,34.3-4.7.6-.2.8-.4.8-.4l1.7-.2,33.7-3.2,15.2,42.9,32.2,12,4.3,4.7,13,14.3,34.3,3.9,27.3-13.3,11.2-5.5h0l5.3-2.6,54.5,48.9s18,4.7,34.9,13.5c1.4.7,2.8,1.5,4.1,2.2,8.7,4.9,16.6,11,21.1,18.1,11.1-3.4,48.3-12.6,67.6-17.3,7.2-1.8,12-2.9,12-2.9h0c.5.1,6.8,1.2,17.5,3.1h0c53.6,9.6,219.4,38.9,339.4,56.3l-236.3,17.9h0Z"/>
  <path class="cls-2" d="M672.2,2354.9l-11.3,47.4,1.9,1.1-90.4,24.4-152.7-40.3,131.8-109.9h0c3.3.6,213,38.6,356.9,59.4l-236.3,17.9h0Z"/>
</svg>