<?xml version="1.0" encoding="UTF-8"?>
<svg id="Layer_4" data-name="Layer 4" xmlns="http://www.w3.org/2000/svg" xmlns:xlink="http://www.w3.org/1999/xlink" version="1.1" viewBox="0 0 2000 3000">
  <defs>
    <style>
      .cls-1 {
        fill: url(#linear-gradient);
      }

      .cls-1, .cls-2, .cls-3, .cls-4, .cls-5 {
        stroke-width: 0px;
      }

      .cls-2 {
        fill: url(#linear-gradient-4);
      }

      .cls-3 {
        fill: url(#linear-gradient-2);
      }

      .cls-4 {
        fill: url(#linear-gradient-3);
      }

      .cls-5 {
        fill: url(#linear-gradient-5);
      }
    </style>
    <linearGradient id="linear-gradient" x1="856" y1="2148.6" x2="1492.7" y2="1999.6" gradientTransform="translate(0 564)" gradientUnits="userSpaceOnUse">
      <stop offset="0" stop-color="#0188e0"/>
      <stop offset=".3" stop-color="#0083de"/>
      <stop offset="1" stop-color="#007edc"/>
    </linearGradient>
    <linearGradient id="linear-gradient-2" x1="615" y1="1854.9" x2="533.8" y2="2065.8" gradientTransform="translate(0 564)" gradientUnits="userSpaceOnUse">
      <stop offset="0" stop-color="#000851"/>
      <stop offset="0" stop-color="#010b56"/>
      <stop offset=".7" stop-color="#092581"/>
      <stop offset="1" stop-color="#0d3092"/>
    </linearGradient>
    <linearGradient id="linear-gradient-3" x1="1429.8" y1="2340" x2="1353" y2="1867.7" gradientTransform="translate(0 564)" gradientUnits="userSpaceOnUse">
      <stop offset="0" stop-color="#0d399f"/>
      <stop offset=".3" stop-color="#123499"/>
      <stop offset=".7" stop-color="#212788"/>
      <stop offset=".8" stop-color="#2c1f7e"/>
    </linearGradient>
    <linearGradient id="linear-gradient-4" x1="890.9" y1="2104.1" x2="2218.6" y2="1865" gradientTransform="translate(0 564)" gradientUnits="userSpaceOnUse">
      <stop offset="0" stop-color="#000851" stop-opacity="0"/>
      <stop offset="0" stop-color="#000" stop-opacity="0"/>
      <stop offset=".1" stop-color="#000" stop-opacity=".3"/>
      <stop offset=".2" stop-color="#000" stop-opacity=".5"/>
      <stop offset=".3" stop-color="#000" stop-opacity=".6"/>
      <stop offset=".4" stop-color="#000" stop-opacity=".8"/>
      <stop offset=".5" stop-color="#000" stop-opacity=".9"/>
      <stop offset=".6" stop-color="#000" stop-opacity=".9"/>
      <stop offset=".7" stop-color="#000" stop-opacity="1"/>
      <stop offset=".8" stop-color="#1fe1ff"/>
    </linearGradient>
    <linearGradient id="linear-gradient-5" x1="1010.6" y1="1958.6" x2="973.9" y2="2297.6" gradientTransform="translate(0 564)" gradientUnits="userSpaceOnUse">
      <stop offset="0" stop-color="#000851"/>
      <stop offset=".7" stop-color="#09247e"/>
      <stop offset="1" stop-color="#0d3092"/>
    </linearGradient>
  </defs>
  <path class="cls-1" d="M1607.3,2485.4s-583.4,188.9-825.4,134.8c20.4,116.1,193,174.4,193,174.4,0,0,621.7-176.4,625.7-178.7,3.9-2.3,6.8-130.5,6.8-130.5h0Z"/>
  <path class="cls-3" d="M340.5,2437.5s172.4,19.7,330.5,119.3c32.8,20.6,66.2,40.2,100.4,57.9,53.6,27.9,105.1,52.1,120.4,57.9-55.5,5.4-676.6-188-676.6-188l125.3-47.1h0Z"/>
  <path class="cls-4" d="M2000,2337.8v473.5H752.5h0l62.3-48.7,41.7-32.6,29.6-23.1h0l48-37.4c4.2,0,8.4-.1,12.6-.2,1.4,0,2.8,0,4.2-.1,2.5,0,5-.1,7.5-.2,2.8,0,5.6-.2,8.4-.3,4.6-.2,9.2-.4,13.8-.6,1.8,0,3.5-.2,5.2-.2,1.7,0,3.5-.2,5.2-.3,1.6,0,3.1-.2,4.7-.3,1.3,0,2.6-.1,3.9-.2.8,0,1.6-.1,2.4-.1,1.6,0,3.1-.2,4.7-.3.9,0,1.8-.1,2.7-.2,1.5-.1,3-.2,4.5-.3,1.1,0,2.2-.2,3.3-.2,2.7-.2,5.4-.4,8.1-.6,2.4-.2,4.8-.4,7.2-.6,2.2-.2,4.4-.4,6.6-.6.2,0,.4,0,.6,0,.6,0,1.2-.1,1.7-.2,1.1,0,2.2-.2,3.3-.3,4.2-.4,8.4-.8,12.6-1.2,2-.2,4.1-.4,6.1-.6,1-.1,1.9-.2,2.9-.3,1.5-.2,3-.3,4.5-.5s3-.3,4.4-.5c2.2-.3,4.4-.5,6.6-.8,2.5-.3,5-.6,7.6-1,2.1-.3,4.1-.5,6.1-.8,4.5-.6,8.9-1.2,13.4-1.9,2.1-.3,4.1-.6,6.2-.9,2.7-.4,5.3-.8,8-1.2.9-.1,1.9-.3,2.8-.4,2.9-.4,5.7-.9,8.5-1.4,2.4-.4,4.7-.8,7.1-1.2,1.5-.3,3-.5,4.4-.8,1.5-.3,2.9-.5,4.4-.8,1.5-.3,2.9-.5,4.4-.8,1.5-.3,2.9-.5,4.4-.8,1.5-.3,2.9-.6,4.4-.8,2.9-.6,5.8-1.1,8.7-1.7,1.4-.3,2.9-.6,4.3-.9.3,0,.6-.1.8-.2,1.8-.4,3.5-.7,5.3-1.1,1.4-.3,2.8-.6,4.3-.9,1.7-.4,3.5-.7,5.2-1.1,1.7-.4,3.4-.8,5.2-1.1,7.5-1.7,15-3.4,22.4-5.2,1.6-.4,3.1-.8,4.7-1.1,2.6-.6,5.2-1.3,7.8-1.9.5-.1,1-.3,1.6-.4,2.2-.5,4.3-1.1,6.5-1.6.7-.2,1.4-.4,2.1-.5,1.9-.5,3.8-1,5.7-1.5,1.6-.4,3.1-.8,4.6-1.2,3.2-.9,6.4-1.7,9.6-2.6,1.4-.4,2.9-.8,4.3-1.2,4-1.1,8-2.2,11.9-3.4,1.2-.4,2.4-.7,3.6-1,1.1-.3,2.2-.6,3.2-1,1.3-.4,2.6-.8,3.8-1.1,3.1-.9,6.2-1.9,9.2-2.8,11.4-3.5,22.7-7.1,33.9-10.9,1.6-.5,3.1-1,4.7-1.6,0,0,.1,0,.2,0,1-.3,2-.7,3-1s2-.7,3-1c2.1-.7,4.1-1.4,6.2-2.1,2.1-.7,4.1-1.4,6.2-2.1s4.1-1.4,6.1-2.2c1.3-.5,2.6-.9,3.9-1.4.7-.2,1.4-.5,2.1-.7,1.6-.6,3.2-1.2,4.8-1.8,5.7-2.1,11.4-4.2,17.1-6.4,1.4-.5,2.7-1,4.1-1.6,1-.4,2-.8,3-1.1,1-.4,2-.8,3-1.2,2.2-.9,4.5-1.7,6.8-2.6,2.2-.9,4.5-1.7,6.7-2.6,8.3-3.2,16.5-6.5,24.7-9.9,1.8-.7,3.5-1.4,5.3-2.2h0c.2,0,.4-.2.6-.2,3.6-1.5,7.2-3,10.8-4.5h0c1.3-.6,2.7-1.1,4-1.7h0c2.4-1,4.7-2,7.1-3s4.7-2,7.1-3c.3-.1.6-.2.9-.4,2.5-1.1,5-2.1,7.5-3.2,1.2-.5,2.3-1,3.5-1.5,4.8-2.1,9.7-4.2,14.6-6.3,4.8-2.1,9.7-4.2,14.5-6.3,3-1.3,6.1-2.7,9.1-4,3-1.3,6.1-2.7,9.1-4,4.7-2.1,9.4-4.2,14.1-6.3,5.6-2.5,11.2-5,16.8-7.5,2.4-1.1,4.9-2.2,7.3-3.3h0c1.7-.8,3.4-1.5,5.1-2.3h0c1.2-.6,2.4-1.1,3.7-1.6,9.5-4.3,19-8.6,28.6-12.9,3.2-1.4,6.3-2.8,9.5-4.3,0,0,0,0,0,0h0s0,0,0,0h0s0,0,0,0c0,0,.2-.1.3-.1.5-.2,1.1-.5,1.6-.7h0s0,0,0,0c1.7-.8,3.3-1.5,5-2.3,4.8-2.2,9.6-4.3,14.4-6.5.2-.1.4-.2.6-.3.3-.1.6-.2.8-.4,1.9-.9,3.8-1.7,5.8-2.6,6.9-3.1,13.9-6.2,20.8-9.3,1.6-.7,3.1-1.4,4.7-2.1.8-.3,1.5-.7,2.3-1h0c.3-.1.5-.2.8-.4,6.2-2.7,12.4-5.5,18.7-8.2,3.1-1.3,6.2-2.7,9.3-4,8.6-3.7,17.3-7.5,26.1-11.2,1.8-.8,3.6-1.5,5.4-2.3,1.6-.7,3.2-1.4,4.9-2.1,3.8-1.6,7.5-3.1,11.3-4.7,2.6-1.1,5.1-2.1,7.7-3.2,1.9-.8,3.9-1.6,5.9-2.4,1.5-.6,3-1.2,4.5-1.8,3.2-1.3,6.5-2.6,9.7-4,1.9-.8,3.9-1.6,5.8-2.3,4.5-1.8,9-3.6,13.5-5.4h0c7.8-3.1,15.8-6.2,23.7-9.2,2.2-.9,4.5-1.7,6.8-2.6.4-.2.9-.3,1.3-.5,8.1-3.1,16.3-6.1,24.6-9.2,1.4-.5,2.8-1,4.2-1.5.5-.2,1-.4,1.5-.6,3-1.1,6.1-2.2,9.1-3.3,2.8-1,5.5-2,8.3-3,1.5-.5,3-1.1,4.4-1.6,2.6-.9,5.1-1.8,7.7-2.7,15.9-5.5,32.2-11,48.8-16.3q7.4-2.4,0,0h0c.3,0,.5-.2.8-.3.2,0,.5-.2.8-.2,19.8-6.3,40.1-12.4,60.9-18.4h0Z"/>
  <path class="cls-2" d="M1939.1,2356.2c-372.8,122.6-574.7,322.6-997,328.4l-162.3,126.7h-27.4l181.6-141.8c425.8-5.9,626.5-192.6,1005-313.3h0Z"/>
  <path class="cls-5" d="M2000,2606.9v393.1H0v-759.1s0,0,0,0c.7.3,1.5.8,2.6,1.3.1,0,.2.1.3.2.3.2.6.3,1,.5.3.2.7.4,1,.6.4.2.7.4,1.1.6,1.1.6,2.3,1.2,3.6,2,.6.3,1.1.6,1.7.9.2.1.5.3.8.4.5.3,1,.6,1.6.9.1,0,.2.1.3.2.9.5,1.7.9,2.6,1.5,0,0,0,0,.1,0,1,.5,1.9,1.1,3,1.6,2.3,1.2,4.7,2.6,7.3,4,1.1.6,2.2,1.2,3.4,1.9,1.9,1.1,3.9,2.2,6,3.4.6.3,1.1.6,1.7.9.6.4,1.3.7,1.9,1.1,1.7.9,3.5,1.9,5.2,2.9,1.3.8,2.7,1.5,4.1,2.3s2.8,1.6,4.2,2.4c1,.5,1.9,1.1,2.9,1.6.2.1.4.2.6.3,1.7.9,3.4,1.9,5.1,2.9.6.3,1.2.6,1.7,1h0c.1,0,.3.1.4.2,1.7.9,3.3,1.9,5.1,2.9.9.5,1.7,1,2.6,1.5,1.7,1,3.5,2,5.3,3,7.1,4,14.7,8.3,22.5,12.8,3.6,2.1,7.3,4.1,11,6.3,3.8,2.2,7.7,4.4,11.6,6.6,2.6,1.5,5.3,3,8,4.6,4.4,2.5,8.9,5.1,13.5,7.7,2.2,1.3,4.4,2.6,6.7,3.9,1.1.6,2.2,1.3,3.4,1.9,3.4,2,6.8,3.9,10.3,5.9,3.5,2,7,4,10.5,6.1,5.9,3.4,11.8,6.8,17.8,10.3,2.1,1.2,4.3,2.5,6.5,3.8,2.6,1.5,5.1,3,7.7,4.5,5,2.9,10.1,5.9,15.1,8.9,1.8,1,3.5,2.1,5.3,3.1,1.4.9,2.9,1.7,4.4,2.6,0,0,0,0,0,0,1.7,1,3.5,2,5.2,3.1,2.5,1.5,5,2.9,7.6,4.4,9.7,5.7,19.4,11.5,29.3,17.3,1.6.9,3.2,1.9,4.8,2.8.1,0,.2.1.3.2,2.6,1.5,5.1,3.1,7.7,4.6,10.5,6.2,21,12.5,31.4,18.8,1.2.7,2.5,1.5,3.7,2.2,1.6,1,3.2,1.9,4.8,2.9,4.7,2.8,9.3,5.6,14,8.4h0s0,0,0,0c4.4,2.6,8.7,5.3,13.1,7.9,3.7,2.2,7.3,4.4,11,6.7,1.6.9,3.1,1.9,4.7,2.9,3.5,2.2,7.1,4.3,10.6,6.5,3.3,2,6.5,4,9.8,6,3.6,2.2,7.2,4.4,10.8,6.7,6.1,3.7,12.1,7.5,18,11.2,6.9,4.3,13.6,8.5,20.3,12.7,3.2,2,6.3,4,9.4,6,.3.2.6.4,1,.6,2,1.3,4,2.5,6,3.8,3.6,2.3,7.2,4.5,10.8,6.7,1.2.7,2.4,1.5,3.6,2.2,1.2.7,2.4,1.5,3.6,2.2,1.2.7,2.4,1.4,3.6,2.2,1.3.8,2.6,1.5,3.9,2.3,1.9,1.1,3.9,2.2,5.8,3.4.8.5,1.6.9,2.5,1.4.8.5,1.6.9,2.4,1.4.3.2.5.3.8.5.7.4,1.5.8,2.2,1.2,5.2,2.9,10.5,5.8,15.8,8.5,1.4.8,2.9,1.5,4.3,2.2,1.3.7,2.7,1.4,4,2.1,4.9,2.5,9.9,5,14.8,7.4,1.6.8,3.3,1.6,4.9,2.4,1.6.8,3.2,1.5,4.7,2.2,1.9.9,3.8,1.8,5.8,2.6.3.1.6.3.9.4,1.9.9,3.8,1.7,5.7,2.6,2.1.9,4.1,1.8,6.2,2.7,2.1.9,4.2,1.8,6.2,2.7,1.8.8,3.7,1.6,5.6,2.3,3.7,1.5,7.4,3,11.2,4.5.7.2,1.3.5,2,.8,1.8.7,3.7,1.4,5.5,2.1,2,.8,4,1.5,6.1,2.3,1,.4,1.9.7,2.8,1.1.3.1.6.2.9.3,1.3.5,2.7,1,4.1,1.4.2,0,.4.1.6.2.2,0,.4.1.6.2.5.2.9.3,1.4.5,1.2.4,2.5.9,3.7,1.3,2.1.7,4.2,1.4,6.3,2.1.3,0,.5.2.8.3,0,0,.1,0,.2,0,0,0,0,0,.2,0,1.7.6,3.4,1.1,5.2,1.7,1.7.6,3.4,1.1,5.2,1.6,53.2,16.8,105,31.8,155.6,45,18.2,4.7,36.2,9.2,54.1,13.5h0c31.8,7.6,63.3,14.4,94.4,20.5,23.9,4.7,47.6,8.9,71.1,12.7h0c55.8,9,110.8,15.5,165.5,19.4,10.4.8,20.8,1.4,31.2,2,4,.2,7.9.4,11.9.6,24.2,1.2,48.4,1.8,72.7,1.9h0c60.2.4,120.4-2.4,181.5-8.3,112.6-10.9,228.1-32.6,351.1-65.2,12.6-3.4,25.4-6.8,38.2-10.4l76.1-8.1,66.7-7.1h0Z"/>
</svg>