<?xml version="1.0" encoding="UTF-8"?>
<svg id="Layer_4" data-name="Layer 4" xmlns="http://www.w3.org/2000/svg" xmlns:xlink="http://www.w3.org/1999/xlink" version="1.1" viewBox="0 0 2000 3000">
  <defs>
    <style>
      .cls-1 {
        fill: url(#radial-gradient);
      }

      .cls-1, .cls-2, .cls-3, .cls-4, .cls-5, .cls-6, .cls-7, .cls-8, .cls-9, .cls-10, .cls-11, .cls-12, .cls-13, .cls-14, .cls-15, .cls-16, .cls-17, .cls-18, .cls-19, .cls-20, .cls-21, .cls-22, .cls-23, .cls-24, .cls-25, .cls-26, .cls-27, .cls-28 {
        stroke-width: 0px;
      }

      .cls-2 {
        fill: url(#radial-gradient-24);
      }

      .cls-3 {
        fill: url(#radial-gradient-28);
      }

      .cls-4 {
        fill: url(#radial-gradient-23);
      }

      .cls-5 {
        fill: url(#radial-gradient-26);
      }

      .cls-6 {
        fill: url(#radial-gradient-27);
      }

      .cls-7 {
        fill: url(#radial-gradient-22);
      }

      .cls-8 {
        fill: url(#radial-gradient-25);
      }

      .cls-9 {
        fill: url(#radial-gradient-20);
      }

      .cls-10 {
        fill: url(#radial-gradient-21);
      }

      .cls-11 {
        fill: url(#radial-gradient-14);
      }

      .cls-12 {
        fill: url(#radial-gradient-13);
      }

      .cls-13 {
        fill: url(#radial-gradient-12);
      }

      .cls-14 {
        fill: url(#radial-gradient-15);
      }

      .cls-15 {
        fill: url(#radial-gradient-16);
      }

      .cls-16 {
        fill: url(#radial-gradient-11);
      }

      .cls-17 {
        fill: url(#radial-gradient-19);
      }

      .cls-18 {
        fill: url(#radial-gradient-18);
      }

      .cls-19 {
        fill: url(#radial-gradient-17);
      }

      .cls-20 {
        fill: url(#radial-gradient-10);
      }

      .cls-21 {
        fill: url(#radial-gradient-2);
      }

      .cls-22 {
        fill: url(#radial-gradient-3);
      }

      .cls-23 {
        fill: url(#radial-gradient-4);
      }

      .cls-24 {
        fill: url(#radial-gradient-6);
      }

      .cls-25 {
        fill: url(#radial-gradient-9);
      }

      .cls-26 {
        fill: url(#radial-gradient-8);
      }

      .cls-27 {
        fill: url(#radial-gradient-5);
      }

      .cls-28 {
        fill: url(#radial-gradient-7);
      }

      .cls-29 {
        isolation: isolate;
      }
    </style>
    <radialGradient id="radial-gradient" cx="270.4" cy="2415.8" fx="270.4" fy="2415.8" r="6.8" gradientTransform="translate(0 3000) scale(1 -1)" gradientUnits="userSpaceOnUse">
      <stop offset="0" stop-color="#fff"/>
      <stop offset="1" stop-color="#66dcff"/>
    </radialGradient>
    <radialGradient id="radial-gradient-2" cx="1851.4" cy="2727.4" fx="1851.4" fy="2727.4" r="6.8" gradientTransform="translate(0 3000) scale(1 -1)" gradientUnits="userSpaceOnUse">
      <stop offset="0" stop-color="#fff"/>
      <stop offset="1" stop-color="#66dcff"/>
    </radialGradient>
    <radialGradient id="radial-gradient-3" cx="1325" cy="2322.8" fx="1325" fy="2322.8" r="6.8" gradientTransform="translate(0 3000) scale(1 -1)" gradientUnits="userSpaceOnUse">
      <stop offset="0" stop-color="#fff"/>
      <stop offset="1" stop-color="#66dcff"/>
    </radialGradient>
    <radialGradient id="radial-gradient-4" cx="1822.3" cy="2007.5" fx="1822.3" fy="2007.5" r="6.8" gradientTransform="translate(0 3000) scale(1 -1)" gradientUnits="userSpaceOnUse">
      <stop offset="0" stop-color="#fff"/>
      <stop offset="1" stop-color="#66dcff"/>
    </radialGradient>
    <radialGradient id="radial-gradient-5" cx="483.1" cy="1995.6" fx="483.1" fy="1995.6" r="6.8" gradientTransform="translate(0 3000) scale(1 -1)" gradientUnits="userSpaceOnUse">
      <stop offset="0" stop-color="#fff"/>
      <stop offset="1" stop-color="#66dcff"/>
    </radialGradient>
    <radialGradient id="radial-gradient-6" cx="977.4" cy="2667" fx="977.4" fy="2667" r="6.8" gradientTransform="translate(0 3000) scale(1 -1)" gradientUnits="userSpaceOnUse">
      <stop offset="0" stop-color="#fff"/>
      <stop offset="1" stop-color="#66dcff"/>
    </radialGradient>
    <radialGradient id="radial-gradient-7" cx="364.2" cy="2611.4" fx="364.2" fy="2611.4" r="20" gradientTransform="translate(0 3000) scale(1 -1)" gradientUnits="userSpaceOnUse">
      <stop offset="0" stop-color="#fff"/>
      <stop offset="1" stop-color="#66dcff"/>
    </radialGradient>
    <radialGradient id="radial-gradient-8" cx="95.5" cy="2101.1" fx="95.5" fy="2101.1" r="14.1" gradientTransform="translate(0 3000) scale(1 -1)" gradientUnits="userSpaceOnUse">
      <stop offset="0" stop-color="#fff"/>
      <stop offset="1" stop-color="#66dcff"/>
    </radialGradient>
    <radialGradient id="radial-gradient-9" cx="1043.7" cy="2003.7" fx="1043.7" fy="2003.7" r="20" gradientTransform="translate(0 3000) scale(1 -1)" gradientUnits="userSpaceOnUse">
      <stop offset="0" stop-color="#fff"/>
      <stop offset="1" stop-color="#66dcff"/>
    </radialGradient>
    <radialGradient id="radial-gradient-10" cx="1347.2" cy="2557.9" fx="1347.2" fy="2557.9" r="14.7" gradientTransform="translate(0 3000) scale(1 -1)" gradientUnits="userSpaceOnUse">
      <stop offset="0" stop-color="#fff"/>
      <stop offset="1" stop-color="#66dcff"/>
    </radialGradient>
    <radialGradient id="radial-gradient-11" cx="1618.6" cy="2403.4" fx="1618.6" fy="2403.4" r="24.8" gradientTransform="translate(0 3000) scale(1 -1)" gradientUnits="userSpaceOnUse">
      <stop offset="0" stop-color="#fff"/>
      <stop offset="1" stop-color="#66dcff"/>
    </radialGradient>
    <radialGradient id="radial-gradient-12" cx="205.2" cy="1587.6" fx="205.2" fy="1587.6" r="20" gradientTransform="translate(0 3000) scale(1 -1)" gradientUnits="userSpaceOnUse">
      <stop offset="0" stop-color="#fff"/>
      <stop offset="1" stop-color="#66dcff"/>
    </radialGradient>
    <radialGradient id="radial-gradient-13" cx="499.6" cy="2846.8" fx="499.6" fy="2846.8" r="6.8" gradientTransform="translate(0 3000) scale(1 -1)" gradientUnits="userSpaceOnUse">
      <stop offset="0" stop-color="#fff"/>
      <stop offset="1" stop-color="#66dcff"/>
    </radialGradient>
    <radialGradient id="radial-gradient-14" cx="121.8" cy="2684.2" fx="121.8" fy="2684.2" r="6.8" gradientTransform="translate(0 3000) scale(1 -1)" gradientUnits="userSpaceOnUse">
      <stop offset="0" stop-color="#fff"/>
      <stop offset="1" stop-color="#66dcff"/>
    </radialGradient>
    <radialGradient id="radial-gradient-15" cx="1618.4" cy="2830.2" fx="1618.4" fy="2830.2" r="6.8" gradientTransform="translate(0 3000) scale(1 -1)" gradientUnits="userSpaceOnUse">
      <stop offset="0" stop-color="#fff"/>
      <stop offset="1" stop-color="#66dcff"/>
    </radialGradient>
    <radialGradient id="radial-gradient-16" cx="1684.9" cy="2625.5" fx="1684.9" fy="2625.5" r="6.8" gradientTransform="translate(0 3000) scale(1 -1)" gradientUnits="userSpaceOnUse">
      <stop offset="0" stop-color="#fff"/>
      <stop offset="1" stop-color="#66dcff"/>
    </radialGradient>
    <radialGradient id="radial-gradient-17" cx="1124.9" cy="2484.5" fx="1124.9" fy="2484.5" r="6.8" gradientTransform="translate(0 3000) scale(1 -1)" gradientUnits="userSpaceOnUse">
      <stop offset="0" stop-color="#fff"/>
      <stop offset="1" stop-color="#66dcff"/>
    </radialGradient>
    <radialGradient id="radial-gradient-18" cx="721.8" cy="2267.5" fx="721.8" fy="2267.5" r="6.8" gradientTransform="translate(0 3000) scale(1 -1)" gradientUnits="userSpaceOnUse">
      <stop offset="0" stop-color="#fff"/>
      <stop offset="1" stop-color="#66dcff"/>
    </radialGradient>
    <radialGradient id="radial-gradient-19" cx="1518.8" cy="2084" fx="1518.8" fy="2084" r="6.8" gradientTransform="translate(0 3000) scale(1 -1)" gradientUnits="userSpaceOnUse">
      <stop offset="0" stop-color="#fff"/>
      <stop offset="1" stop-color="#66dcff"/>
    </radialGradient>
    <radialGradient id="radial-gradient-20" cx="1892.8" cy="2290.1" fx="1892.8" fy="2290.1" r="6.8" gradientTransform="translate(0 3000) scale(1 -1)" gradientUnits="userSpaceOnUse">
      <stop offset="0" stop-color="#fff"/>
      <stop offset="1" stop-color="#66dcff"/>
    </radialGradient>
    <radialGradient id="radial-gradient-21" cx="1734.9" cy="1702.5" fx="1734.9" fy="1702.5" r="6.8" gradientTransform="translate(0 3000) scale(1 -1)" gradientUnits="userSpaceOnUse">
      <stop offset="0" stop-color="#fff"/>
      <stop offset="1" stop-color="#66dcff"/>
    </radialGradient>
    <radialGradient id="radial-gradient-22" cx="1060" cy="2227" fx="1060" fy="2227" r="6.8" gradientTransform="translate(0 3000) scale(1 -1)" gradientUnits="userSpaceOnUse">
      <stop offset="0" stop-color="#fff"/>
      <stop offset="1" stop-color="#66dcff"/>
    </radialGradient>
    <radialGradient id="radial-gradient-23" cx="1254.6" cy="1840.5" fx="1254.6" fy="1840.5" r="6.8" gradientTransform="translate(0 3000) scale(1 -1)" gradientUnits="userSpaceOnUse">
      <stop offset="0" stop-color="#fff"/>
      <stop offset="1" stop-color="#66dcff"/>
    </radialGradient>
    <radialGradient id="radial-gradient-24" cx="870.9" cy="1969.8" fx="870.9" fy="1969.8" r="6.8" gradientTransform="translate(0 3000) scale(1 -1)" gradientUnits="userSpaceOnUse">
      <stop offset="0" stop-color="#fff"/>
      <stop offset="1" stop-color="#66dcff"/>
    </radialGradient>
    <radialGradient id="radial-gradient-25" cx="491.3" cy="2549.4" fx="491.3" fy="2549.4" r="6.8" gradientTransform="translate(0 3000) scale(1 -1)" gradientUnits="userSpaceOnUse">
      <stop offset="0" stop-color="#fff"/>
      <stop offset="1" stop-color="#66dcff"/>
    </radialGradient>
    <radialGradient id="radial-gradient-26" cx="254.7" cy="2143.2" fx="254.7" fy="2143.2" r="12.9" gradientTransform="translate(0 3000) scale(1 -1)" gradientUnits="userSpaceOnUse">
      <stop offset="0" stop-color="#fff"/>
      <stop offset="1" stop-color="#66dcff"/>
    </radialGradient>
    <radialGradient id="radial-gradient-27" cx="419.8" cy="2306.4" fx="419.8" fy="2306.4" r="13.4" gradientTransform="translate(0 3000) scale(1 -1)" gradientUnits="userSpaceOnUse">
      <stop offset="0" stop-color="#fff"/>
      <stop offset="1" stop-color="#66dcff"/>
    </radialGradient>
    <radialGradient id="radial-gradient-28" cx="229.4" cy="1840.5" fx="229.4" fy="1840.5" r="8.4" gradientTransform="translate(0 3000) scale(1 -1)" gradientUnits="userSpaceOnUse">
      <stop offset="0" stop-color="#fff"/>
      <stop offset="1" stop-color="#66dcff"/>
    </radialGradient>
  </defs>
  <g>
    <image class="cls-29" width="90" height="90" transform="translate(225.4 539.4)" xlink:href="stars-1.png"/>
    <path class="cls-1" d="M270.3,592.4h0c0-4.6-3.7-8.3-8.3-8.3h0c4.6,0,8.3-3.7,8.3-8.3h0c0,4.6,3.7,8.3,8.3,8.3h0c-4.6,0-8.3,3.7-8.3,8.3Z"/>
  </g>
  <g>
    <image class="cls-29" width="90" height="90" transform="translate(1806.4 227.4)" xlink:href="stars-2.png"/>
    <path class="cls-21" d="M1851.4,280.8h0c0-4.6-3.7-8.3-8.3-8.3h0c4.6,0,8.3-3.7,8.3-8.3h0c0,4.6,3.7,8.3,8.3,8.3h0c-4.6,0-8.3,3.7-8.3,8.3Z"/>
  </g>
  <g>
    <image class="cls-29" width="89" height="90" transform="translate(1280.4 632.4)" xlink:href="stars-3.png"/>
    <path class="cls-22" d="M1324.9,685.5h0c0-4.6-3.7-8.3-8.3-8.3h0c4.6,0,8.3-3.7,8.3-8.3h0c0,4.6,3.7,8.3,8.3,8.3h0c-4.6,0-8.3,3.7-8.3,8.3Z"/>
  </g>
  <g>
    <image class="cls-29" width="90" height="90" transform="translate(1777.4 947.4)" xlink:href="stars-4.png"/>
    <path class="cls-23" d="M1822.3,1000.7h0c0-4.6-3.7-8.3-8.3-8.3h0c4.6,0,8.3-3.7,8.3-8.3h0c0,4.6,3.7,8.3,8.3,8.3h0c-4.6,0-8.3,3.7-8.3,8.3Z"/>
  </g>
  <g>
    <image class="cls-29" width="89" height="90" transform="translate(438.4 959.4)" xlink:href="stars-5.png"/>
    <path class="cls-27" d="M483,1012.7h0c0-4.6-3.7-8.3-8.3-8.3h0c4.6,0,8.3-3.7,8.3-8.3h0c0,4.6,3.7,8.3,8.3,8.3h0c-4.6,0-8.3,3.7-8.3,8.3Z"/>
  </g>
  <g>
    <image class="cls-29" width="90" height="89" transform="translate(932.4 288.4)" xlink:href="stars-6.png"/>
    <path class="cls-24" d="M977.4,341.2h0c0-4.6-3.7-8.3-8.3-8.3h0c4.6,0,8.3-3.7,8.3-8.3h0c0,4.6,3.7,8.3,8.3,8.3h0c-4.6,0-8.3,3.7-8.3,8.3Z"/>
  </g>
  <g>
    <image class="cls-29" width="121" height="122" transform="translate(303.4 327.4)" xlink:href="stars-7.png"/>
    <path class="cls-28" d="M364,412.8h0c0-13.4-10.9-24.3-24.3-24.3h0c13.4,0,24.3-10.9,24.3-24.3h0c0,13.4,10.9,24.3,24.3,24.3h0c-13.4,0-24.3,10.9-24.3,24.3Z"/>
  </g>
  <g>
    <image class="cls-29" width="108" height="107" transform="translate(41.4 845.4)" xlink:href="stars-8.png"/>
    <path class="cls-26" d="M95.4,915.9h0c0-9.5-7.7-17.1-17.1-17.1h0c9.5,0,17.1-7.7,17.1-17.1h0c0,9.5,7.7,17.1,17.1,17.1h0c-9.5,0-17.1,7.7-17.1,17.1Z"/>
  </g>
  <g>
    <image class="cls-29" width="122" height="122" transform="translate(982.4 935.4)" xlink:href="stars-9.png"/>
    <path class="cls-25" d="M1043.5,1020.4h0c0-13.4-10.9-24.3-24.3-24.3h0c13.4,0,24.3-10.9,24.3-24.3h0c0,13.4,10.9,24.3,24.3,24.3h0c-13.4,0-24.3,10.9-24.3,24.3Z"/>
  </g>
  <g>
    <image class="cls-29" width="109" height="109" transform="translate(1292.4 387.4)" xlink:href="stars-10.png"/>
    <path class="cls-20" d="M1347.1,459.8h0c0-9.9-8-17.9-17.9-17.9h0c9.9,0,17.9-8,17.9-17.9h0c0,9.9,8,17.9,17.9,17.9h0c-9.9,0-17.9,8-17.9,17.9h0Z"/>
  </g>
  <g>
    <image class="cls-29" width="134" height="134" transform="translate(1551.4 529.4)" xlink:href="stars-11.png"/>
    <path class="cls-16" d="M1618.4,626.5h0c0-16.6-13.5-30.1-30.1-30.1h0c16.6,0,30.1-13.5,30.1-30.1h0c0,16.6,13.5,30.1,30.1,30.1h0c-16.6,0-30.1,13.5-30.1,30.1Z"/>
  </g>
  <g>
    <image class="cls-29" width="121" height="122" transform="translate(144.4 1351.4)" xlink:href="stars-12.png"/>
    <path class="cls-13" d="M205,1436.5h0c0-13.4-10.9-24.3-24.3-24.3h0c13.4,0,24.3-10.9,24.3-24.3h0c0,13.4,10.9,24.3,24.3,24.3h0c-13.4,0-24.3,10.9-24.3,24.3Z"/>
  </g>
  <g>
    <image class="cls-29" width="90" height="90" transform="translate(454.4 108.4)" xlink:href="stars-13.png"/>
    <path class="cls-12" d="M499.5,161.4h0c0-4.6-3.7-8.3-8.3-8.3h0c4.6,0,8.3-3.7,8.3-8.3h0c0,4.6,3.7,8.3,8.3,8.3h0c-4.6,0-8.3,3.7-8.3,8.3Z"/>
  </g>
  <g>
    <image class="cls-29" width="89" height="89" transform="translate(77.4 271.4)" xlink:href="stars-14.png"/>
    <path class="cls-11" d="M121.8,324h0c0-4.6-3.7-8.3-8.3-8.3h0c4.6,0,8.3-3.7,8.3-8.3h0c0,4.6,3.7,8.3,8.3,8.3h0c-4.6,0-8.3,3.7-8.3,8.3Z"/>
  </g>
  <g>
    <image class="cls-29" width="90" height="89" transform="translate(1573.4 125.4)" xlink:href="stars-15.png"/>
    <path class="cls-14" d="M1618.4,178h0c0-4.6-3.7-8.3-8.3-8.3h0c4.6,0,8.3-3.7,8.3-8.3h0c0,4.6,3.7,8.3,8.3,8.3h0c-4.6,0-8.3,3.7-8.3,8.3Z"/>
  </g>
  <g>
    <image class="cls-29" width="89" height="90" transform="translate(1640.4 329.4)" xlink:href="stars-16.png"/>
    <path class="cls-15" d="M1684.9,382.7h0c0-4.6-3.7-8.3-8.3-8.3h0c4.6,0,8.3-3.7,8.3-8.3h0c0,4.6,3.7,8.3,8.3,8.3h0c-4.6,0-8.3,3.7-8.3,8.3Z"/>
  </g>
  <g>
    <image class="cls-29" width="89" height="90" transform="translate(1080.4 470.4)" xlink:href="stars-17.png"/>
    <path class="cls-19" d="M1124.9,523.7h0c0-4.6-3.7-8.3-8.3-8.3h0c4.6,0,8.3-3.7,8.3-8.3h0c0,4.6,3.7,8.3,8.3,8.3h0c-4.6,0-8.3,3.7-8.3,8.3Z"/>
  </g>
  <g>
    <image class="cls-29" width="89" height="90" transform="translate(677.4 687.4)" xlink:href="stars-18.png"/>
    <path class="cls-18" d="M721.7,740.7h0c0-4.6-3.7-8.3-8.3-8.3h0c4.6,0,8.3-3.7,8.3-8.3h0c0,4.6,3.7,8.3,8.3,8.3h0c-4.6,0-8.3,3.7-8.3,8.3Z"/>
  </g>
  <g>
    <image class="cls-29" width="89" height="89" transform="translate(1474.4 871.4)" xlink:href="stars-19.png"/>
    <path class="cls-17" d="M1518.8,924.2h0c0-4.6-3.7-8.3-8.3-8.3h0c4.6,0,8.3-3.7,8.3-8.3h0c0,4.6,3.7,8.3,8.3,8.3h0c-4.6,0-8.3,3.7-8.3,8.3Z"/>
  </g>
  <g>
    <image class="cls-29" width="89" height="89" transform="translate(1848.4 665.4)" xlink:href="stars-20.png"/>
    <path class="cls-9" d="M1892.8,718.1h0c0-4.6-3.7-8.3-8.3-8.3h0c4.6,0,8.3-3.7,8.3-8.3h0c0,4.6,3.7,8.3,8.3,8.3h0c-4.6,0-8.3,3.7-8.3,8.3Z"/>
  </g>
  <g>
    <image class="cls-29" width="89" height="90" transform="translate(1690.4 1252.4)" xlink:href="stars-21.png"/>
    <path class="cls-10" d="M1734.8,1305.7h0c0-4.6-3.7-8.3-8.3-8.3h0c4.6,0,8.3-3.7,8.3-8.3h0c0,4.6,3.7,8.3,8.3,8.3h0c-4.6,0-8.3,3.7-8.3,8.3Z"/>
  </g>
  <g>
    <image class="cls-29" width="89" height="89" transform="translate(1015.4 728.4)" xlink:href="stars-22.png"/>
    <path class="cls-7" d="M1059.9,781.2h0c0-4.6-3.7-8.3-8.3-8.3h0c4.6,0,8.3-3.7,8.3-8.3h0c0,4.6,3.7,8.3,8.3,8.3h0c-4.6,0-8.3,3.7-8.3,8.3Z"/>
  </g>
  <g>
    <image class="cls-29" width="90" height="90" transform="translate(1209.4 1114.4)" xlink:href="stars-23.png"/>
    <path class="cls-4" d="M1254.5,1167.7h0c0-4.6-3.7-8.3-8.3-8.3h0c4.6,0,8.3-3.7,8.3-8.3h0c0,4.6,3.7,8.3,8.3,8.3h0c-4.6,0-8.3,3.7-8.3,8.3Z"/>
  </g>
  <g>
    <image class="cls-29" width="89" height="89" transform="translate(826.4 985.4)" xlink:href="stars-24.png"/>
    <path class="cls-2" d="M870.9,1038.4h0c0-4.6-3.7-8.3-8.3-8.3h0c4.6,0,8.3-3.7,8.3-8.3h0c0,4.6,3.7,8.3,8.3,8.3h0c-4.6,0-8.3,3.7-8.3,8.3Z"/>
  </g>
  <g>
    <image class="cls-29" width="90" height="90" transform="translate(446.4 405.4)" xlink:href="stars-25.png"/>
    <path class="cls-8" d="M491.3,458.8h0c0-4.6-3.7-8.3-8.3-8.3h0c4.6,0,8.3-3.7,8.3-8.3h0c0,4.6,3.7,8.3,8.3,8.3h0c-4.6,0-8.3,3.7-8.3,8.3Z"/>
  </g>
  <g>
    <image class="cls-29" width="104" height="104" transform="translate(202.4 804.4)" xlink:href="stars-26.png"/>
    <path class="cls-5" d="M254.5,872.4h0c0-8.7-7.1-15.8-15.8-15.8h0c8.7,0,15.8-7.1,15.8-15.8h0c0,8.7,7.1,15.8,15.8,15.8h0c-8.7,0-15.8,7.1-15.8,15.8Z"/>
  </g>
  <g>
    <image class="cls-29" width="105" height="106" transform="translate(367.4 640.4)" xlink:href="stars-27.png"/>
    <path class="cls-6" d="M419.7,709.8h0c0-9-7.3-16.3-16.3-16.3h0c9,0,16.3-7.3,16.3-16.3h0c0,9,7.3,16.3,16.3,16.3h0c-9,0-16.3,7.3-16.3,16.3Z"/>
  </g>
  <g>
    <image class="cls-29" width="94" height="94" transform="translate(182.4 1112.4)" xlink:href="stars-28.png"/>
    <path class="cls-3" d="M229.4,1169.7h0c0-5.7-4.6-10.2-10.2-10.2h0c5.7,0,10.2-4.6,10.2-10.2h0c0,5.7,4.6,10.2,10.2,10.2h0c-5.7,0-10.2,4.6-10.2,10.2Z"/>
  </g>
</svg>